%TF.GenerationSoftware,KiCad,Pcbnew,9.0.0*%
%TF.CreationDate,2025-03-22T00:06:51+01:00*%
%TF.ProjectId,steering_wheel_unit,73746565-7269-46e6-975f-776865656c5f,rev?*%
%TF.SameCoordinates,Original*%
%TF.FileFunction,Paste,Top*%
%TF.FilePolarity,Positive*%
%FSLAX46Y46*%
G04 Gerber Fmt 4.6, Leading zero omitted, Abs format (unit mm)*
G04 Created by KiCad (PCBNEW 9.0.0) date 2025-03-22 00:06:51*
%MOMM*%
%LPD*%
G01*
G04 APERTURE LIST*
G04 Aperture macros list*
%AMRoundRect*
0 Rectangle with rounded corners*
0 $1 Rounding radius*
0 $2 $3 $4 $5 $6 $7 $8 $9 X,Y pos of 4 corners*
0 Add a 4 corners polygon primitive as box body*
4,1,4,$2,$3,$4,$5,$6,$7,$8,$9,$2,$3,0*
0 Add four circle primitives for the rounded corners*
1,1,$1+$1,$2,$3*
1,1,$1+$1,$4,$5*
1,1,$1+$1,$6,$7*
1,1,$1+$1,$8,$9*
0 Add four rect primitives between the rounded corners*
20,1,$1+$1,$2,$3,$4,$5,0*
20,1,$1+$1,$4,$5,$6,$7,0*
20,1,$1+$1,$6,$7,$8,$9,0*
20,1,$1+$1,$8,$9,$2,$3,0*%
G04 Aperture macros list end*
%ADD10C,0.010000*%
%ADD11RoundRect,0.075000X-0.662500X-0.075000X0.662500X-0.075000X0.662500X0.075000X-0.662500X0.075000X0*%
%ADD12RoundRect,0.075000X-0.075000X-0.662500X0.075000X-0.662500X0.075000X0.662500X-0.075000X0.662500X0*%
%ADD13R,3.200400X2.173999*%
%ADD14RoundRect,0.250000X0.650000X-0.325000X0.650000X0.325000X-0.650000X0.325000X-0.650000X-0.325000X0*%
%ADD15RoundRect,0.250000X-0.312500X-0.625000X0.312500X-0.625000X0.312500X0.625000X-0.312500X0.625000X0*%
%ADD16RoundRect,0.250000X-0.650000X0.325000X-0.650000X-0.325000X0.650000X-0.325000X0.650000X0.325000X0*%
%ADD17RoundRect,0.250000X0.312500X0.625000X-0.312500X0.625000X-0.312500X-0.625000X0.312500X-0.625000X0*%
%ADD18R,1.400000X1.600000*%
%ADD19RoundRect,0.135000X0.315000X0.350000X-0.315000X0.350000X-0.315000X-0.350000X0.315000X-0.350000X0*%
%ADD20RoundRect,0.250000X0.625000X-0.375000X0.625000X0.375000X-0.625000X0.375000X-0.625000X-0.375000X0*%
%ADD21RoundRect,0.250000X-0.625000X0.312500X-0.625000X-0.312500X0.625000X-0.312500X0.625000X0.312500X0*%
%ADD22R,1.200000X1.200000*%
%ADD23R,1.600000X1.500000*%
%ADD24RoundRect,0.112500X-0.237500X0.112500X-0.237500X-0.112500X0.237500X-0.112500X0.237500X0.112500X0*%
%ADD25RoundRect,0.250000X0.325000X0.650000X-0.325000X0.650000X-0.325000X-0.650000X0.325000X-0.650000X0*%
%ADD26R,1.800000X1.000000*%
%ADD27R,0.800000X1.150000*%
%ADD28R,1.475000X0.450000*%
%ADD29R,2.460000X3.550000*%
%ADD30R,0.850000X0.750000*%
%ADD31RoundRect,0.250000X-0.325000X-0.650000X0.325000X-0.650000X0.325000X0.650000X-0.325000X0.650000X0*%
%ADD32RoundRect,0.150000X0.825000X0.150000X-0.825000X0.150000X-0.825000X-0.150000X0.825000X-0.150000X0*%
%ADD33RoundRect,0.240000X0.240000X1.175000X-0.240000X1.175000X-0.240000X-1.175000X0.240000X-1.175000X0*%
%ADD34RoundRect,0.250000X0.550000X-1.500000X0.550000X1.500000X-0.550000X1.500000X-0.550000X-1.500000X0*%
%ADD35R,0.660000X0.320000*%
G04 APERTURE END LIST*
D10*
%TO.C,D6*%
X205275000Y-114400000D02*
X203965000Y-114400000D01*
X203965000Y-112940000D01*
X205275000Y-112940000D01*
X205275000Y-114400000D01*
G36*
X205275000Y-114400000D02*
G01*
X203965000Y-114400000D01*
X203965000Y-112940000D01*
X205275000Y-112940000D01*
X205275000Y-114400000D01*
G37*
X205275000Y-116430000D02*
X203965000Y-116430000D01*
X203965000Y-114970000D01*
X205275000Y-114970000D01*
X205275000Y-116430000D01*
G36*
X205275000Y-116430000D02*
G01*
X203965000Y-116430000D01*
X203965000Y-114970000D01*
X205275000Y-114970000D01*
X205275000Y-116430000D01*
G37*
X205275000Y-118460000D02*
X203965000Y-118460000D01*
X203965000Y-117000000D01*
X205275000Y-117000000D01*
X205275000Y-118460000D01*
G36*
X205275000Y-118460000D02*
G01*
X203965000Y-118460000D01*
X203965000Y-117000000D01*
X205275000Y-117000000D01*
X205275000Y-118460000D01*
G37*
X207155000Y-114400000D02*
X205845000Y-114400000D01*
X205845000Y-112940000D01*
X207155000Y-112940000D01*
X207155000Y-114400000D01*
G36*
X207155000Y-114400000D02*
G01*
X205845000Y-114400000D01*
X205845000Y-112940000D01*
X207155000Y-112940000D01*
X207155000Y-114400000D01*
G37*
X207155000Y-116430000D02*
X205845000Y-116430000D01*
X205845000Y-114970000D01*
X207155000Y-114970000D01*
X207155000Y-116430000D01*
G36*
X207155000Y-116430000D02*
G01*
X205845000Y-116430000D01*
X205845000Y-114970000D01*
X207155000Y-114970000D01*
X207155000Y-116430000D01*
G37*
X207155000Y-118460000D02*
X205845000Y-118460000D01*
X205845000Y-117000000D01*
X207155000Y-117000000D01*
X207155000Y-118460000D01*
G36*
X207155000Y-118460000D02*
G01*
X205845000Y-118460000D01*
X205845000Y-117000000D01*
X207155000Y-117000000D01*
X207155000Y-118460000D01*
G37*
X209035000Y-114400000D02*
X207725000Y-114400000D01*
X207725000Y-112940000D01*
X209035000Y-112940000D01*
X209035000Y-114400000D01*
G36*
X209035000Y-114400000D02*
G01*
X207725000Y-114400000D01*
X207725000Y-112940000D01*
X209035000Y-112940000D01*
X209035000Y-114400000D01*
G37*
X209035000Y-116430000D02*
X207725000Y-116430000D01*
X207725000Y-114970000D01*
X209035000Y-114970000D01*
X209035000Y-116430000D01*
G36*
X209035000Y-116430000D02*
G01*
X207725000Y-116430000D01*
X207725000Y-114970000D01*
X209035000Y-114970000D01*
X209035000Y-116430000D01*
G37*
X209035000Y-118460000D02*
X207725000Y-118460000D01*
X207725000Y-117000000D01*
X209035000Y-117000000D01*
X209035000Y-118460000D01*
G36*
X209035000Y-118460000D02*
G01*
X207725000Y-118460000D01*
X207725000Y-117000000D01*
X209035000Y-117000000D01*
X209035000Y-118460000D01*
G37*
%TD*%
D11*
%TO.C,U1*%
X182500000Y-110000000D03*
X182500000Y-110500000D03*
X182500000Y-111000000D03*
X182500000Y-111500000D03*
X182500000Y-112000000D03*
X182500000Y-112500000D03*
X182500000Y-113000000D03*
X182500000Y-113500000D03*
X182500000Y-114000000D03*
X182500000Y-114500000D03*
X182500000Y-115000000D03*
X182500000Y-115500000D03*
D12*
X183912500Y-116912500D03*
X184412500Y-116912500D03*
X184912500Y-116912500D03*
X185412500Y-116912500D03*
X185912500Y-116912500D03*
X186412500Y-116912500D03*
X186912500Y-116912500D03*
X187412500Y-116912500D03*
X187912500Y-116912500D03*
X188412500Y-116912500D03*
X188912500Y-116912500D03*
X189412500Y-116912500D03*
D11*
X190825000Y-115500000D03*
X190825000Y-115000000D03*
X190825000Y-114500000D03*
X190825000Y-114000000D03*
X190825000Y-113500000D03*
X190825000Y-113000000D03*
X190825000Y-112500000D03*
X190825000Y-112000000D03*
X190825000Y-111500000D03*
X190825000Y-111000000D03*
X190825000Y-110500000D03*
X190825000Y-110000000D03*
D12*
X189412500Y-108587500D03*
X188912500Y-108587500D03*
X188412500Y-108587500D03*
X187912500Y-108587500D03*
X187412500Y-108587500D03*
X186912500Y-108587500D03*
X186412500Y-108587500D03*
X185912500Y-108587500D03*
X185412500Y-108587500D03*
X184912500Y-108587500D03*
X184412500Y-108587500D03*
X183912500Y-108587500D03*
%TD*%
D13*
%TO.C,D1*%
X197300000Y-96754004D03*
X197300000Y-90500000D03*
%TD*%
D14*
%TO.C,C40*%
X195800000Y-139350000D03*
X195800000Y-136400000D03*
%TD*%
%TO.C,C41*%
X193000000Y-139350000D03*
X193000000Y-136400000D03*
%TD*%
D15*
%TO.C,R41*%
X156065000Y-91740000D03*
X158990000Y-91740000D03*
%TD*%
D14*
%TO.C,C42*%
X190200000Y-139350000D03*
X190200000Y-136400000D03*
%TD*%
D16*
%TO.C,C15*%
X202000000Y-94187500D03*
X202000000Y-97137500D03*
%TD*%
D17*
%TO.C,R39*%
X165600000Y-89250000D03*
X162675000Y-89250000D03*
%TD*%
D18*
%TO.C,SW1*%
X161000000Y-134200000D03*
X161000000Y-127000000D03*
X158000000Y-134200000D03*
X158000000Y-127000000D03*
%TD*%
D19*
%TO.C,L3*%
X215990000Y-127440000D03*
X214420000Y-127440000D03*
%TD*%
D20*
%TO.C,D3*%
X203800000Y-139400000D03*
X203800000Y-136600000D03*
%TD*%
D21*
%TO.C,R5*%
X219060000Y-94600000D03*
X219060000Y-97525000D03*
%TD*%
%TO.C,R11*%
X223350000Y-119280000D03*
X223350000Y-122205000D03*
%TD*%
D20*
%TO.C,D5*%
X206400000Y-139400000D03*
X206400000Y-136600000D03*
%TD*%
D21*
%TO.C,R35*%
X203800000Y-141275000D03*
X203800000Y-144200000D03*
%TD*%
D22*
%TO.C,RV1*%
X218310000Y-103710000D03*
D23*
X219310000Y-100460000D03*
D22*
X220310000Y-103710000D03*
%TD*%
D17*
%TO.C,R4*%
X214230000Y-104180000D03*
X211305000Y-104180000D03*
%TD*%
D24*
%TO.C,D4*%
X170580000Y-92450000D03*
X170580000Y-93750000D03*
X172580000Y-93100000D03*
%TD*%
D25*
%TO.C,C20*%
X161017500Y-123860000D03*
X158067500Y-123860000D03*
%TD*%
D16*
%TO.C,C35*%
X212735000Y-113980000D03*
X212735000Y-116930000D03*
%TD*%
%TO.C,C37*%
X204540000Y-120350000D03*
X204540000Y-123300000D03*
%TD*%
D21*
%TO.C,R33*%
X201200000Y-141275000D03*
X201200000Y-144200000D03*
%TD*%
D15*
%TO.C,R40*%
X156005000Y-89190000D03*
X158930000Y-89190000D03*
%TD*%
D26*
%TO.C,X1*%
X164100000Y-108400000D03*
X164100000Y-105900000D03*
%TD*%
D25*
%TO.C,C25*%
X167230000Y-102570000D03*
X164280000Y-102570000D03*
%TD*%
D16*
%TO.C,C38*%
X207150000Y-120350000D03*
X207150000Y-123300000D03*
%TD*%
D27*
%TO.C,Z3*%
X163562500Y-94200000D03*
X163562500Y-97700000D03*
%TD*%
D28*
%TO.C,IC2*%
X208440000Y-94180000D03*
X208440000Y-94830000D03*
X208440000Y-95480000D03*
X208440000Y-96130000D03*
X208440000Y-96780000D03*
X208440000Y-97430000D03*
X208440000Y-98080000D03*
X208440000Y-98730000D03*
X214316000Y-98730000D03*
X214316000Y-98080000D03*
X214316000Y-97430000D03*
X214316000Y-96780000D03*
X214316000Y-96130000D03*
X214316000Y-95480000D03*
X214316000Y-94830000D03*
X214316000Y-94180000D03*
D29*
X211378000Y-96455000D03*
%TD*%
D21*
%TO.C,R10*%
X215425000Y-114010000D03*
X215425000Y-116935000D03*
%TD*%
D30*
%TO.C,X2*%
X167826000Y-110424000D03*
X169176000Y-110424000D03*
X169176000Y-109374000D03*
X167826000Y-109374000D03*
%TD*%
D18*
%TO.C,SW2*%
X167050000Y-134200000D03*
X167050000Y-127000000D03*
X164050000Y-134200000D03*
X164050000Y-127000000D03*
%TD*%
%TO.C,SW3*%
X172925000Y-134200000D03*
X172925000Y-127000000D03*
X169925000Y-134200000D03*
X169925000Y-127000000D03*
%TD*%
D25*
%TO.C,C22*%
X172900000Y-123400000D03*
X169950000Y-123400000D03*
%TD*%
D22*
%TO.C,RV2*%
X221340000Y-115760000D03*
D23*
X222340000Y-112510000D03*
D22*
X223340000Y-115760000D03*
%TD*%
D15*
%TO.C,R7*%
X217370000Y-107330000D03*
X220295000Y-107330000D03*
%TD*%
D31*
%TO.C,C12*%
X167776000Y-112574000D03*
X170726000Y-112574000D03*
%TD*%
D16*
%TO.C,C34*%
X215980000Y-122050000D03*
X215980000Y-125000000D03*
%TD*%
D15*
%TO.C,R12*%
X167235000Y-99420000D03*
X170160000Y-99420000D03*
%TD*%
D16*
%TO.C,C11*%
X161400000Y-105900000D03*
X161400000Y-108850000D03*
%TD*%
D27*
%TO.C,Z4*%
X158100000Y-94100000D03*
X158100000Y-97600000D03*
%TD*%
D17*
%TO.C,R37*%
X160962500Y-137000000D03*
X158037500Y-137000000D03*
%TD*%
D31*
%TO.C,C39*%
X215350000Y-119580000D03*
X218300000Y-119580000D03*
%TD*%
D20*
%TO.C,D2*%
X201200000Y-139400000D03*
X201200000Y-136600000D03*
%TD*%
D21*
%TO.C,R2*%
X204600000Y-94175000D03*
X204600000Y-97100000D03*
%TD*%
D32*
%TO.C,U3*%
X177540000Y-99380000D03*
X177540000Y-98110000D03*
X177540000Y-96840000D03*
X177540000Y-95570000D03*
X172590000Y-95570000D03*
X172590000Y-96840000D03*
X172590000Y-98110000D03*
X172590000Y-99380000D03*
%TD*%
D15*
%TO.C,R38*%
X162675000Y-91800000D03*
X165600000Y-91800000D03*
%TD*%
D33*
%TO.C,D6*%
X208786000Y-109050000D03*
X204214000Y-109050000D03*
%TD*%
D34*
%TO.C,C17*%
X218020000Y-91240000D03*
X218020000Y-85840000D03*
%TD*%
D17*
%TO.C,R42*%
X161005000Y-121040000D03*
X158080000Y-121040000D03*
%TD*%
D21*
%TO.C,R3*%
X204620000Y-99225000D03*
X204620000Y-102150000D03*
%TD*%
D17*
%TO.C,R43*%
X167012500Y-137200000D03*
X164087500Y-137200000D03*
%TD*%
D15*
%TO.C,R13*%
X167235000Y-96820000D03*
X170160000Y-96820000D03*
%TD*%
D17*
%TO.C,R46*%
X172887500Y-120700000D03*
X169962500Y-120700000D03*
%TD*%
D16*
%TO.C,C36*%
X218030000Y-113980000D03*
X218030000Y-116930000D03*
%TD*%
D17*
%TO.C,R44*%
X167012500Y-120800000D03*
X164087500Y-120800000D03*
%TD*%
D21*
%TO.C,R36*%
X206400000Y-141275000D03*
X206400000Y-144200000D03*
%TD*%
D16*
%TO.C,C10*%
X164100000Y-110450000D03*
X164100000Y-113400000D03*
%TD*%
D25*
%TO.C,C19*%
X214245000Y-101500000D03*
X211295000Y-101500000D03*
%TD*%
D31*
%TO.C,C13*%
X167776000Y-115274000D03*
X170726000Y-115274000D03*
%TD*%
D25*
%TO.C,C21*%
X167025000Y-123500000D03*
X164075000Y-123500000D03*
%TD*%
D17*
%TO.C,R45*%
X172887500Y-137100000D03*
X169962500Y-137100000D03*
%TD*%
D35*
%TO.C,U4*%
X211300000Y-119300000D03*
X211300000Y-119800000D03*
X211300000Y-120300000D03*
X211300000Y-120800000D03*
X212770000Y-120800000D03*
X212770000Y-120300000D03*
X212770000Y-119800000D03*
X212770000Y-119300000D03*
%TD*%
M02*
