%TF.GenerationSoftware,KiCad,Pcbnew,9.0.0*%
%TF.CreationDate,2025-03-22T00:06:51+01:00*%
%TF.ProjectId,steering_wheel_unit,73746565-7269-46e6-975f-776865656c5f,rev?*%
%TF.SameCoordinates,Original*%
%TF.FileFunction,Paste,Bot*%
%TF.FilePolarity,Positive*%
%FSLAX46Y46*%
G04 Gerber Fmt 4.6, Leading zero omitted, Abs format (unit mm)*
G04 Created by KiCad (PCBNEW 9.0.0) date 2025-03-22 00:06:51*
%MOMM*%
%LPD*%
G01*
G04 APERTURE LIST*
G04 Aperture macros list*
%AMRoundRect*
0 Rectangle with rounded corners*
0 $1 Rounding radius*
0 $2 $3 $4 $5 $6 $7 $8 $9 X,Y pos of 4 corners*
0 Add a 4 corners polygon primitive as box body*
4,1,4,$2,$3,$4,$5,$6,$7,$8,$9,$2,$3,0*
0 Add four circle primitives for the rounded corners*
1,1,$1+$1,$2,$3*
1,1,$1+$1,$4,$5*
1,1,$1+$1,$6,$7*
1,1,$1+$1,$8,$9*
0 Add four rect primitives between the rounded corners*
20,1,$1+$1,$2,$3,$4,$5,0*
20,1,$1+$1,$4,$5,$6,$7,0*
20,1,$1+$1,$6,$7,$8,$9,0*
20,1,$1+$1,$8,$9,$2,$3,0*%
G04 Aperture macros list end*
%ADD10RoundRect,0.135000X0.350000X-0.315000X0.350000X0.315000X-0.350000X0.315000X-0.350000X-0.315000X0*%
%ADD11RoundRect,0.250000X-0.650000X0.325000X-0.650000X-0.325000X0.650000X-0.325000X0.650000X0.325000X0*%
%ADD12RoundRect,0.250000X0.325000X0.650000X-0.325000X0.650000X-0.325000X-0.650000X0.325000X-0.650000X0*%
%ADD13RoundRect,0.250000X0.650000X-0.325000X0.650000X0.325000X-0.650000X0.325000X-0.650000X-0.325000X0*%
%ADD14RoundRect,0.250000X-0.312500X-0.625000X0.312500X-0.625000X0.312500X0.625000X-0.312500X0.625000X0*%
%ADD15RoundRect,0.250000X0.625000X-0.312500X0.625000X0.312500X-0.625000X0.312500X-0.625000X-0.312500X0*%
%ADD16RoundRect,0.093750X-0.093750X0.156250X-0.093750X-0.156250X0.093750X-0.156250X0.093750X0.156250X0*%
%ADD17RoundRect,0.075000X-0.075000X0.250000X-0.075000X-0.250000X0.075000X-0.250000X0.075000X0.250000X0*%
%ADD18RoundRect,0.250000X-0.325000X-0.650000X0.325000X-0.650000X0.325000X0.650000X-0.325000X0.650000X0*%
%ADD19RoundRect,0.250000X-0.625000X0.312500X-0.625000X-0.312500X0.625000X-0.312500X0.625000X0.312500X0*%
%ADD20RoundRect,0.250000X0.312500X0.625000X-0.312500X0.625000X-0.312500X-0.625000X0.312500X-0.625000X0*%
G04 APERTURE END LIST*
D10*
%TO.C,L2*%
X184330000Y-115470000D03*
X184330000Y-117040000D03*
%TD*%
D11*
%TO.C,C7*%
X186500000Y-118500000D03*
X186500000Y-115550000D03*
%TD*%
%TO.C,C8*%
X189000000Y-118500000D03*
X189000000Y-115550000D03*
%TD*%
%TO.C,C9*%
X182130000Y-118540000D03*
X182130000Y-115590000D03*
%TD*%
D12*
%TO.C,C6*%
X182240000Y-112750000D03*
X179290000Y-112750000D03*
%TD*%
D13*
%TO.C,C3*%
X188000000Y-110000000D03*
X188000000Y-107050000D03*
%TD*%
D11*
%TO.C,C29*%
X210407500Y-134925000D03*
X210407500Y-137875000D03*
%TD*%
D14*
%TO.C,R16*%
X221175000Y-111200000D03*
X224100000Y-111200000D03*
%TD*%
D15*
%TO.C,R9*%
X203530000Y-85595000D03*
X203530000Y-82670000D03*
%TD*%
D12*
%TO.C,C33*%
X153400000Y-122900000D03*
X150450000Y-122900000D03*
%TD*%
D14*
%TO.C,R24*%
X221175000Y-120640000D03*
X224100000Y-120640000D03*
%TD*%
D16*
%TO.C,U2*%
X188355000Y-100850000D03*
D17*
X188892500Y-100775000D03*
D16*
X189430000Y-100850000D03*
X189430000Y-102550000D03*
D17*
X188892500Y-102625000D03*
D16*
X188355000Y-102550000D03*
%TD*%
D14*
%TO.C,R19*%
X150192500Y-98800000D03*
X153117500Y-98800000D03*
%TD*%
D18*
%TO.C,C27*%
X221150000Y-113700000D03*
X224100000Y-113700000D03*
%TD*%
D13*
%TO.C,C4*%
X190500000Y-110000000D03*
X190500000Y-107050000D03*
%TD*%
D19*
%TO.C,R23*%
X165100000Y-135875000D03*
X165100000Y-138800000D03*
%TD*%
D13*
%TO.C,C24*%
X172900000Y-99380000D03*
X172900000Y-96430000D03*
%TD*%
D10*
%TO.C,L1*%
X191100000Y-118570000D03*
X191100000Y-117000000D03*
%TD*%
D14*
%TO.C,R15*%
X221192500Y-102140000D03*
X224117500Y-102140000D03*
%TD*%
D13*
%TO.C,C1*%
X183000000Y-110000000D03*
X183000000Y-107050000D03*
%TD*%
D15*
%TO.C,R27*%
X167700000Y-138800000D03*
X167700000Y-135875000D03*
%TD*%
D18*
%TO.C,C32*%
X221150000Y-123100000D03*
X224100000Y-123100000D03*
%TD*%
D20*
%TO.C,R17*%
X224100000Y-108700000D03*
X221175000Y-108700000D03*
%TD*%
D19*
%TO.C,R6*%
X213560000Y-82857500D03*
X213560000Y-85782500D03*
%TD*%
D12*
%TO.C,C30*%
X153325000Y-113700000D03*
X150375000Y-113700000D03*
%TD*%
D14*
%TO.C,R29*%
X150475000Y-117700000D03*
X153400000Y-117700000D03*
%TD*%
D20*
%TO.C,R18*%
X153117500Y-101340000D03*
X150192500Y-101340000D03*
%TD*%
D11*
%TO.C,C14*%
X216200000Y-88810000D03*
X216200000Y-91760000D03*
%TD*%
D20*
%TO.C,R25*%
X153400000Y-120300000D03*
X150475000Y-120300000D03*
%TD*%
D18*
%TO.C,C26*%
X221180000Y-104600000D03*
X224130000Y-104600000D03*
%TD*%
D20*
%TO.C,R22*%
X153312500Y-111100000D03*
X150387500Y-111100000D03*
%TD*%
D19*
%TO.C,R1*%
X216170000Y-82857500D03*
X216170000Y-85782500D03*
%TD*%
D11*
%TO.C,C18*%
X200900000Y-82657500D03*
X200900000Y-85607500D03*
%TD*%
D13*
%TO.C,C23*%
X175700000Y-99380000D03*
X175700000Y-96430000D03*
%TD*%
D20*
%TO.C,R14*%
X224117500Y-99700000D03*
X221192500Y-99700000D03*
%TD*%
D13*
%TO.C,C2*%
X185500000Y-110000000D03*
X185500000Y-107050000D03*
%TD*%
D12*
%TO.C,C28*%
X153130000Y-103830000D03*
X150180000Y-103830000D03*
%TD*%
D19*
%TO.C,R48*%
X196710000Y-99090000D03*
X196710000Y-102015000D03*
%TD*%
D13*
%TO.C,C5*%
X193000000Y-110000000D03*
X193000000Y-107050000D03*
%TD*%
D11*
%TO.C,C16*%
X210920000Y-82845000D03*
X210920000Y-85795000D03*
%TD*%
D20*
%TO.C,R28*%
X224100000Y-118140000D03*
X221175000Y-118140000D03*
%TD*%
D19*
%TO.C,R30*%
X210750000Y-88822500D03*
X210750000Y-91747500D03*
%TD*%
%TO.C,R20*%
X212907500Y-134975000D03*
X212907500Y-137900000D03*
%TD*%
%TO.C,R8*%
X206120000Y-82670000D03*
X206120000Y-85595000D03*
%TD*%
%TO.C,R47*%
X194250000Y-99110000D03*
X194250000Y-102035000D03*
%TD*%
D14*
%TO.C,R26*%
X150387500Y-108500000D03*
X153312500Y-108500000D03*
%TD*%
D19*
%TO.C,R31*%
X213430000Y-88822500D03*
X213430000Y-91747500D03*
%TD*%
D15*
%TO.C,R21*%
X215400000Y-137900000D03*
X215400000Y-134975000D03*
%TD*%
D11*
%TO.C,C31*%
X162500000Y-135862500D03*
X162500000Y-138812500D03*
%TD*%
M02*
