%TF.GenerationSoftware,KiCad,Pcbnew,9.0.0*%
%TF.CreationDate,2025-03-22T00:06:51+01:00*%
%TF.ProjectId,steering_wheel_unit,73746565-7269-46e6-975f-776865656c5f,rev?*%
%TF.SameCoordinates,Original*%
%TF.FileFunction,Soldermask,Top*%
%TF.FilePolarity,Negative*%
%FSLAX46Y46*%
G04 Gerber Fmt 4.6, Leading zero omitted, Abs format (unit mm)*
G04 Created by KiCad (PCBNEW 9.0.0) date 2025-03-22 00:06:51*
%MOMM*%
%LPD*%
G01*
G04 APERTURE LIST*
G04 Aperture macros list*
%AMRoundRect*
0 Rectangle with rounded corners*
0 $1 Rounding radius*
0 $2 $3 $4 $5 $6 $7 $8 $9 X,Y pos of 4 corners*
0 Add a 4 corners polygon primitive as box body*
4,1,4,$2,$3,$4,$5,$6,$7,$8,$9,$2,$3,0*
0 Add four circle primitives for the rounded corners*
1,1,$1+$1,$2,$3*
1,1,$1+$1,$4,$5*
1,1,$1+$1,$6,$7*
1,1,$1+$1,$8,$9*
0 Add four rect primitives between the rounded corners*
20,1,$1+$1,$2,$3,$4,$5,0*
20,1,$1+$1,$4,$5,$6,$7,0*
20,1,$1+$1,$6,$7,$8,$9,0*
20,1,$1+$1,$8,$9,$2,$3,0*%
G04 Aperture macros list end*
%ADD10C,0.010000*%
%ADD11C,1.026200*%
%ADD12R,1.700000X1.700000*%
%ADD13O,1.700000X1.700000*%
%ADD14RoundRect,0.075000X-0.662500X-0.075000X0.662500X-0.075000X0.662500X0.075000X-0.662500X0.075000X0*%
%ADD15RoundRect,0.075000X-0.075000X-0.662500X0.075000X-0.662500X0.075000X0.662500X-0.075000X0.662500X0*%
%ADD16R,3.200400X2.173999*%
%ADD17RoundRect,0.250000X0.625000X-0.350000X0.625000X0.350000X-0.625000X0.350000X-0.625000X-0.350000X0*%
%ADD18O,1.750000X1.200000*%
%ADD19RoundRect,0.250000X0.650000X-0.325000X0.650000X0.325000X-0.650000X0.325000X-0.650000X-0.325000X0*%
%ADD20RoundRect,0.250000X-0.350000X-0.625000X0.350000X-0.625000X0.350000X0.625000X-0.350000X0.625000X0*%
%ADD21O,1.200000X1.750000*%
%ADD22RoundRect,0.250000X-0.312500X-0.625000X0.312500X-0.625000X0.312500X0.625000X-0.312500X0.625000X0*%
%ADD23RoundRect,0.250000X-0.650000X0.325000X-0.650000X-0.325000X0.650000X-0.325000X0.650000X0.325000X0*%
%ADD24RoundRect,0.250000X0.312500X0.625000X-0.312500X0.625000X-0.312500X-0.625000X0.312500X-0.625000X0*%
%ADD25RoundRect,0.102000X0.700000X-0.800000X0.700000X0.800000X-0.700000X0.800000X-0.700000X-0.800000X0*%
%ADD26RoundRect,0.165600X0.386400X0.421400X-0.386400X0.421400X-0.386400X-0.421400X0.386400X-0.421400X0*%
%ADD27RoundRect,0.250000X0.625000X-0.375000X0.625000X0.375000X-0.625000X0.375000X-0.625000X-0.375000X0*%
%ADD28RoundRect,0.250000X-0.625000X0.312500X-0.625000X-0.312500X0.625000X-0.312500X0.625000X0.312500X0*%
%ADD29R,1.200000X1.200000*%
%ADD30R,1.600000X1.500000*%
%ADD31RoundRect,0.112500X-0.237500X0.112500X-0.237500X-0.112500X0.237500X-0.112500X0.237500X0.112500X0*%
%ADD32RoundRect,0.250000X0.325000X0.650000X-0.325000X0.650000X-0.325000X-0.650000X0.325000X-0.650000X0*%
%ADD33RoundRect,0.102000X0.900000X-0.500000X0.900000X0.500000X-0.900000X0.500000X-0.900000X-0.500000X0*%
%ADD34RoundRect,0.250000X-0.625000X0.350000X-0.625000X-0.350000X0.625000X-0.350000X0.625000X0.350000X0*%
%ADD35C,6.400000*%
%ADD36R,0.800000X1.150000*%
%ADD37R,1.475000X0.450000*%
%ADD38R,2.460000X3.550000*%
%ADD39RoundRect,0.102000X0.425000X-0.375000X0.425000X0.375000X-0.425000X0.375000X-0.425000X-0.375000X0*%
%ADD40RoundRect,0.250000X-0.325000X-0.650000X0.325000X-0.650000X0.325000X0.650000X-0.325000X0.650000X0*%
%ADD41RoundRect,0.150000X0.825000X0.150000X-0.825000X0.150000X-0.825000X-0.150000X0.825000X-0.150000X0*%
%ADD42RoundRect,0.291000X0.291000X1.226000X-0.291000X1.226000X-0.291000X-1.226000X0.291000X-1.226000X0*%
%ADD43RoundRect,0.291700X2.625300X2.860300X-2.625300X2.860300X-2.625300X-2.860300X2.625300X-2.860300X0*%
%ADD44RoundRect,0.250000X0.550000X-1.500000X0.550000X1.500000X-0.550000X1.500000X-0.550000X-1.500000X0*%
%ADD45RoundRect,0.250000X0.600000X-0.600000X0.600000X0.600000X-0.600000X0.600000X-0.600000X-0.600000X0*%
%ADD46C,1.700000*%
%ADD47C,1.000000*%
%ADD48C,0.600000*%
%ADD49C,0.800000*%
G04 APERTURE END LIST*
D10*
%TO.C,J1*%
X196088700Y-81526200D02*
X194036300Y-81526200D01*
X194036300Y-79473800D01*
X196088700Y-79473800D01*
X196088700Y-81526200D01*
G36*
X196088700Y-81526200D02*
G01*
X194036300Y-81526200D01*
X194036300Y-79473800D01*
X196088700Y-79473800D01*
X196088700Y-81526200D01*
G37*
D11*
X195575600Y-86000000D02*
G75*
G02*
X194549400Y-86000000I-513100J0D01*
G01*
X194549400Y-86000000D02*
G75*
G02*
X195575600Y-86000000I513100J0D01*
G01*
X191375600Y-86000000D02*
G75*
G02*
X190349400Y-86000000I-513100J0D01*
G01*
X190349400Y-86000000D02*
G75*
G02*
X191375600Y-86000000I513100J0D01*
G01*
X191375600Y-80500000D02*
G75*
G02*
X190349400Y-80500000I-513100J0D01*
G01*
X190349400Y-80500000D02*
G75*
G02*
X191375600Y-80500000I513100J0D01*
G01*
X187175600Y-86000000D02*
G75*
G02*
X186149400Y-86000000I-513100J0D01*
G01*
X186149400Y-86000000D02*
G75*
G02*
X187175600Y-86000000I513100J0D01*
G01*
X187175600Y-80500000D02*
G75*
G02*
X186149400Y-80500000I-513100J0D01*
G01*
X186149400Y-80500000D02*
G75*
G02*
X187175600Y-80500000I513100J0D01*
G01*
X182975600Y-86000000D02*
G75*
G02*
X181949400Y-86000000I-513100J0D01*
G01*
X181949400Y-86000000D02*
G75*
G02*
X182975600Y-86000000I513100J0D01*
G01*
X182975600Y-80500000D02*
G75*
G02*
X181949400Y-80500000I-513100J0D01*
G01*
X181949400Y-80500000D02*
G75*
G02*
X182975600Y-80500000I513100J0D01*
G01*
X178775600Y-86000000D02*
G75*
G02*
X177749400Y-86000000I-513100J0D01*
G01*
X177749400Y-86000000D02*
G75*
G02*
X178775600Y-86000000I513100J0D01*
G01*
X178775600Y-80500000D02*
G75*
G02*
X177749400Y-80500000I-513100J0D01*
G01*
X177749400Y-80500000D02*
G75*
G02*
X178775600Y-80500000I513100J0D01*
G01*
D10*
%TO.C,J2*%
X184526000Y-94471000D02*
X184539000Y-94473000D01*
X184552000Y-94475000D01*
X184565000Y-94479000D01*
X184577000Y-94482000D01*
X184590000Y-94487000D01*
X184602000Y-94492000D01*
X184613000Y-94497000D01*
X184625000Y-94503000D01*
X184636000Y-94510000D01*
X184647000Y-94518000D01*
X184657000Y-94526000D01*
X184667000Y-94534000D01*
X184677000Y-94543000D01*
X184686000Y-94553000D01*
X184694000Y-94563000D01*
X184702000Y-94573000D01*
X184710000Y-94584000D01*
X184717000Y-94595000D01*
X184723000Y-94607000D01*
X184728000Y-94618000D01*
X184733000Y-94630000D01*
X184738000Y-94643000D01*
X184741000Y-94655000D01*
X184745000Y-94668000D01*
X184747000Y-94681000D01*
X184749000Y-94694000D01*
X184750000Y-94707000D01*
X184750000Y-94720000D01*
X184750000Y-95020000D01*
X184750000Y-95033000D01*
X184749000Y-95046000D01*
X184747000Y-95059000D01*
X184745000Y-95072000D01*
X184741000Y-95085000D01*
X184738000Y-95097000D01*
X184733000Y-95110000D01*
X184728000Y-95122000D01*
X184723000Y-95133000D01*
X184717000Y-95145000D01*
X184710000Y-95156000D01*
X184702000Y-95167000D01*
X184694000Y-95177000D01*
X184686000Y-95187000D01*
X184677000Y-95197000D01*
X184667000Y-95206000D01*
X184657000Y-95214000D01*
X184647000Y-95222000D01*
X184636000Y-95230000D01*
X184625000Y-95237000D01*
X184613000Y-95243000D01*
X184602000Y-95248000D01*
X184590000Y-95253000D01*
X184577000Y-95258000D01*
X184565000Y-95261000D01*
X184552000Y-95265000D01*
X184539000Y-95267000D01*
X184526000Y-95269000D01*
X184513000Y-95270000D01*
X184500000Y-95270000D01*
X184200000Y-95270000D01*
X184187000Y-95270000D01*
X184174000Y-95269000D01*
X184161000Y-95267000D01*
X184148000Y-95265000D01*
X184135000Y-95261000D01*
X184123000Y-95258000D01*
X184110000Y-95253000D01*
X184098000Y-95248000D01*
X184087000Y-95243000D01*
X184075000Y-95237000D01*
X184064000Y-95230000D01*
X184053000Y-95222000D01*
X184043000Y-95214000D01*
X184033000Y-95206000D01*
X184023000Y-95197000D01*
X184014000Y-95187000D01*
X184006000Y-95177000D01*
X183998000Y-95167000D01*
X183990000Y-95156000D01*
X183983000Y-95145000D01*
X183977000Y-95133000D01*
X183972000Y-95122000D01*
X183967000Y-95110000D01*
X183962000Y-95097000D01*
X183959000Y-95085000D01*
X183955000Y-95072000D01*
X183953000Y-95059000D01*
X183951000Y-95046000D01*
X183950000Y-95033000D01*
X183950000Y-95020000D01*
X183950000Y-94720000D01*
X183950000Y-94707000D01*
X183951000Y-94694000D01*
X183953000Y-94681000D01*
X183955000Y-94668000D01*
X183959000Y-94655000D01*
X183962000Y-94643000D01*
X183967000Y-94630000D01*
X183972000Y-94618000D01*
X183977000Y-94607000D01*
X183983000Y-94595000D01*
X183990000Y-94584000D01*
X183998000Y-94573000D01*
X184006000Y-94563000D01*
X184014000Y-94553000D01*
X184023000Y-94543000D01*
X184033000Y-94534000D01*
X184043000Y-94526000D01*
X184053000Y-94518000D01*
X184064000Y-94510000D01*
X184075000Y-94503000D01*
X184087000Y-94497000D01*
X184098000Y-94492000D01*
X184110000Y-94487000D01*
X184123000Y-94482000D01*
X184135000Y-94479000D01*
X184148000Y-94475000D01*
X184161000Y-94473000D01*
X184174000Y-94471000D01*
X184187000Y-94470000D01*
X184200000Y-94470000D01*
X184500000Y-94470000D01*
X184513000Y-94470000D01*
X184526000Y-94471000D01*
G36*
X184526000Y-94471000D02*
G01*
X184539000Y-94473000D01*
X184552000Y-94475000D01*
X184565000Y-94479000D01*
X184577000Y-94482000D01*
X184590000Y-94487000D01*
X184602000Y-94492000D01*
X184613000Y-94497000D01*
X184625000Y-94503000D01*
X184636000Y-94510000D01*
X184647000Y-94518000D01*
X184657000Y-94526000D01*
X184667000Y-94534000D01*
X184677000Y-94543000D01*
X184686000Y-94553000D01*
X184694000Y-94563000D01*
X184702000Y-94573000D01*
X184710000Y-94584000D01*
X184717000Y-94595000D01*
X184723000Y-94607000D01*
X184728000Y-94618000D01*
X184733000Y-94630000D01*
X184738000Y-94643000D01*
X184741000Y-94655000D01*
X184745000Y-94668000D01*
X184747000Y-94681000D01*
X184749000Y-94694000D01*
X184750000Y-94707000D01*
X184750000Y-94720000D01*
X184750000Y-95020000D01*
X184750000Y-95033000D01*
X184749000Y-95046000D01*
X184747000Y-95059000D01*
X184745000Y-95072000D01*
X184741000Y-95085000D01*
X184738000Y-95097000D01*
X184733000Y-95110000D01*
X184728000Y-95122000D01*
X184723000Y-95133000D01*
X184717000Y-95145000D01*
X184710000Y-95156000D01*
X184702000Y-95167000D01*
X184694000Y-95177000D01*
X184686000Y-95187000D01*
X184677000Y-95197000D01*
X184667000Y-95206000D01*
X184657000Y-95214000D01*
X184647000Y-95222000D01*
X184636000Y-95230000D01*
X184625000Y-95237000D01*
X184613000Y-95243000D01*
X184602000Y-95248000D01*
X184590000Y-95253000D01*
X184577000Y-95258000D01*
X184565000Y-95261000D01*
X184552000Y-95265000D01*
X184539000Y-95267000D01*
X184526000Y-95269000D01*
X184513000Y-95270000D01*
X184500000Y-95270000D01*
X184200000Y-95270000D01*
X184187000Y-95270000D01*
X184174000Y-95269000D01*
X184161000Y-95267000D01*
X184148000Y-95265000D01*
X184135000Y-95261000D01*
X184123000Y-95258000D01*
X184110000Y-95253000D01*
X184098000Y-95248000D01*
X184087000Y-95243000D01*
X184075000Y-95237000D01*
X184064000Y-95230000D01*
X184053000Y-95222000D01*
X184043000Y-95214000D01*
X184033000Y-95206000D01*
X184023000Y-95197000D01*
X184014000Y-95187000D01*
X184006000Y-95177000D01*
X183998000Y-95167000D01*
X183990000Y-95156000D01*
X183983000Y-95145000D01*
X183977000Y-95133000D01*
X183972000Y-95122000D01*
X183967000Y-95110000D01*
X183962000Y-95097000D01*
X183959000Y-95085000D01*
X183955000Y-95072000D01*
X183953000Y-95059000D01*
X183951000Y-95046000D01*
X183950000Y-95033000D01*
X183950000Y-95020000D01*
X183950000Y-94720000D01*
X183950000Y-94707000D01*
X183951000Y-94694000D01*
X183953000Y-94681000D01*
X183955000Y-94668000D01*
X183959000Y-94655000D01*
X183962000Y-94643000D01*
X183967000Y-94630000D01*
X183972000Y-94618000D01*
X183977000Y-94607000D01*
X183983000Y-94595000D01*
X183990000Y-94584000D01*
X183998000Y-94573000D01*
X184006000Y-94563000D01*
X184014000Y-94553000D01*
X184023000Y-94543000D01*
X184033000Y-94534000D01*
X184043000Y-94526000D01*
X184053000Y-94518000D01*
X184064000Y-94510000D01*
X184075000Y-94503000D01*
X184087000Y-94497000D01*
X184098000Y-94492000D01*
X184110000Y-94487000D01*
X184123000Y-94482000D01*
X184135000Y-94479000D01*
X184148000Y-94475000D01*
X184161000Y-94473000D01*
X184174000Y-94471000D01*
X184187000Y-94470000D01*
X184200000Y-94470000D01*
X184500000Y-94470000D01*
X184513000Y-94470000D01*
X184526000Y-94471000D01*
G37*
X184526000Y-95871000D02*
X184539000Y-95873000D01*
X184552000Y-95875000D01*
X184565000Y-95879000D01*
X184577000Y-95882000D01*
X184590000Y-95887000D01*
X184602000Y-95892000D01*
X184613000Y-95897000D01*
X184625000Y-95903000D01*
X184636000Y-95910000D01*
X184647000Y-95918000D01*
X184657000Y-95926000D01*
X184667000Y-95934000D01*
X184677000Y-95943000D01*
X184686000Y-95953000D01*
X184694000Y-95963000D01*
X184702000Y-95973000D01*
X184710000Y-95984000D01*
X184717000Y-95995000D01*
X184723000Y-96007000D01*
X184728000Y-96018000D01*
X184733000Y-96030000D01*
X184738000Y-96043000D01*
X184741000Y-96055000D01*
X184745000Y-96068000D01*
X184747000Y-96081000D01*
X184749000Y-96094000D01*
X184750000Y-96107000D01*
X184750000Y-96120000D01*
X184750000Y-96420000D01*
X184750000Y-96433000D01*
X184749000Y-96446000D01*
X184747000Y-96459000D01*
X184745000Y-96472000D01*
X184741000Y-96485000D01*
X184738000Y-96497000D01*
X184733000Y-96510000D01*
X184728000Y-96522000D01*
X184723000Y-96533000D01*
X184717000Y-96545000D01*
X184710000Y-96556000D01*
X184702000Y-96567000D01*
X184694000Y-96577000D01*
X184686000Y-96587000D01*
X184677000Y-96597000D01*
X184667000Y-96606000D01*
X184657000Y-96614000D01*
X184647000Y-96622000D01*
X184636000Y-96630000D01*
X184625000Y-96637000D01*
X184613000Y-96643000D01*
X184602000Y-96648000D01*
X184590000Y-96653000D01*
X184577000Y-96658000D01*
X184565000Y-96661000D01*
X184552000Y-96665000D01*
X184539000Y-96667000D01*
X184526000Y-96669000D01*
X184513000Y-96670000D01*
X184500000Y-96670000D01*
X184200000Y-96670000D01*
X184187000Y-96670000D01*
X184174000Y-96669000D01*
X184161000Y-96667000D01*
X184148000Y-96665000D01*
X184135000Y-96661000D01*
X184123000Y-96658000D01*
X184110000Y-96653000D01*
X184098000Y-96648000D01*
X184087000Y-96643000D01*
X184075000Y-96637000D01*
X184064000Y-96630000D01*
X184053000Y-96622000D01*
X184043000Y-96614000D01*
X184033000Y-96606000D01*
X184023000Y-96597000D01*
X184014000Y-96587000D01*
X184006000Y-96577000D01*
X183998000Y-96567000D01*
X183990000Y-96556000D01*
X183983000Y-96545000D01*
X183977000Y-96533000D01*
X183972000Y-96522000D01*
X183967000Y-96510000D01*
X183962000Y-96497000D01*
X183959000Y-96485000D01*
X183955000Y-96472000D01*
X183953000Y-96459000D01*
X183951000Y-96446000D01*
X183950000Y-96433000D01*
X183950000Y-96420000D01*
X183950000Y-96120000D01*
X183950000Y-96107000D01*
X183951000Y-96094000D01*
X183953000Y-96081000D01*
X183955000Y-96068000D01*
X183959000Y-96055000D01*
X183962000Y-96043000D01*
X183967000Y-96030000D01*
X183972000Y-96018000D01*
X183977000Y-96007000D01*
X183983000Y-95995000D01*
X183990000Y-95984000D01*
X183998000Y-95973000D01*
X184006000Y-95963000D01*
X184014000Y-95953000D01*
X184023000Y-95943000D01*
X184033000Y-95934000D01*
X184043000Y-95926000D01*
X184053000Y-95918000D01*
X184064000Y-95910000D01*
X184075000Y-95903000D01*
X184087000Y-95897000D01*
X184098000Y-95892000D01*
X184110000Y-95887000D01*
X184123000Y-95882000D01*
X184135000Y-95879000D01*
X184148000Y-95875000D01*
X184161000Y-95873000D01*
X184174000Y-95871000D01*
X184187000Y-95870000D01*
X184200000Y-95870000D01*
X184500000Y-95870000D01*
X184513000Y-95870000D01*
X184526000Y-95871000D01*
G36*
X184526000Y-95871000D02*
G01*
X184539000Y-95873000D01*
X184552000Y-95875000D01*
X184565000Y-95879000D01*
X184577000Y-95882000D01*
X184590000Y-95887000D01*
X184602000Y-95892000D01*
X184613000Y-95897000D01*
X184625000Y-95903000D01*
X184636000Y-95910000D01*
X184647000Y-95918000D01*
X184657000Y-95926000D01*
X184667000Y-95934000D01*
X184677000Y-95943000D01*
X184686000Y-95953000D01*
X184694000Y-95963000D01*
X184702000Y-95973000D01*
X184710000Y-95984000D01*
X184717000Y-95995000D01*
X184723000Y-96007000D01*
X184728000Y-96018000D01*
X184733000Y-96030000D01*
X184738000Y-96043000D01*
X184741000Y-96055000D01*
X184745000Y-96068000D01*
X184747000Y-96081000D01*
X184749000Y-96094000D01*
X184750000Y-96107000D01*
X184750000Y-96120000D01*
X184750000Y-96420000D01*
X184750000Y-96433000D01*
X184749000Y-96446000D01*
X184747000Y-96459000D01*
X184745000Y-96472000D01*
X184741000Y-96485000D01*
X184738000Y-96497000D01*
X184733000Y-96510000D01*
X184728000Y-96522000D01*
X184723000Y-96533000D01*
X184717000Y-96545000D01*
X184710000Y-96556000D01*
X184702000Y-96567000D01*
X184694000Y-96577000D01*
X184686000Y-96587000D01*
X184677000Y-96597000D01*
X184667000Y-96606000D01*
X184657000Y-96614000D01*
X184647000Y-96622000D01*
X184636000Y-96630000D01*
X184625000Y-96637000D01*
X184613000Y-96643000D01*
X184602000Y-96648000D01*
X184590000Y-96653000D01*
X184577000Y-96658000D01*
X184565000Y-96661000D01*
X184552000Y-96665000D01*
X184539000Y-96667000D01*
X184526000Y-96669000D01*
X184513000Y-96670000D01*
X184500000Y-96670000D01*
X184200000Y-96670000D01*
X184187000Y-96670000D01*
X184174000Y-96669000D01*
X184161000Y-96667000D01*
X184148000Y-96665000D01*
X184135000Y-96661000D01*
X184123000Y-96658000D01*
X184110000Y-96653000D01*
X184098000Y-96648000D01*
X184087000Y-96643000D01*
X184075000Y-96637000D01*
X184064000Y-96630000D01*
X184053000Y-96622000D01*
X184043000Y-96614000D01*
X184033000Y-96606000D01*
X184023000Y-96597000D01*
X184014000Y-96587000D01*
X184006000Y-96577000D01*
X183998000Y-96567000D01*
X183990000Y-96556000D01*
X183983000Y-96545000D01*
X183977000Y-96533000D01*
X183972000Y-96522000D01*
X183967000Y-96510000D01*
X183962000Y-96497000D01*
X183959000Y-96485000D01*
X183955000Y-96472000D01*
X183953000Y-96459000D01*
X183951000Y-96446000D01*
X183950000Y-96433000D01*
X183950000Y-96420000D01*
X183950000Y-96120000D01*
X183950000Y-96107000D01*
X183951000Y-96094000D01*
X183953000Y-96081000D01*
X183955000Y-96068000D01*
X183959000Y-96055000D01*
X183962000Y-96043000D01*
X183967000Y-96030000D01*
X183972000Y-96018000D01*
X183977000Y-96007000D01*
X183983000Y-95995000D01*
X183990000Y-95984000D01*
X183998000Y-95973000D01*
X184006000Y-95963000D01*
X184014000Y-95953000D01*
X184023000Y-95943000D01*
X184033000Y-95934000D01*
X184043000Y-95926000D01*
X184053000Y-95918000D01*
X184064000Y-95910000D01*
X184075000Y-95903000D01*
X184087000Y-95897000D01*
X184098000Y-95892000D01*
X184110000Y-95887000D01*
X184123000Y-95882000D01*
X184135000Y-95879000D01*
X184148000Y-95875000D01*
X184161000Y-95873000D01*
X184174000Y-95871000D01*
X184187000Y-95870000D01*
X184200000Y-95870000D01*
X184500000Y-95870000D01*
X184513000Y-95870000D01*
X184526000Y-95871000D01*
G37*
X185476000Y-94471000D02*
X185489000Y-94473000D01*
X185502000Y-94475000D01*
X185515000Y-94479000D01*
X185527000Y-94482000D01*
X185540000Y-94487000D01*
X185552000Y-94492000D01*
X185563000Y-94497000D01*
X185575000Y-94503000D01*
X185586000Y-94510000D01*
X185597000Y-94518000D01*
X185607000Y-94526000D01*
X185617000Y-94534000D01*
X185627000Y-94543000D01*
X185636000Y-94553000D01*
X185644000Y-94563000D01*
X185652000Y-94573000D01*
X185660000Y-94584000D01*
X185667000Y-94595000D01*
X185673000Y-94607000D01*
X185678000Y-94618000D01*
X185683000Y-94630000D01*
X185688000Y-94643000D01*
X185691000Y-94655000D01*
X185695000Y-94668000D01*
X185697000Y-94681000D01*
X185699000Y-94694000D01*
X185700000Y-94707000D01*
X185700000Y-94720000D01*
X185700000Y-95020000D01*
X185700000Y-95033000D01*
X185699000Y-95046000D01*
X185697000Y-95059000D01*
X185695000Y-95072000D01*
X185691000Y-95085000D01*
X185688000Y-95097000D01*
X185683000Y-95110000D01*
X185678000Y-95122000D01*
X185673000Y-95133000D01*
X185667000Y-95145000D01*
X185660000Y-95156000D01*
X185652000Y-95167000D01*
X185644000Y-95177000D01*
X185636000Y-95187000D01*
X185627000Y-95197000D01*
X185617000Y-95206000D01*
X185607000Y-95214000D01*
X185597000Y-95222000D01*
X185586000Y-95230000D01*
X185575000Y-95237000D01*
X185563000Y-95243000D01*
X185552000Y-95248000D01*
X185540000Y-95253000D01*
X185527000Y-95258000D01*
X185515000Y-95261000D01*
X185502000Y-95265000D01*
X185489000Y-95267000D01*
X185476000Y-95269000D01*
X185463000Y-95270000D01*
X185450000Y-95270000D01*
X185150000Y-95270000D01*
X185137000Y-95270000D01*
X185124000Y-95269000D01*
X185111000Y-95267000D01*
X185098000Y-95265000D01*
X185085000Y-95261000D01*
X185073000Y-95258000D01*
X185060000Y-95253000D01*
X185048000Y-95248000D01*
X185037000Y-95243000D01*
X185025000Y-95237000D01*
X185014000Y-95230000D01*
X185003000Y-95222000D01*
X184993000Y-95214000D01*
X184983000Y-95206000D01*
X184973000Y-95197000D01*
X184964000Y-95187000D01*
X184956000Y-95177000D01*
X184948000Y-95167000D01*
X184940000Y-95156000D01*
X184933000Y-95145000D01*
X184927000Y-95133000D01*
X184922000Y-95122000D01*
X184917000Y-95110000D01*
X184912000Y-95097000D01*
X184909000Y-95085000D01*
X184905000Y-95072000D01*
X184903000Y-95059000D01*
X184901000Y-95046000D01*
X184900000Y-95033000D01*
X184900000Y-95020000D01*
X184900000Y-94720000D01*
X184900000Y-94707000D01*
X184901000Y-94694000D01*
X184903000Y-94681000D01*
X184905000Y-94668000D01*
X184909000Y-94655000D01*
X184912000Y-94643000D01*
X184917000Y-94630000D01*
X184922000Y-94618000D01*
X184927000Y-94607000D01*
X184933000Y-94595000D01*
X184940000Y-94584000D01*
X184948000Y-94573000D01*
X184956000Y-94563000D01*
X184964000Y-94553000D01*
X184973000Y-94543000D01*
X184983000Y-94534000D01*
X184993000Y-94526000D01*
X185003000Y-94518000D01*
X185014000Y-94510000D01*
X185025000Y-94503000D01*
X185037000Y-94497000D01*
X185048000Y-94492000D01*
X185060000Y-94487000D01*
X185073000Y-94482000D01*
X185085000Y-94479000D01*
X185098000Y-94475000D01*
X185111000Y-94473000D01*
X185124000Y-94471000D01*
X185137000Y-94470000D01*
X185150000Y-94470000D01*
X185450000Y-94470000D01*
X185463000Y-94470000D01*
X185476000Y-94471000D01*
G36*
X185476000Y-94471000D02*
G01*
X185489000Y-94473000D01*
X185502000Y-94475000D01*
X185515000Y-94479000D01*
X185527000Y-94482000D01*
X185540000Y-94487000D01*
X185552000Y-94492000D01*
X185563000Y-94497000D01*
X185575000Y-94503000D01*
X185586000Y-94510000D01*
X185597000Y-94518000D01*
X185607000Y-94526000D01*
X185617000Y-94534000D01*
X185627000Y-94543000D01*
X185636000Y-94553000D01*
X185644000Y-94563000D01*
X185652000Y-94573000D01*
X185660000Y-94584000D01*
X185667000Y-94595000D01*
X185673000Y-94607000D01*
X185678000Y-94618000D01*
X185683000Y-94630000D01*
X185688000Y-94643000D01*
X185691000Y-94655000D01*
X185695000Y-94668000D01*
X185697000Y-94681000D01*
X185699000Y-94694000D01*
X185700000Y-94707000D01*
X185700000Y-94720000D01*
X185700000Y-95020000D01*
X185700000Y-95033000D01*
X185699000Y-95046000D01*
X185697000Y-95059000D01*
X185695000Y-95072000D01*
X185691000Y-95085000D01*
X185688000Y-95097000D01*
X185683000Y-95110000D01*
X185678000Y-95122000D01*
X185673000Y-95133000D01*
X185667000Y-95145000D01*
X185660000Y-95156000D01*
X185652000Y-95167000D01*
X185644000Y-95177000D01*
X185636000Y-95187000D01*
X185627000Y-95197000D01*
X185617000Y-95206000D01*
X185607000Y-95214000D01*
X185597000Y-95222000D01*
X185586000Y-95230000D01*
X185575000Y-95237000D01*
X185563000Y-95243000D01*
X185552000Y-95248000D01*
X185540000Y-95253000D01*
X185527000Y-95258000D01*
X185515000Y-95261000D01*
X185502000Y-95265000D01*
X185489000Y-95267000D01*
X185476000Y-95269000D01*
X185463000Y-95270000D01*
X185450000Y-95270000D01*
X185150000Y-95270000D01*
X185137000Y-95270000D01*
X185124000Y-95269000D01*
X185111000Y-95267000D01*
X185098000Y-95265000D01*
X185085000Y-95261000D01*
X185073000Y-95258000D01*
X185060000Y-95253000D01*
X185048000Y-95248000D01*
X185037000Y-95243000D01*
X185025000Y-95237000D01*
X185014000Y-95230000D01*
X185003000Y-95222000D01*
X184993000Y-95214000D01*
X184983000Y-95206000D01*
X184973000Y-95197000D01*
X184964000Y-95187000D01*
X184956000Y-95177000D01*
X184948000Y-95167000D01*
X184940000Y-95156000D01*
X184933000Y-95145000D01*
X184927000Y-95133000D01*
X184922000Y-95122000D01*
X184917000Y-95110000D01*
X184912000Y-95097000D01*
X184909000Y-95085000D01*
X184905000Y-95072000D01*
X184903000Y-95059000D01*
X184901000Y-95046000D01*
X184900000Y-95033000D01*
X184900000Y-95020000D01*
X184900000Y-94720000D01*
X184900000Y-94707000D01*
X184901000Y-94694000D01*
X184903000Y-94681000D01*
X184905000Y-94668000D01*
X184909000Y-94655000D01*
X184912000Y-94643000D01*
X184917000Y-94630000D01*
X184922000Y-94618000D01*
X184927000Y-94607000D01*
X184933000Y-94595000D01*
X184940000Y-94584000D01*
X184948000Y-94573000D01*
X184956000Y-94563000D01*
X184964000Y-94553000D01*
X184973000Y-94543000D01*
X184983000Y-94534000D01*
X184993000Y-94526000D01*
X185003000Y-94518000D01*
X185014000Y-94510000D01*
X185025000Y-94503000D01*
X185037000Y-94497000D01*
X185048000Y-94492000D01*
X185060000Y-94487000D01*
X185073000Y-94482000D01*
X185085000Y-94479000D01*
X185098000Y-94475000D01*
X185111000Y-94473000D01*
X185124000Y-94471000D01*
X185137000Y-94470000D01*
X185150000Y-94470000D01*
X185450000Y-94470000D01*
X185463000Y-94470000D01*
X185476000Y-94471000D01*
G37*
X185476000Y-95871000D02*
X185489000Y-95873000D01*
X185502000Y-95875000D01*
X185515000Y-95879000D01*
X185527000Y-95882000D01*
X185540000Y-95887000D01*
X185552000Y-95892000D01*
X185563000Y-95897000D01*
X185575000Y-95903000D01*
X185586000Y-95910000D01*
X185597000Y-95918000D01*
X185607000Y-95926000D01*
X185617000Y-95934000D01*
X185627000Y-95943000D01*
X185636000Y-95953000D01*
X185644000Y-95963000D01*
X185652000Y-95973000D01*
X185660000Y-95984000D01*
X185667000Y-95995000D01*
X185673000Y-96007000D01*
X185678000Y-96018000D01*
X185683000Y-96030000D01*
X185688000Y-96043000D01*
X185691000Y-96055000D01*
X185695000Y-96068000D01*
X185697000Y-96081000D01*
X185699000Y-96094000D01*
X185700000Y-96107000D01*
X185700000Y-96120000D01*
X185700000Y-96420000D01*
X185700000Y-96433000D01*
X185699000Y-96446000D01*
X185697000Y-96459000D01*
X185695000Y-96472000D01*
X185691000Y-96485000D01*
X185688000Y-96497000D01*
X185683000Y-96510000D01*
X185678000Y-96522000D01*
X185673000Y-96533000D01*
X185667000Y-96545000D01*
X185660000Y-96556000D01*
X185652000Y-96567000D01*
X185644000Y-96577000D01*
X185636000Y-96587000D01*
X185627000Y-96597000D01*
X185617000Y-96606000D01*
X185607000Y-96614000D01*
X185597000Y-96622000D01*
X185586000Y-96630000D01*
X185575000Y-96637000D01*
X185563000Y-96643000D01*
X185552000Y-96648000D01*
X185540000Y-96653000D01*
X185527000Y-96658000D01*
X185515000Y-96661000D01*
X185502000Y-96665000D01*
X185489000Y-96667000D01*
X185476000Y-96669000D01*
X185463000Y-96670000D01*
X185450000Y-96670000D01*
X185150000Y-96670000D01*
X185137000Y-96670000D01*
X185124000Y-96669000D01*
X185111000Y-96667000D01*
X185098000Y-96665000D01*
X185085000Y-96661000D01*
X185073000Y-96658000D01*
X185060000Y-96653000D01*
X185048000Y-96648000D01*
X185037000Y-96643000D01*
X185025000Y-96637000D01*
X185014000Y-96630000D01*
X185003000Y-96622000D01*
X184993000Y-96614000D01*
X184983000Y-96606000D01*
X184973000Y-96597000D01*
X184964000Y-96587000D01*
X184956000Y-96577000D01*
X184948000Y-96567000D01*
X184940000Y-96556000D01*
X184933000Y-96545000D01*
X184927000Y-96533000D01*
X184922000Y-96522000D01*
X184917000Y-96510000D01*
X184912000Y-96497000D01*
X184909000Y-96485000D01*
X184905000Y-96472000D01*
X184903000Y-96459000D01*
X184901000Y-96446000D01*
X184900000Y-96433000D01*
X184900000Y-96420000D01*
X184900000Y-96120000D01*
X184900000Y-96107000D01*
X184901000Y-96094000D01*
X184903000Y-96081000D01*
X184905000Y-96068000D01*
X184909000Y-96055000D01*
X184912000Y-96043000D01*
X184917000Y-96030000D01*
X184922000Y-96018000D01*
X184927000Y-96007000D01*
X184933000Y-95995000D01*
X184940000Y-95984000D01*
X184948000Y-95973000D01*
X184956000Y-95963000D01*
X184964000Y-95953000D01*
X184973000Y-95943000D01*
X184983000Y-95934000D01*
X184993000Y-95926000D01*
X185003000Y-95918000D01*
X185014000Y-95910000D01*
X185025000Y-95903000D01*
X185037000Y-95897000D01*
X185048000Y-95892000D01*
X185060000Y-95887000D01*
X185073000Y-95882000D01*
X185085000Y-95879000D01*
X185098000Y-95875000D01*
X185111000Y-95873000D01*
X185124000Y-95871000D01*
X185137000Y-95870000D01*
X185150000Y-95870000D01*
X185450000Y-95870000D01*
X185463000Y-95870000D01*
X185476000Y-95871000D01*
G36*
X185476000Y-95871000D02*
G01*
X185489000Y-95873000D01*
X185502000Y-95875000D01*
X185515000Y-95879000D01*
X185527000Y-95882000D01*
X185540000Y-95887000D01*
X185552000Y-95892000D01*
X185563000Y-95897000D01*
X185575000Y-95903000D01*
X185586000Y-95910000D01*
X185597000Y-95918000D01*
X185607000Y-95926000D01*
X185617000Y-95934000D01*
X185627000Y-95943000D01*
X185636000Y-95953000D01*
X185644000Y-95963000D01*
X185652000Y-95973000D01*
X185660000Y-95984000D01*
X185667000Y-95995000D01*
X185673000Y-96007000D01*
X185678000Y-96018000D01*
X185683000Y-96030000D01*
X185688000Y-96043000D01*
X185691000Y-96055000D01*
X185695000Y-96068000D01*
X185697000Y-96081000D01*
X185699000Y-96094000D01*
X185700000Y-96107000D01*
X185700000Y-96120000D01*
X185700000Y-96420000D01*
X185700000Y-96433000D01*
X185699000Y-96446000D01*
X185697000Y-96459000D01*
X185695000Y-96472000D01*
X185691000Y-96485000D01*
X185688000Y-96497000D01*
X185683000Y-96510000D01*
X185678000Y-96522000D01*
X185673000Y-96533000D01*
X185667000Y-96545000D01*
X185660000Y-96556000D01*
X185652000Y-96567000D01*
X185644000Y-96577000D01*
X185636000Y-96587000D01*
X185627000Y-96597000D01*
X185617000Y-96606000D01*
X185607000Y-96614000D01*
X185597000Y-96622000D01*
X185586000Y-96630000D01*
X185575000Y-96637000D01*
X185563000Y-96643000D01*
X185552000Y-96648000D01*
X185540000Y-96653000D01*
X185527000Y-96658000D01*
X185515000Y-96661000D01*
X185502000Y-96665000D01*
X185489000Y-96667000D01*
X185476000Y-96669000D01*
X185463000Y-96670000D01*
X185450000Y-96670000D01*
X185150000Y-96670000D01*
X185137000Y-96670000D01*
X185124000Y-96669000D01*
X185111000Y-96667000D01*
X185098000Y-96665000D01*
X185085000Y-96661000D01*
X185073000Y-96658000D01*
X185060000Y-96653000D01*
X185048000Y-96648000D01*
X185037000Y-96643000D01*
X185025000Y-96637000D01*
X185014000Y-96630000D01*
X185003000Y-96622000D01*
X184993000Y-96614000D01*
X184983000Y-96606000D01*
X184973000Y-96597000D01*
X184964000Y-96587000D01*
X184956000Y-96577000D01*
X184948000Y-96567000D01*
X184940000Y-96556000D01*
X184933000Y-96545000D01*
X184927000Y-96533000D01*
X184922000Y-96522000D01*
X184917000Y-96510000D01*
X184912000Y-96497000D01*
X184909000Y-96485000D01*
X184905000Y-96472000D01*
X184903000Y-96459000D01*
X184901000Y-96446000D01*
X184900000Y-96433000D01*
X184900000Y-96420000D01*
X184900000Y-96120000D01*
X184900000Y-96107000D01*
X184901000Y-96094000D01*
X184903000Y-96081000D01*
X184905000Y-96068000D01*
X184909000Y-96055000D01*
X184912000Y-96043000D01*
X184917000Y-96030000D01*
X184922000Y-96018000D01*
X184927000Y-96007000D01*
X184933000Y-95995000D01*
X184940000Y-95984000D01*
X184948000Y-95973000D01*
X184956000Y-95963000D01*
X184964000Y-95953000D01*
X184973000Y-95943000D01*
X184983000Y-95934000D01*
X184993000Y-95926000D01*
X185003000Y-95918000D01*
X185014000Y-95910000D01*
X185025000Y-95903000D01*
X185037000Y-95897000D01*
X185048000Y-95892000D01*
X185060000Y-95887000D01*
X185073000Y-95882000D01*
X185085000Y-95879000D01*
X185098000Y-95875000D01*
X185111000Y-95873000D01*
X185124000Y-95871000D01*
X185137000Y-95870000D01*
X185150000Y-95870000D01*
X185450000Y-95870000D01*
X185463000Y-95870000D01*
X185476000Y-95871000D01*
G37*
X186287000Y-93092000D02*
X186305000Y-93094000D01*
X186323000Y-93098000D01*
X186341000Y-93102000D01*
X186358000Y-93107000D01*
X186375000Y-93113000D01*
X186392000Y-93120000D01*
X186409000Y-93128000D01*
X186425000Y-93137000D01*
X186441000Y-93146000D01*
X186456000Y-93157000D01*
X186470000Y-93168000D01*
X186484000Y-93180000D01*
X186497000Y-93193000D01*
X186510000Y-93206000D01*
X186522000Y-93220000D01*
X186533000Y-93234000D01*
X186544000Y-93249000D01*
X186553000Y-93265000D01*
X186562000Y-93281000D01*
X186570000Y-93298000D01*
X186577000Y-93315000D01*
X186583000Y-93332000D01*
X186588000Y-93349000D01*
X186592000Y-93367000D01*
X186596000Y-93385000D01*
X186598000Y-93403000D01*
X186600000Y-93422000D01*
X186600000Y-93440000D01*
X186600000Y-93840000D01*
X186600000Y-93858000D01*
X186598000Y-93877000D01*
X186596000Y-93895000D01*
X186592000Y-93913000D01*
X186588000Y-93931000D01*
X186583000Y-93948000D01*
X186577000Y-93965000D01*
X186570000Y-93982000D01*
X186562000Y-93999000D01*
X186553000Y-94015000D01*
X186544000Y-94031000D01*
X186533000Y-94046000D01*
X186522000Y-94060000D01*
X186510000Y-94074000D01*
X186497000Y-94087000D01*
X186484000Y-94100000D01*
X186470000Y-94112000D01*
X186456000Y-94123000D01*
X186441000Y-94134000D01*
X186425000Y-94143000D01*
X186409000Y-94152000D01*
X186392000Y-94160000D01*
X186375000Y-94167000D01*
X186358000Y-94173000D01*
X186341000Y-94178000D01*
X186323000Y-94182000D01*
X186305000Y-94186000D01*
X186287000Y-94188000D01*
X186268000Y-94190000D01*
X186250000Y-94190000D01*
X184950000Y-94190000D01*
X184932000Y-94190000D01*
X184913000Y-94188000D01*
X184895000Y-94186000D01*
X184877000Y-94182000D01*
X184859000Y-94178000D01*
X184842000Y-94173000D01*
X184825000Y-94167000D01*
X184808000Y-94160000D01*
X184791000Y-94152000D01*
X184775000Y-94143000D01*
X184759000Y-94134000D01*
X184744000Y-94123000D01*
X184730000Y-94112000D01*
X184716000Y-94100000D01*
X184703000Y-94087000D01*
X184690000Y-94074000D01*
X184678000Y-94060000D01*
X184667000Y-94046000D01*
X184656000Y-94031000D01*
X184647000Y-94015000D01*
X184638000Y-93999000D01*
X184630000Y-93982000D01*
X184623000Y-93965000D01*
X184617000Y-93948000D01*
X184612000Y-93931000D01*
X184608000Y-93913000D01*
X184604000Y-93895000D01*
X184602000Y-93877000D01*
X184600000Y-93858000D01*
X184600000Y-93840000D01*
X184600000Y-93440000D01*
X184600000Y-93422000D01*
X184602000Y-93403000D01*
X184604000Y-93385000D01*
X184608000Y-93367000D01*
X184612000Y-93349000D01*
X184617000Y-93332000D01*
X184623000Y-93315000D01*
X184630000Y-93298000D01*
X184638000Y-93281000D01*
X184647000Y-93265000D01*
X184656000Y-93249000D01*
X184667000Y-93234000D01*
X184678000Y-93220000D01*
X184690000Y-93206000D01*
X184703000Y-93193000D01*
X184716000Y-93180000D01*
X184730000Y-93168000D01*
X184744000Y-93157000D01*
X184759000Y-93146000D01*
X184775000Y-93137000D01*
X184791000Y-93128000D01*
X184808000Y-93120000D01*
X184825000Y-93113000D01*
X184842000Y-93107000D01*
X184859000Y-93102000D01*
X184877000Y-93098000D01*
X184895000Y-93094000D01*
X184913000Y-93092000D01*
X184932000Y-93090000D01*
X184950000Y-93090000D01*
X186250000Y-93090000D01*
X186268000Y-93090000D01*
X186287000Y-93092000D01*
G36*
X186287000Y-93092000D02*
G01*
X186305000Y-93094000D01*
X186323000Y-93098000D01*
X186341000Y-93102000D01*
X186358000Y-93107000D01*
X186375000Y-93113000D01*
X186392000Y-93120000D01*
X186409000Y-93128000D01*
X186425000Y-93137000D01*
X186441000Y-93146000D01*
X186456000Y-93157000D01*
X186470000Y-93168000D01*
X186484000Y-93180000D01*
X186497000Y-93193000D01*
X186510000Y-93206000D01*
X186522000Y-93220000D01*
X186533000Y-93234000D01*
X186544000Y-93249000D01*
X186553000Y-93265000D01*
X186562000Y-93281000D01*
X186570000Y-93298000D01*
X186577000Y-93315000D01*
X186583000Y-93332000D01*
X186588000Y-93349000D01*
X186592000Y-93367000D01*
X186596000Y-93385000D01*
X186598000Y-93403000D01*
X186600000Y-93422000D01*
X186600000Y-93440000D01*
X186600000Y-93840000D01*
X186600000Y-93858000D01*
X186598000Y-93877000D01*
X186596000Y-93895000D01*
X186592000Y-93913000D01*
X186588000Y-93931000D01*
X186583000Y-93948000D01*
X186577000Y-93965000D01*
X186570000Y-93982000D01*
X186562000Y-93999000D01*
X186553000Y-94015000D01*
X186544000Y-94031000D01*
X186533000Y-94046000D01*
X186522000Y-94060000D01*
X186510000Y-94074000D01*
X186497000Y-94087000D01*
X186484000Y-94100000D01*
X186470000Y-94112000D01*
X186456000Y-94123000D01*
X186441000Y-94134000D01*
X186425000Y-94143000D01*
X186409000Y-94152000D01*
X186392000Y-94160000D01*
X186375000Y-94167000D01*
X186358000Y-94173000D01*
X186341000Y-94178000D01*
X186323000Y-94182000D01*
X186305000Y-94186000D01*
X186287000Y-94188000D01*
X186268000Y-94190000D01*
X186250000Y-94190000D01*
X184950000Y-94190000D01*
X184932000Y-94190000D01*
X184913000Y-94188000D01*
X184895000Y-94186000D01*
X184877000Y-94182000D01*
X184859000Y-94178000D01*
X184842000Y-94173000D01*
X184825000Y-94167000D01*
X184808000Y-94160000D01*
X184791000Y-94152000D01*
X184775000Y-94143000D01*
X184759000Y-94134000D01*
X184744000Y-94123000D01*
X184730000Y-94112000D01*
X184716000Y-94100000D01*
X184703000Y-94087000D01*
X184690000Y-94074000D01*
X184678000Y-94060000D01*
X184667000Y-94046000D01*
X184656000Y-94031000D01*
X184647000Y-94015000D01*
X184638000Y-93999000D01*
X184630000Y-93982000D01*
X184623000Y-93965000D01*
X184617000Y-93948000D01*
X184612000Y-93931000D01*
X184608000Y-93913000D01*
X184604000Y-93895000D01*
X184602000Y-93877000D01*
X184600000Y-93858000D01*
X184600000Y-93840000D01*
X184600000Y-93440000D01*
X184600000Y-93422000D01*
X184602000Y-93403000D01*
X184604000Y-93385000D01*
X184608000Y-93367000D01*
X184612000Y-93349000D01*
X184617000Y-93332000D01*
X184623000Y-93315000D01*
X184630000Y-93298000D01*
X184638000Y-93281000D01*
X184647000Y-93265000D01*
X184656000Y-93249000D01*
X184667000Y-93234000D01*
X184678000Y-93220000D01*
X184690000Y-93206000D01*
X184703000Y-93193000D01*
X184716000Y-93180000D01*
X184730000Y-93168000D01*
X184744000Y-93157000D01*
X184759000Y-93146000D01*
X184775000Y-93137000D01*
X184791000Y-93128000D01*
X184808000Y-93120000D01*
X184825000Y-93113000D01*
X184842000Y-93107000D01*
X184859000Y-93102000D01*
X184877000Y-93098000D01*
X184895000Y-93094000D01*
X184913000Y-93092000D01*
X184932000Y-93090000D01*
X184950000Y-93090000D01*
X186250000Y-93090000D01*
X186268000Y-93090000D01*
X186287000Y-93092000D01*
G37*
X186287000Y-96952000D02*
X186305000Y-96954000D01*
X186323000Y-96958000D01*
X186341000Y-96962000D01*
X186358000Y-96967000D01*
X186375000Y-96973000D01*
X186392000Y-96980000D01*
X186409000Y-96988000D01*
X186425000Y-96997000D01*
X186441000Y-97006000D01*
X186456000Y-97017000D01*
X186470000Y-97028000D01*
X186484000Y-97040000D01*
X186497000Y-97053000D01*
X186510000Y-97066000D01*
X186522000Y-97080000D01*
X186533000Y-97094000D01*
X186544000Y-97109000D01*
X186553000Y-97125000D01*
X186562000Y-97141000D01*
X186570000Y-97158000D01*
X186577000Y-97175000D01*
X186583000Y-97192000D01*
X186588000Y-97209000D01*
X186592000Y-97227000D01*
X186596000Y-97245000D01*
X186598000Y-97263000D01*
X186600000Y-97282000D01*
X186600000Y-97300000D01*
X186600000Y-97700000D01*
X186600000Y-97718000D01*
X186598000Y-97737000D01*
X186596000Y-97755000D01*
X186592000Y-97773000D01*
X186588000Y-97791000D01*
X186583000Y-97808000D01*
X186577000Y-97825000D01*
X186570000Y-97842000D01*
X186562000Y-97859000D01*
X186553000Y-97875000D01*
X186544000Y-97891000D01*
X186533000Y-97906000D01*
X186522000Y-97920000D01*
X186510000Y-97934000D01*
X186497000Y-97947000D01*
X186484000Y-97960000D01*
X186470000Y-97972000D01*
X186456000Y-97983000D01*
X186441000Y-97994000D01*
X186425000Y-98003000D01*
X186409000Y-98012000D01*
X186392000Y-98020000D01*
X186375000Y-98027000D01*
X186358000Y-98033000D01*
X186341000Y-98038000D01*
X186323000Y-98042000D01*
X186305000Y-98046000D01*
X186287000Y-98048000D01*
X186268000Y-98050000D01*
X186250000Y-98050000D01*
X184950000Y-98050000D01*
X184932000Y-98050000D01*
X184913000Y-98048000D01*
X184895000Y-98046000D01*
X184877000Y-98042000D01*
X184859000Y-98038000D01*
X184842000Y-98033000D01*
X184825000Y-98027000D01*
X184808000Y-98020000D01*
X184791000Y-98012000D01*
X184775000Y-98003000D01*
X184759000Y-97994000D01*
X184744000Y-97983000D01*
X184730000Y-97972000D01*
X184716000Y-97960000D01*
X184703000Y-97947000D01*
X184690000Y-97934000D01*
X184678000Y-97920000D01*
X184667000Y-97906000D01*
X184656000Y-97891000D01*
X184647000Y-97875000D01*
X184638000Y-97859000D01*
X184630000Y-97842000D01*
X184623000Y-97825000D01*
X184617000Y-97808000D01*
X184612000Y-97791000D01*
X184608000Y-97773000D01*
X184604000Y-97755000D01*
X184602000Y-97737000D01*
X184600000Y-97718000D01*
X184600000Y-97700000D01*
X184600000Y-97300000D01*
X184600000Y-97282000D01*
X184602000Y-97263000D01*
X184604000Y-97245000D01*
X184608000Y-97227000D01*
X184612000Y-97209000D01*
X184617000Y-97192000D01*
X184623000Y-97175000D01*
X184630000Y-97158000D01*
X184638000Y-97141000D01*
X184647000Y-97125000D01*
X184656000Y-97109000D01*
X184667000Y-97094000D01*
X184678000Y-97080000D01*
X184690000Y-97066000D01*
X184703000Y-97053000D01*
X184716000Y-97040000D01*
X184730000Y-97028000D01*
X184744000Y-97017000D01*
X184759000Y-97006000D01*
X184775000Y-96997000D01*
X184791000Y-96988000D01*
X184808000Y-96980000D01*
X184825000Y-96973000D01*
X184842000Y-96967000D01*
X184859000Y-96962000D01*
X184877000Y-96958000D01*
X184895000Y-96954000D01*
X184913000Y-96952000D01*
X184932000Y-96950000D01*
X184950000Y-96950000D01*
X186250000Y-96950000D01*
X186268000Y-96950000D01*
X186287000Y-96952000D01*
G36*
X186287000Y-96952000D02*
G01*
X186305000Y-96954000D01*
X186323000Y-96958000D01*
X186341000Y-96962000D01*
X186358000Y-96967000D01*
X186375000Y-96973000D01*
X186392000Y-96980000D01*
X186409000Y-96988000D01*
X186425000Y-96997000D01*
X186441000Y-97006000D01*
X186456000Y-97017000D01*
X186470000Y-97028000D01*
X186484000Y-97040000D01*
X186497000Y-97053000D01*
X186510000Y-97066000D01*
X186522000Y-97080000D01*
X186533000Y-97094000D01*
X186544000Y-97109000D01*
X186553000Y-97125000D01*
X186562000Y-97141000D01*
X186570000Y-97158000D01*
X186577000Y-97175000D01*
X186583000Y-97192000D01*
X186588000Y-97209000D01*
X186592000Y-97227000D01*
X186596000Y-97245000D01*
X186598000Y-97263000D01*
X186600000Y-97282000D01*
X186600000Y-97300000D01*
X186600000Y-97700000D01*
X186600000Y-97718000D01*
X186598000Y-97737000D01*
X186596000Y-97755000D01*
X186592000Y-97773000D01*
X186588000Y-97791000D01*
X186583000Y-97808000D01*
X186577000Y-97825000D01*
X186570000Y-97842000D01*
X186562000Y-97859000D01*
X186553000Y-97875000D01*
X186544000Y-97891000D01*
X186533000Y-97906000D01*
X186522000Y-97920000D01*
X186510000Y-97934000D01*
X186497000Y-97947000D01*
X186484000Y-97960000D01*
X186470000Y-97972000D01*
X186456000Y-97983000D01*
X186441000Y-97994000D01*
X186425000Y-98003000D01*
X186409000Y-98012000D01*
X186392000Y-98020000D01*
X186375000Y-98027000D01*
X186358000Y-98033000D01*
X186341000Y-98038000D01*
X186323000Y-98042000D01*
X186305000Y-98046000D01*
X186287000Y-98048000D01*
X186268000Y-98050000D01*
X186250000Y-98050000D01*
X184950000Y-98050000D01*
X184932000Y-98050000D01*
X184913000Y-98048000D01*
X184895000Y-98046000D01*
X184877000Y-98042000D01*
X184859000Y-98038000D01*
X184842000Y-98033000D01*
X184825000Y-98027000D01*
X184808000Y-98020000D01*
X184791000Y-98012000D01*
X184775000Y-98003000D01*
X184759000Y-97994000D01*
X184744000Y-97983000D01*
X184730000Y-97972000D01*
X184716000Y-97960000D01*
X184703000Y-97947000D01*
X184690000Y-97934000D01*
X184678000Y-97920000D01*
X184667000Y-97906000D01*
X184656000Y-97891000D01*
X184647000Y-97875000D01*
X184638000Y-97859000D01*
X184630000Y-97842000D01*
X184623000Y-97825000D01*
X184617000Y-97808000D01*
X184612000Y-97791000D01*
X184608000Y-97773000D01*
X184604000Y-97755000D01*
X184602000Y-97737000D01*
X184600000Y-97718000D01*
X184600000Y-97700000D01*
X184600000Y-97300000D01*
X184600000Y-97282000D01*
X184602000Y-97263000D01*
X184604000Y-97245000D01*
X184608000Y-97227000D01*
X184612000Y-97209000D01*
X184617000Y-97192000D01*
X184623000Y-97175000D01*
X184630000Y-97158000D01*
X184638000Y-97141000D01*
X184647000Y-97125000D01*
X184656000Y-97109000D01*
X184667000Y-97094000D01*
X184678000Y-97080000D01*
X184690000Y-97066000D01*
X184703000Y-97053000D01*
X184716000Y-97040000D01*
X184730000Y-97028000D01*
X184744000Y-97017000D01*
X184759000Y-97006000D01*
X184775000Y-96997000D01*
X184791000Y-96988000D01*
X184808000Y-96980000D01*
X184825000Y-96973000D01*
X184842000Y-96967000D01*
X184859000Y-96962000D01*
X184877000Y-96958000D01*
X184895000Y-96954000D01*
X184913000Y-96952000D01*
X184932000Y-96950000D01*
X184950000Y-96950000D01*
X186250000Y-96950000D01*
X186268000Y-96950000D01*
X186287000Y-96952000D01*
G37*
X186426000Y-94471000D02*
X186439000Y-94473000D01*
X186452000Y-94475000D01*
X186465000Y-94479000D01*
X186477000Y-94482000D01*
X186490000Y-94487000D01*
X186502000Y-94492000D01*
X186513000Y-94497000D01*
X186525000Y-94503000D01*
X186536000Y-94510000D01*
X186547000Y-94518000D01*
X186557000Y-94526000D01*
X186567000Y-94534000D01*
X186577000Y-94543000D01*
X186586000Y-94553000D01*
X186594000Y-94563000D01*
X186602000Y-94573000D01*
X186610000Y-94584000D01*
X186617000Y-94595000D01*
X186623000Y-94607000D01*
X186628000Y-94618000D01*
X186633000Y-94630000D01*
X186638000Y-94643000D01*
X186641000Y-94655000D01*
X186645000Y-94668000D01*
X186647000Y-94681000D01*
X186649000Y-94694000D01*
X186650000Y-94707000D01*
X186650000Y-94720000D01*
X186650000Y-95020000D01*
X186650000Y-95033000D01*
X186649000Y-95046000D01*
X186647000Y-95059000D01*
X186645000Y-95072000D01*
X186641000Y-95085000D01*
X186638000Y-95097000D01*
X186633000Y-95110000D01*
X186628000Y-95122000D01*
X186623000Y-95133000D01*
X186617000Y-95145000D01*
X186610000Y-95156000D01*
X186602000Y-95167000D01*
X186594000Y-95177000D01*
X186586000Y-95187000D01*
X186577000Y-95197000D01*
X186567000Y-95206000D01*
X186557000Y-95214000D01*
X186547000Y-95222000D01*
X186536000Y-95230000D01*
X186525000Y-95237000D01*
X186513000Y-95243000D01*
X186502000Y-95248000D01*
X186490000Y-95253000D01*
X186477000Y-95258000D01*
X186465000Y-95261000D01*
X186452000Y-95265000D01*
X186439000Y-95267000D01*
X186426000Y-95269000D01*
X186413000Y-95270000D01*
X186400000Y-95270000D01*
X186100000Y-95270000D01*
X186087000Y-95270000D01*
X186074000Y-95269000D01*
X186061000Y-95267000D01*
X186048000Y-95265000D01*
X186035000Y-95261000D01*
X186023000Y-95258000D01*
X186010000Y-95253000D01*
X185998000Y-95248000D01*
X185987000Y-95243000D01*
X185975000Y-95237000D01*
X185964000Y-95230000D01*
X185953000Y-95222000D01*
X185943000Y-95214000D01*
X185933000Y-95206000D01*
X185923000Y-95197000D01*
X185914000Y-95187000D01*
X185906000Y-95177000D01*
X185898000Y-95167000D01*
X185890000Y-95156000D01*
X185883000Y-95145000D01*
X185877000Y-95133000D01*
X185872000Y-95122000D01*
X185867000Y-95110000D01*
X185862000Y-95097000D01*
X185859000Y-95085000D01*
X185855000Y-95072000D01*
X185853000Y-95059000D01*
X185851000Y-95046000D01*
X185850000Y-95033000D01*
X185850000Y-95020000D01*
X185850000Y-94720000D01*
X185850000Y-94707000D01*
X185851000Y-94694000D01*
X185853000Y-94681000D01*
X185855000Y-94668000D01*
X185859000Y-94655000D01*
X185862000Y-94643000D01*
X185867000Y-94630000D01*
X185872000Y-94618000D01*
X185877000Y-94607000D01*
X185883000Y-94595000D01*
X185890000Y-94584000D01*
X185898000Y-94573000D01*
X185906000Y-94563000D01*
X185914000Y-94553000D01*
X185923000Y-94543000D01*
X185933000Y-94534000D01*
X185943000Y-94526000D01*
X185953000Y-94518000D01*
X185964000Y-94510000D01*
X185975000Y-94503000D01*
X185987000Y-94497000D01*
X185998000Y-94492000D01*
X186010000Y-94487000D01*
X186023000Y-94482000D01*
X186035000Y-94479000D01*
X186048000Y-94475000D01*
X186061000Y-94473000D01*
X186074000Y-94471000D01*
X186087000Y-94470000D01*
X186100000Y-94470000D01*
X186400000Y-94470000D01*
X186413000Y-94470000D01*
X186426000Y-94471000D01*
G36*
X186426000Y-94471000D02*
G01*
X186439000Y-94473000D01*
X186452000Y-94475000D01*
X186465000Y-94479000D01*
X186477000Y-94482000D01*
X186490000Y-94487000D01*
X186502000Y-94492000D01*
X186513000Y-94497000D01*
X186525000Y-94503000D01*
X186536000Y-94510000D01*
X186547000Y-94518000D01*
X186557000Y-94526000D01*
X186567000Y-94534000D01*
X186577000Y-94543000D01*
X186586000Y-94553000D01*
X186594000Y-94563000D01*
X186602000Y-94573000D01*
X186610000Y-94584000D01*
X186617000Y-94595000D01*
X186623000Y-94607000D01*
X186628000Y-94618000D01*
X186633000Y-94630000D01*
X186638000Y-94643000D01*
X186641000Y-94655000D01*
X186645000Y-94668000D01*
X186647000Y-94681000D01*
X186649000Y-94694000D01*
X186650000Y-94707000D01*
X186650000Y-94720000D01*
X186650000Y-95020000D01*
X186650000Y-95033000D01*
X186649000Y-95046000D01*
X186647000Y-95059000D01*
X186645000Y-95072000D01*
X186641000Y-95085000D01*
X186638000Y-95097000D01*
X186633000Y-95110000D01*
X186628000Y-95122000D01*
X186623000Y-95133000D01*
X186617000Y-95145000D01*
X186610000Y-95156000D01*
X186602000Y-95167000D01*
X186594000Y-95177000D01*
X186586000Y-95187000D01*
X186577000Y-95197000D01*
X186567000Y-95206000D01*
X186557000Y-95214000D01*
X186547000Y-95222000D01*
X186536000Y-95230000D01*
X186525000Y-95237000D01*
X186513000Y-95243000D01*
X186502000Y-95248000D01*
X186490000Y-95253000D01*
X186477000Y-95258000D01*
X186465000Y-95261000D01*
X186452000Y-95265000D01*
X186439000Y-95267000D01*
X186426000Y-95269000D01*
X186413000Y-95270000D01*
X186400000Y-95270000D01*
X186100000Y-95270000D01*
X186087000Y-95270000D01*
X186074000Y-95269000D01*
X186061000Y-95267000D01*
X186048000Y-95265000D01*
X186035000Y-95261000D01*
X186023000Y-95258000D01*
X186010000Y-95253000D01*
X185998000Y-95248000D01*
X185987000Y-95243000D01*
X185975000Y-95237000D01*
X185964000Y-95230000D01*
X185953000Y-95222000D01*
X185943000Y-95214000D01*
X185933000Y-95206000D01*
X185923000Y-95197000D01*
X185914000Y-95187000D01*
X185906000Y-95177000D01*
X185898000Y-95167000D01*
X185890000Y-95156000D01*
X185883000Y-95145000D01*
X185877000Y-95133000D01*
X185872000Y-95122000D01*
X185867000Y-95110000D01*
X185862000Y-95097000D01*
X185859000Y-95085000D01*
X185855000Y-95072000D01*
X185853000Y-95059000D01*
X185851000Y-95046000D01*
X185850000Y-95033000D01*
X185850000Y-95020000D01*
X185850000Y-94720000D01*
X185850000Y-94707000D01*
X185851000Y-94694000D01*
X185853000Y-94681000D01*
X185855000Y-94668000D01*
X185859000Y-94655000D01*
X185862000Y-94643000D01*
X185867000Y-94630000D01*
X185872000Y-94618000D01*
X185877000Y-94607000D01*
X185883000Y-94595000D01*
X185890000Y-94584000D01*
X185898000Y-94573000D01*
X185906000Y-94563000D01*
X185914000Y-94553000D01*
X185923000Y-94543000D01*
X185933000Y-94534000D01*
X185943000Y-94526000D01*
X185953000Y-94518000D01*
X185964000Y-94510000D01*
X185975000Y-94503000D01*
X185987000Y-94497000D01*
X185998000Y-94492000D01*
X186010000Y-94487000D01*
X186023000Y-94482000D01*
X186035000Y-94479000D01*
X186048000Y-94475000D01*
X186061000Y-94473000D01*
X186074000Y-94471000D01*
X186087000Y-94470000D01*
X186100000Y-94470000D01*
X186400000Y-94470000D01*
X186413000Y-94470000D01*
X186426000Y-94471000D01*
G37*
X186426000Y-95871000D02*
X186439000Y-95873000D01*
X186452000Y-95875000D01*
X186465000Y-95879000D01*
X186477000Y-95882000D01*
X186490000Y-95887000D01*
X186502000Y-95892000D01*
X186513000Y-95897000D01*
X186525000Y-95903000D01*
X186536000Y-95910000D01*
X186547000Y-95918000D01*
X186557000Y-95926000D01*
X186567000Y-95934000D01*
X186577000Y-95943000D01*
X186586000Y-95953000D01*
X186594000Y-95963000D01*
X186602000Y-95973000D01*
X186610000Y-95984000D01*
X186617000Y-95995000D01*
X186623000Y-96007000D01*
X186628000Y-96018000D01*
X186633000Y-96030000D01*
X186638000Y-96043000D01*
X186641000Y-96055000D01*
X186645000Y-96068000D01*
X186647000Y-96081000D01*
X186649000Y-96094000D01*
X186650000Y-96107000D01*
X186650000Y-96120000D01*
X186650000Y-96420000D01*
X186650000Y-96433000D01*
X186649000Y-96446000D01*
X186647000Y-96459000D01*
X186645000Y-96472000D01*
X186641000Y-96485000D01*
X186638000Y-96497000D01*
X186633000Y-96510000D01*
X186628000Y-96522000D01*
X186623000Y-96533000D01*
X186617000Y-96545000D01*
X186610000Y-96556000D01*
X186602000Y-96567000D01*
X186594000Y-96577000D01*
X186586000Y-96587000D01*
X186577000Y-96597000D01*
X186567000Y-96606000D01*
X186557000Y-96614000D01*
X186547000Y-96622000D01*
X186536000Y-96630000D01*
X186525000Y-96637000D01*
X186513000Y-96643000D01*
X186502000Y-96648000D01*
X186490000Y-96653000D01*
X186477000Y-96658000D01*
X186465000Y-96661000D01*
X186452000Y-96665000D01*
X186439000Y-96667000D01*
X186426000Y-96669000D01*
X186413000Y-96670000D01*
X186400000Y-96670000D01*
X186100000Y-96670000D01*
X186087000Y-96670000D01*
X186074000Y-96669000D01*
X186061000Y-96667000D01*
X186048000Y-96665000D01*
X186035000Y-96661000D01*
X186023000Y-96658000D01*
X186010000Y-96653000D01*
X185998000Y-96648000D01*
X185987000Y-96643000D01*
X185975000Y-96637000D01*
X185964000Y-96630000D01*
X185953000Y-96622000D01*
X185943000Y-96614000D01*
X185933000Y-96606000D01*
X185923000Y-96597000D01*
X185914000Y-96587000D01*
X185906000Y-96577000D01*
X185898000Y-96567000D01*
X185890000Y-96556000D01*
X185883000Y-96545000D01*
X185877000Y-96533000D01*
X185872000Y-96522000D01*
X185867000Y-96510000D01*
X185862000Y-96497000D01*
X185859000Y-96485000D01*
X185855000Y-96472000D01*
X185853000Y-96459000D01*
X185851000Y-96446000D01*
X185850000Y-96433000D01*
X185850000Y-96420000D01*
X185850000Y-96120000D01*
X185850000Y-96107000D01*
X185851000Y-96094000D01*
X185853000Y-96081000D01*
X185855000Y-96068000D01*
X185859000Y-96055000D01*
X185862000Y-96043000D01*
X185867000Y-96030000D01*
X185872000Y-96018000D01*
X185877000Y-96007000D01*
X185883000Y-95995000D01*
X185890000Y-95984000D01*
X185898000Y-95973000D01*
X185906000Y-95963000D01*
X185914000Y-95953000D01*
X185923000Y-95943000D01*
X185933000Y-95934000D01*
X185943000Y-95926000D01*
X185953000Y-95918000D01*
X185964000Y-95910000D01*
X185975000Y-95903000D01*
X185987000Y-95897000D01*
X185998000Y-95892000D01*
X186010000Y-95887000D01*
X186023000Y-95882000D01*
X186035000Y-95879000D01*
X186048000Y-95875000D01*
X186061000Y-95873000D01*
X186074000Y-95871000D01*
X186087000Y-95870000D01*
X186100000Y-95870000D01*
X186400000Y-95870000D01*
X186413000Y-95870000D01*
X186426000Y-95871000D01*
G36*
X186426000Y-95871000D02*
G01*
X186439000Y-95873000D01*
X186452000Y-95875000D01*
X186465000Y-95879000D01*
X186477000Y-95882000D01*
X186490000Y-95887000D01*
X186502000Y-95892000D01*
X186513000Y-95897000D01*
X186525000Y-95903000D01*
X186536000Y-95910000D01*
X186547000Y-95918000D01*
X186557000Y-95926000D01*
X186567000Y-95934000D01*
X186577000Y-95943000D01*
X186586000Y-95953000D01*
X186594000Y-95963000D01*
X186602000Y-95973000D01*
X186610000Y-95984000D01*
X186617000Y-95995000D01*
X186623000Y-96007000D01*
X186628000Y-96018000D01*
X186633000Y-96030000D01*
X186638000Y-96043000D01*
X186641000Y-96055000D01*
X186645000Y-96068000D01*
X186647000Y-96081000D01*
X186649000Y-96094000D01*
X186650000Y-96107000D01*
X186650000Y-96120000D01*
X186650000Y-96420000D01*
X186650000Y-96433000D01*
X186649000Y-96446000D01*
X186647000Y-96459000D01*
X186645000Y-96472000D01*
X186641000Y-96485000D01*
X186638000Y-96497000D01*
X186633000Y-96510000D01*
X186628000Y-96522000D01*
X186623000Y-96533000D01*
X186617000Y-96545000D01*
X186610000Y-96556000D01*
X186602000Y-96567000D01*
X186594000Y-96577000D01*
X186586000Y-96587000D01*
X186577000Y-96597000D01*
X186567000Y-96606000D01*
X186557000Y-96614000D01*
X186547000Y-96622000D01*
X186536000Y-96630000D01*
X186525000Y-96637000D01*
X186513000Y-96643000D01*
X186502000Y-96648000D01*
X186490000Y-96653000D01*
X186477000Y-96658000D01*
X186465000Y-96661000D01*
X186452000Y-96665000D01*
X186439000Y-96667000D01*
X186426000Y-96669000D01*
X186413000Y-96670000D01*
X186400000Y-96670000D01*
X186100000Y-96670000D01*
X186087000Y-96670000D01*
X186074000Y-96669000D01*
X186061000Y-96667000D01*
X186048000Y-96665000D01*
X186035000Y-96661000D01*
X186023000Y-96658000D01*
X186010000Y-96653000D01*
X185998000Y-96648000D01*
X185987000Y-96643000D01*
X185975000Y-96637000D01*
X185964000Y-96630000D01*
X185953000Y-96622000D01*
X185943000Y-96614000D01*
X185933000Y-96606000D01*
X185923000Y-96597000D01*
X185914000Y-96587000D01*
X185906000Y-96577000D01*
X185898000Y-96567000D01*
X185890000Y-96556000D01*
X185883000Y-96545000D01*
X185877000Y-96533000D01*
X185872000Y-96522000D01*
X185867000Y-96510000D01*
X185862000Y-96497000D01*
X185859000Y-96485000D01*
X185855000Y-96472000D01*
X185853000Y-96459000D01*
X185851000Y-96446000D01*
X185850000Y-96433000D01*
X185850000Y-96420000D01*
X185850000Y-96120000D01*
X185850000Y-96107000D01*
X185851000Y-96094000D01*
X185853000Y-96081000D01*
X185855000Y-96068000D01*
X185859000Y-96055000D01*
X185862000Y-96043000D01*
X185867000Y-96030000D01*
X185872000Y-96018000D01*
X185877000Y-96007000D01*
X185883000Y-95995000D01*
X185890000Y-95984000D01*
X185898000Y-95973000D01*
X185906000Y-95963000D01*
X185914000Y-95953000D01*
X185923000Y-95943000D01*
X185933000Y-95934000D01*
X185943000Y-95926000D01*
X185953000Y-95918000D01*
X185964000Y-95910000D01*
X185975000Y-95903000D01*
X185987000Y-95897000D01*
X185998000Y-95892000D01*
X186010000Y-95887000D01*
X186023000Y-95882000D01*
X186035000Y-95879000D01*
X186048000Y-95875000D01*
X186061000Y-95873000D01*
X186074000Y-95871000D01*
X186087000Y-95870000D01*
X186100000Y-95870000D01*
X186400000Y-95870000D01*
X186413000Y-95870000D01*
X186426000Y-95871000D01*
G37*
X187326000Y-94471000D02*
X187339000Y-94473000D01*
X187352000Y-94475000D01*
X187365000Y-94479000D01*
X187377000Y-94482000D01*
X187390000Y-94487000D01*
X187402000Y-94492000D01*
X187413000Y-94497000D01*
X187425000Y-94503000D01*
X187436000Y-94510000D01*
X187447000Y-94518000D01*
X187457000Y-94526000D01*
X187467000Y-94534000D01*
X187477000Y-94543000D01*
X187486000Y-94553000D01*
X187494000Y-94563000D01*
X187502000Y-94573000D01*
X187510000Y-94584000D01*
X187517000Y-94595000D01*
X187523000Y-94607000D01*
X187528000Y-94618000D01*
X187533000Y-94630000D01*
X187538000Y-94643000D01*
X187541000Y-94655000D01*
X187545000Y-94668000D01*
X187547000Y-94681000D01*
X187549000Y-94694000D01*
X187550000Y-94707000D01*
X187550000Y-94720000D01*
X187550000Y-95020000D01*
X187550000Y-95033000D01*
X187549000Y-95046000D01*
X187547000Y-95059000D01*
X187545000Y-95072000D01*
X187541000Y-95085000D01*
X187538000Y-95097000D01*
X187533000Y-95110000D01*
X187528000Y-95122000D01*
X187523000Y-95133000D01*
X187517000Y-95145000D01*
X187510000Y-95156000D01*
X187502000Y-95167000D01*
X187494000Y-95177000D01*
X187486000Y-95187000D01*
X187477000Y-95197000D01*
X187467000Y-95206000D01*
X187457000Y-95214000D01*
X187447000Y-95222000D01*
X187436000Y-95230000D01*
X187425000Y-95237000D01*
X187413000Y-95243000D01*
X187402000Y-95248000D01*
X187390000Y-95253000D01*
X187377000Y-95258000D01*
X187365000Y-95261000D01*
X187352000Y-95265000D01*
X187339000Y-95267000D01*
X187326000Y-95269000D01*
X187313000Y-95270000D01*
X187300000Y-95270000D01*
X187000000Y-95270000D01*
X186987000Y-95270000D01*
X186974000Y-95269000D01*
X186961000Y-95267000D01*
X186948000Y-95265000D01*
X186935000Y-95261000D01*
X186923000Y-95258000D01*
X186910000Y-95253000D01*
X186898000Y-95248000D01*
X186887000Y-95243000D01*
X186875000Y-95237000D01*
X186864000Y-95230000D01*
X186853000Y-95222000D01*
X186843000Y-95214000D01*
X186833000Y-95206000D01*
X186823000Y-95197000D01*
X186814000Y-95187000D01*
X186806000Y-95177000D01*
X186798000Y-95167000D01*
X186790000Y-95156000D01*
X186783000Y-95145000D01*
X186777000Y-95133000D01*
X186772000Y-95122000D01*
X186767000Y-95110000D01*
X186762000Y-95097000D01*
X186759000Y-95085000D01*
X186755000Y-95072000D01*
X186753000Y-95059000D01*
X186751000Y-95046000D01*
X186750000Y-95033000D01*
X186750000Y-95020000D01*
X186750000Y-94720000D01*
X186750000Y-94707000D01*
X186751000Y-94694000D01*
X186753000Y-94681000D01*
X186755000Y-94668000D01*
X186759000Y-94655000D01*
X186762000Y-94643000D01*
X186767000Y-94630000D01*
X186772000Y-94618000D01*
X186777000Y-94607000D01*
X186783000Y-94595000D01*
X186790000Y-94584000D01*
X186798000Y-94573000D01*
X186806000Y-94563000D01*
X186814000Y-94553000D01*
X186823000Y-94543000D01*
X186833000Y-94534000D01*
X186843000Y-94526000D01*
X186853000Y-94518000D01*
X186864000Y-94510000D01*
X186875000Y-94503000D01*
X186887000Y-94497000D01*
X186898000Y-94492000D01*
X186910000Y-94487000D01*
X186923000Y-94482000D01*
X186935000Y-94479000D01*
X186948000Y-94475000D01*
X186961000Y-94473000D01*
X186974000Y-94471000D01*
X186987000Y-94470000D01*
X187000000Y-94470000D01*
X187300000Y-94470000D01*
X187313000Y-94470000D01*
X187326000Y-94471000D01*
G36*
X187326000Y-94471000D02*
G01*
X187339000Y-94473000D01*
X187352000Y-94475000D01*
X187365000Y-94479000D01*
X187377000Y-94482000D01*
X187390000Y-94487000D01*
X187402000Y-94492000D01*
X187413000Y-94497000D01*
X187425000Y-94503000D01*
X187436000Y-94510000D01*
X187447000Y-94518000D01*
X187457000Y-94526000D01*
X187467000Y-94534000D01*
X187477000Y-94543000D01*
X187486000Y-94553000D01*
X187494000Y-94563000D01*
X187502000Y-94573000D01*
X187510000Y-94584000D01*
X187517000Y-94595000D01*
X187523000Y-94607000D01*
X187528000Y-94618000D01*
X187533000Y-94630000D01*
X187538000Y-94643000D01*
X187541000Y-94655000D01*
X187545000Y-94668000D01*
X187547000Y-94681000D01*
X187549000Y-94694000D01*
X187550000Y-94707000D01*
X187550000Y-94720000D01*
X187550000Y-95020000D01*
X187550000Y-95033000D01*
X187549000Y-95046000D01*
X187547000Y-95059000D01*
X187545000Y-95072000D01*
X187541000Y-95085000D01*
X187538000Y-95097000D01*
X187533000Y-95110000D01*
X187528000Y-95122000D01*
X187523000Y-95133000D01*
X187517000Y-95145000D01*
X187510000Y-95156000D01*
X187502000Y-95167000D01*
X187494000Y-95177000D01*
X187486000Y-95187000D01*
X187477000Y-95197000D01*
X187467000Y-95206000D01*
X187457000Y-95214000D01*
X187447000Y-95222000D01*
X187436000Y-95230000D01*
X187425000Y-95237000D01*
X187413000Y-95243000D01*
X187402000Y-95248000D01*
X187390000Y-95253000D01*
X187377000Y-95258000D01*
X187365000Y-95261000D01*
X187352000Y-95265000D01*
X187339000Y-95267000D01*
X187326000Y-95269000D01*
X187313000Y-95270000D01*
X187300000Y-95270000D01*
X187000000Y-95270000D01*
X186987000Y-95270000D01*
X186974000Y-95269000D01*
X186961000Y-95267000D01*
X186948000Y-95265000D01*
X186935000Y-95261000D01*
X186923000Y-95258000D01*
X186910000Y-95253000D01*
X186898000Y-95248000D01*
X186887000Y-95243000D01*
X186875000Y-95237000D01*
X186864000Y-95230000D01*
X186853000Y-95222000D01*
X186843000Y-95214000D01*
X186833000Y-95206000D01*
X186823000Y-95197000D01*
X186814000Y-95187000D01*
X186806000Y-95177000D01*
X186798000Y-95167000D01*
X186790000Y-95156000D01*
X186783000Y-95145000D01*
X186777000Y-95133000D01*
X186772000Y-95122000D01*
X186767000Y-95110000D01*
X186762000Y-95097000D01*
X186759000Y-95085000D01*
X186755000Y-95072000D01*
X186753000Y-95059000D01*
X186751000Y-95046000D01*
X186750000Y-95033000D01*
X186750000Y-95020000D01*
X186750000Y-94720000D01*
X186750000Y-94707000D01*
X186751000Y-94694000D01*
X186753000Y-94681000D01*
X186755000Y-94668000D01*
X186759000Y-94655000D01*
X186762000Y-94643000D01*
X186767000Y-94630000D01*
X186772000Y-94618000D01*
X186777000Y-94607000D01*
X186783000Y-94595000D01*
X186790000Y-94584000D01*
X186798000Y-94573000D01*
X186806000Y-94563000D01*
X186814000Y-94553000D01*
X186823000Y-94543000D01*
X186833000Y-94534000D01*
X186843000Y-94526000D01*
X186853000Y-94518000D01*
X186864000Y-94510000D01*
X186875000Y-94503000D01*
X186887000Y-94497000D01*
X186898000Y-94492000D01*
X186910000Y-94487000D01*
X186923000Y-94482000D01*
X186935000Y-94479000D01*
X186948000Y-94475000D01*
X186961000Y-94473000D01*
X186974000Y-94471000D01*
X186987000Y-94470000D01*
X187000000Y-94470000D01*
X187300000Y-94470000D01*
X187313000Y-94470000D01*
X187326000Y-94471000D01*
G37*
X187326000Y-95871000D02*
X187339000Y-95873000D01*
X187352000Y-95875000D01*
X187365000Y-95879000D01*
X187377000Y-95882000D01*
X187390000Y-95887000D01*
X187402000Y-95892000D01*
X187413000Y-95897000D01*
X187425000Y-95903000D01*
X187436000Y-95910000D01*
X187447000Y-95918000D01*
X187457000Y-95926000D01*
X187467000Y-95934000D01*
X187477000Y-95943000D01*
X187486000Y-95953000D01*
X187494000Y-95963000D01*
X187502000Y-95973000D01*
X187510000Y-95984000D01*
X187517000Y-95995000D01*
X187523000Y-96007000D01*
X187528000Y-96018000D01*
X187533000Y-96030000D01*
X187538000Y-96043000D01*
X187541000Y-96055000D01*
X187545000Y-96068000D01*
X187547000Y-96081000D01*
X187549000Y-96094000D01*
X187550000Y-96107000D01*
X187550000Y-96120000D01*
X187550000Y-96420000D01*
X187550000Y-96433000D01*
X187549000Y-96446000D01*
X187547000Y-96459000D01*
X187545000Y-96472000D01*
X187541000Y-96485000D01*
X187538000Y-96497000D01*
X187533000Y-96510000D01*
X187528000Y-96522000D01*
X187523000Y-96533000D01*
X187517000Y-96545000D01*
X187510000Y-96556000D01*
X187502000Y-96567000D01*
X187494000Y-96577000D01*
X187486000Y-96587000D01*
X187477000Y-96597000D01*
X187467000Y-96606000D01*
X187457000Y-96614000D01*
X187447000Y-96622000D01*
X187436000Y-96630000D01*
X187425000Y-96637000D01*
X187413000Y-96643000D01*
X187402000Y-96648000D01*
X187390000Y-96653000D01*
X187377000Y-96658000D01*
X187365000Y-96661000D01*
X187352000Y-96665000D01*
X187339000Y-96667000D01*
X187326000Y-96669000D01*
X187313000Y-96670000D01*
X187300000Y-96670000D01*
X187000000Y-96670000D01*
X186987000Y-96670000D01*
X186974000Y-96669000D01*
X186961000Y-96667000D01*
X186948000Y-96665000D01*
X186935000Y-96661000D01*
X186923000Y-96658000D01*
X186910000Y-96653000D01*
X186898000Y-96648000D01*
X186887000Y-96643000D01*
X186875000Y-96637000D01*
X186864000Y-96630000D01*
X186853000Y-96622000D01*
X186843000Y-96614000D01*
X186833000Y-96606000D01*
X186823000Y-96597000D01*
X186814000Y-96587000D01*
X186806000Y-96577000D01*
X186798000Y-96567000D01*
X186790000Y-96556000D01*
X186783000Y-96545000D01*
X186777000Y-96533000D01*
X186772000Y-96522000D01*
X186767000Y-96510000D01*
X186762000Y-96497000D01*
X186759000Y-96485000D01*
X186755000Y-96472000D01*
X186753000Y-96459000D01*
X186751000Y-96446000D01*
X186750000Y-96433000D01*
X186750000Y-96420000D01*
X186750000Y-96120000D01*
X186750000Y-96107000D01*
X186751000Y-96094000D01*
X186753000Y-96081000D01*
X186755000Y-96068000D01*
X186759000Y-96055000D01*
X186762000Y-96043000D01*
X186767000Y-96030000D01*
X186772000Y-96018000D01*
X186777000Y-96007000D01*
X186783000Y-95995000D01*
X186790000Y-95984000D01*
X186798000Y-95973000D01*
X186806000Y-95963000D01*
X186814000Y-95953000D01*
X186823000Y-95943000D01*
X186833000Y-95934000D01*
X186843000Y-95926000D01*
X186853000Y-95918000D01*
X186864000Y-95910000D01*
X186875000Y-95903000D01*
X186887000Y-95897000D01*
X186898000Y-95892000D01*
X186910000Y-95887000D01*
X186923000Y-95882000D01*
X186935000Y-95879000D01*
X186948000Y-95875000D01*
X186961000Y-95873000D01*
X186974000Y-95871000D01*
X186987000Y-95870000D01*
X187000000Y-95870000D01*
X187300000Y-95870000D01*
X187313000Y-95870000D01*
X187326000Y-95871000D01*
G36*
X187326000Y-95871000D02*
G01*
X187339000Y-95873000D01*
X187352000Y-95875000D01*
X187365000Y-95879000D01*
X187377000Y-95882000D01*
X187390000Y-95887000D01*
X187402000Y-95892000D01*
X187413000Y-95897000D01*
X187425000Y-95903000D01*
X187436000Y-95910000D01*
X187447000Y-95918000D01*
X187457000Y-95926000D01*
X187467000Y-95934000D01*
X187477000Y-95943000D01*
X187486000Y-95953000D01*
X187494000Y-95963000D01*
X187502000Y-95973000D01*
X187510000Y-95984000D01*
X187517000Y-95995000D01*
X187523000Y-96007000D01*
X187528000Y-96018000D01*
X187533000Y-96030000D01*
X187538000Y-96043000D01*
X187541000Y-96055000D01*
X187545000Y-96068000D01*
X187547000Y-96081000D01*
X187549000Y-96094000D01*
X187550000Y-96107000D01*
X187550000Y-96120000D01*
X187550000Y-96420000D01*
X187550000Y-96433000D01*
X187549000Y-96446000D01*
X187547000Y-96459000D01*
X187545000Y-96472000D01*
X187541000Y-96485000D01*
X187538000Y-96497000D01*
X187533000Y-96510000D01*
X187528000Y-96522000D01*
X187523000Y-96533000D01*
X187517000Y-96545000D01*
X187510000Y-96556000D01*
X187502000Y-96567000D01*
X187494000Y-96577000D01*
X187486000Y-96587000D01*
X187477000Y-96597000D01*
X187467000Y-96606000D01*
X187457000Y-96614000D01*
X187447000Y-96622000D01*
X187436000Y-96630000D01*
X187425000Y-96637000D01*
X187413000Y-96643000D01*
X187402000Y-96648000D01*
X187390000Y-96653000D01*
X187377000Y-96658000D01*
X187365000Y-96661000D01*
X187352000Y-96665000D01*
X187339000Y-96667000D01*
X187326000Y-96669000D01*
X187313000Y-96670000D01*
X187300000Y-96670000D01*
X187000000Y-96670000D01*
X186987000Y-96670000D01*
X186974000Y-96669000D01*
X186961000Y-96667000D01*
X186948000Y-96665000D01*
X186935000Y-96661000D01*
X186923000Y-96658000D01*
X186910000Y-96653000D01*
X186898000Y-96648000D01*
X186887000Y-96643000D01*
X186875000Y-96637000D01*
X186864000Y-96630000D01*
X186853000Y-96622000D01*
X186843000Y-96614000D01*
X186833000Y-96606000D01*
X186823000Y-96597000D01*
X186814000Y-96587000D01*
X186806000Y-96577000D01*
X186798000Y-96567000D01*
X186790000Y-96556000D01*
X186783000Y-96545000D01*
X186777000Y-96533000D01*
X186772000Y-96522000D01*
X186767000Y-96510000D01*
X186762000Y-96497000D01*
X186759000Y-96485000D01*
X186755000Y-96472000D01*
X186753000Y-96459000D01*
X186751000Y-96446000D01*
X186750000Y-96433000D01*
X186750000Y-96420000D01*
X186750000Y-96120000D01*
X186750000Y-96107000D01*
X186751000Y-96094000D01*
X186753000Y-96081000D01*
X186755000Y-96068000D01*
X186759000Y-96055000D01*
X186762000Y-96043000D01*
X186767000Y-96030000D01*
X186772000Y-96018000D01*
X186777000Y-96007000D01*
X186783000Y-95995000D01*
X186790000Y-95984000D01*
X186798000Y-95973000D01*
X186806000Y-95963000D01*
X186814000Y-95953000D01*
X186823000Y-95943000D01*
X186833000Y-95934000D01*
X186843000Y-95926000D01*
X186853000Y-95918000D01*
X186864000Y-95910000D01*
X186875000Y-95903000D01*
X186887000Y-95897000D01*
X186898000Y-95892000D01*
X186910000Y-95887000D01*
X186923000Y-95882000D01*
X186935000Y-95879000D01*
X186948000Y-95875000D01*
X186961000Y-95873000D01*
X186974000Y-95871000D01*
X186987000Y-95870000D01*
X187000000Y-95870000D01*
X187300000Y-95870000D01*
X187313000Y-95870000D01*
X187326000Y-95871000D01*
G37*
X188226000Y-94471000D02*
X188239000Y-94473000D01*
X188252000Y-94475000D01*
X188265000Y-94479000D01*
X188277000Y-94482000D01*
X188290000Y-94487000D01*
X188302000Y-94492000D01*
X188313000Y-94497000D01*
X188325000Y-94503000D01*
X188336000Y-94510000D01*
X188347000Y-94518000D01*
X188357000Y-94526000D01*
X188367000Y-94534000D01*
X188377000Y-94543000D01*
X188386000Y-94553000D01*
X188394000Y-94563000D01*
X188402000Y-94573000D01*
X188410000Y-94584000D01*
X188417000Y-94595000D01*
X188423000Y-94607000D01*
X188428000Y-94618000D01*
X188433000Y-94630000D01*
X188438000Y-94643000D01*
X188441000Y-94655000D01*
X188445000Y-94668000D01*
X188447000Y-94681000D01*
X188449000Y-94694000D01*
X188450000Y-94707000D01*
X188450000Y-94720000D01*
X188450000Y-95020000D01*
X188450000Y-95033000D01*
X188449000Y-95046000D01*
X188447000Y-95059000D01*
X188445000Y-95072000D01*
X188441000Y-95085000D01*
X188438000Y-95097000D01*
X188433000Y-95110000D01*
X188428000Y-95122000D01*
X188423000Y-95133000D01*
X188417000Y-95145000D01*
X188410000Y-95156000D01*
X188402000Y-95167000D01*
X188394000Y-95177000D01*
X188386000Y-95187000D01*
X188377000Y-95197000D01*
X188367000Y-95206000D01*
X188357000Y-95214000D01*
X188347000Y-95222000D01*
X188336000Y-95230000D01*
X188325000Y-95237000D01*
X188313000Y-95243000D01*
X188302000Y-95248000D01*
X188290000Y-95253000D01*
X188277000Y-95258000D01*
X188265000Y-95261000D01*
X188252000Y-95265000D01*
X188239000Y-95267000D01*
X188226000Y-95269000D01*
X188213000Y-95270000D01*
X188200000Y-95270000D01*
X187900000Y-95270000D01*
X187887000Y-95270000D01*
X187874000Y-95269000D01*
X187861000Y-95267000D01*
X187848000Y-95265000D01*
X187835000Y-95261000D01*
X187823000Y-95258000D01*
X187810000Y-95253000D01*
X187798000Y-95248000D01*
X187787000Y-95243000D01*
X187775000Y-95237000D01*
X187764000Y-95230000D01*
X187753000Y-95222000D01*
X187743000Y-95214000D01*
X187733000Y-95206000D01*
X187723000Y-95197000D01*
X187714000Y-95187000D01*
X187706000Y-95177000D01*
X187698000Y-95167000D01*
X187690000Y-95156000D01*
X187683000Y-95145000D01*
X187677000Y-95133000D01*
X187672000Y-95122000D01*
X187667000Y-95110000D01*
X187662000Y-95097000D01*
X187659000Y-95085000D01*
X187655000Y-95072000D01*
X187653000Y-95059000D01*
X187651000Y-95046000D01*
X187650000Y-95033000D01*
X187650000Y-95020000D01*
X187650000Y-94720000D01*
X187650000Y-94707000D01*
X187651000Y-94694000D01*
X187653000Y-94681000D01*
X187655000Y-94668000D01*
X187659000Y-94655000D01*
X187662000Y-94643000D01*
X187667000Y-94630000D01*
X187672000Y-94618000D01*
X187677000Y-94607000D01*
X187683000Y-94595000D01*
X187690000Y-94584000D01*
X187698000Y-94573000D01*
X187706000Y-94563000D01*
X187714000Y-94553000D01*
X187723000Y-94543000D01*
X187733000Y-94534000D01*
X187743000Y-94526000D01*
X187753000Y-94518000D01*
X187764000Y-94510000D01*
X187775000Y-94503000D01*
X187787000Y-94497000D01*
X187798000Y-94492000D01*
X187810000Y-94487000D01*
X187823000Y-94482000D01*
X187835000Y-94479000D01*
X187848000Y-94475000D01*
X187861000Y-94473000D01*
X187874000Y-94471000D01*
X187887000Y-94470000D01*
X187900000Y-94470000D01*
X188200000Y-94470000D01*
X188213000Y-94470000D01*
X188226000Y-94471000D01*
G36*
X188226000Y-94471000D02*
G01*
X188239000Y-94473000D01*
X188252000Y-94475000D01*
X188265000Y-94479000D01*
X188277000Y-94482000D01*
X188290000Y-94487000D01*
X188302000Y-94492000D01*
X188313000Y-94497000D01*
X188325000Y-94503000D01*
X188336000Y-94510000D01*
X188347000Y-94518000D01*
X188357000Y-94526000D01*
X188367000Y-94534000D01*
X188377000Y-94543000D01*
X188386000Y-94553000D01*
X188394000Y-94563000D01*
X188402000Y-94573000D01*
X188410000Y-94584000D01*
X188417000Y-94595000D01*
X188423000Y-94607000D01*
X188428000Y-94618000D01*
X188433000Y-94630000D01*
X188438000Y-94643000D01*
X188441000Y-94655000D01*
X188445000Y-94668000D01*
X188447000Y-94681000D01*
X188449000Y-94694000D01*
X188450000Y-94707000D01*
X188450000Y-94720000D01*
X188450000Y-95020000D01*
X188450000Y-95033000D01*
X188449000Y-95046000D01*
X188447000Y-95059000D01*
X188445000Y-95072000D01*
X188441000Y-95085000D01*
X188438000Y-95097000D01*
X188433000Y-95110000D01*
X188428000Y-95122000D01*
X188423000Y-95133000D01*
X188417000Y-95145000D01*
X188410000Y-95156000D01*
X188402000Y-95167000D01*
X188394000Y-95177000D01*
X188386000Y-95187000D01*
X188377000Y-95197000D01*
X188367000Y-95206000D01*
X188357000Y-95214000D01*
X188347000Y-95222000D01*
X188336000Y-95230000D01*
X188325000Y-95237000D01*
X188313000Y-95243000D01*
X188302000Y-95248000D01*
X188290000Y-95253000D01*
X188277000Y-95258000D01*
X188265000Y-95261000D01*
X188252000Y-95265000D01*
X188239000Y-95267000D01*
X188226000Y-95269000D01*
X188213000Y-95270000D01*
X188200000Y-95270000D01*
X187900000Y-95270000D01*
X187887000Y-95270000D01*
X187874000Y-95269000D01*
X187861000Y-95267000D01*
X187848000Y-95265000D01*
X187835000Y-95261000D01*
X187823000Y-95258000D01*
X187810000Y-95253000D01*
X187798000Y-95248000D01*
X187787000Y-95243000D01*
X187775000Y-95237000D01*
X187764000Y-95230000D01*
X187753000Y-95222000D01*
X187743000Y-95214000D01*
X187733000Y-95206000D01*
X187723000Y-95197000D01*
X187714000Y-95187000D01*
X187706000Y-95177000D01*
X187698000Y-95167000D01*
X187690000Y-95156000D01*
X187683000Y-95145000D01*
X187677000Y-95133000D01*
X187672000Y-95122000D01*
X187667000Y-95110000D01*
X187662000Y-95097000D01*
X187659000Y-95085000D01*
X187655000Y-95072000D01*
X187653000Y-95059000D01*
X187651000Y-95046000D01*
X187650000Y-95033000D01*
X187650000Y-95020000D01*
X187650000Y-94720000D01*
X187650000Y-94707000D01*
X187651000Y-94694000D01*
X187653000Y-94681000D01*
X187655000Y-94668000D01*
X187659000Y-94655000D01*
X187662000Y-94643000D01*
X187667000Y-94630000D01*
X187672000Y-94618000D01*
X187677000Y-94607000D01*
X187683000Y-94595000D01*
X187690000Y-94584000D01*
X187698000Y-94573000D01*
X187706000Y-94563000D01*
X187714000Y-94553000D01*
X187723000Y-94543000D01*
X187733000Y-94534000D01*
X187743000Y-94526000D01*
X187753000Y-94518000D01*
X187764000Y-94510000D01*
X187775000Y-94503000D01*
X187787000Y-94497000D01*
X187798000Y-94492000D01*
X187810000Y-94487000D01*
X187823000Y-94482000D01*
X187835000Y-94479000D01*
X187848000Y-94475000D01*
X187861000Y-94473000D01*
X187874000Y-94471000D01*
X187887000Y-94470000D01*
X187900000Y-94470000D01*
X188200000Y-94470000D01*
X188213000Y-94470000D01*
X188226000Y-94471000D01*
G37*
X188226000Y-95871000D02*
X188239000Y-95873000D01*
X188252000Y-95875000D01*
X188265000Y-95879000D01*
X188277000Y-95882000D01*
X188290000Y-95887000D01*
X188302000Y-95892000D01*
X188313000Y-95897000D01*
X188325000Y-95903000D01*
X188336000Y-95910000D01*
X188347000Y-95918000D01*
X188357000Y-95926000D01*
X188367000Y-95934000D01*
X188377000Y-95943000D01*
X188386000Y-95953000D01*
X188394000Y-95963000D01*
X188402000Y-95973000D01*
X188410000Y-95984000D01*
X188417000Y-95995000D01*
X188423000Y-96007000D01*
X188428000Y-96018000D01*
X188433000Y-96030000D01*
X188438000Y-96043000D01*
X188441000Y-96055000D01*
X188445000Y-96068000D01*
X188447000Y-96081000D01*
X188449000Y-96094000D01*
X188450000Y-96107000D01*
X188450000Y-96120000D01*
X188450000Y-96420000D01*
X188450000Y-96433000D01*
X188449000Y-96446000D01*
X188447000Y-96459000D01*
X188445000Y-96472000D01*
X188441000Y-96485000D01*
X188438000Y-96497000D01*
X188433000Y-96510000D01*
X188428000Y-96522000D01*
X188423000Y-96533000D01*
X188417000Y-96545000D01*
X188410000Y-96556000D01*
X188402000Y-96567000D01*
X188394000Y-96577000D01*
X188386000Y-96587000D01*
X188377000Y-96597000D01*
X188367000Y-96606000D01*
X188357000Y-96614000D01*
X188347000Y-96622000D01*
X188336000Y-96630000D01*
X188325000Y-96637000D01*
X188313000Y-96643000D01*
X188302000Y-96648000D01*
X188290000Y-96653000D01*
X188277000Y-96658000D01*
X188265000Y-96661000D01*
X188252000Y-96665000D01*
X188239000Y-96667000D01*
X188226000Y-96669000D01*
X188213000Y-96670000D01*
X188200000Y-96670000D01*
X187900000Y-96670000D01*
X187887000Y-96670000D01*
X187874000Y-96669000D01*
X187861000Y-96667000D01*
X187848000Y-96665000D01*
X187835000Y-96661000D01*
X187823000Y-96658000D01*
X187810000Y-96653000D01*
X187798000Y-96648000D01*
X187787000Y-96643000D01*
X187775000Y-96637000D01*
X187764000Y-96630000D01*
X187753000Y-96622000D01*
X187743000Y-96614000D01*
X187733000Y-96606000D01*
X187723000Y-96597000D01*
X187714000Y-96587000D01*
X187706000Y-96577000D01*
X187698000Y-96567000D01*
X187690000Y-96556000D01*
X187683000Y-96545000D01*
X187677000Y-96533000D01*
X187672000Y-96522000D01*
X187667000Y-96510000D01*
X187662000Y-96497000D01*
X187659000Y-96485000D01*
X187655000Y-96472000D01*
X187653000Y-96459000D01*
X187651000Y-96446000D01*
X187650000Y-96433000D01*
X187650000Y-96420000D01*
X187650000Y-96120000D01*
X187650000Y-96107000D01*
X187651000Y-96094000D01*
X187653000Y-96081000D01*
X187655000Y-96068000D01*
X187659000Y-96055000D01*
X187662000Y-96043000D01*
X187667000Y-96030000D01*
X187672000Y-96018000D01*
X187677000Y-96007000D01*
X187683000Y-95995000D01*
X187690000Y-95984000D01*
X187698000Y-95973000D01*
X187706000Y-95963000D01*
X187714000Y-95953000D01*
X187723000Y-95943000D01*
X187733000Y-95934000D01*
X187743000Y-95926000D01*
X187753000Y-95918000D01*
X187764000Y-95910000D01*
X187775000Y-95903000D01*
X187787000Y-95897000D01*
X187798000Y-95892000D01*
X187810000Y-95887000D01*
X187823000Y-95882000D01*
X187835000Y-95879000D01*
X187848000Y-95875000D01*
X187861000Y-95873000D01*
X187874000Y-95871000D01*
X187887000Y-95870000D01*
X187900000Y-95870000D01*
X188200000Y-95870000D01*
X188213000Y-95870000D01*
X188226000Y-95871000D01*
G36*
X188226000Y-95871000D02*
G01*
X188239000Y-95873000D01*
X188252000Y-95875000D01*
X188265000Y-95879000D01*
X188277000Y-95882000D01*
X188290000Y-95887000D01*
X188302000Y-95892000D01*
X188313000Y-95897000D01*
X188325000Y-95903000D01*
X188336000Y-95910000D01*
X188347000Y-95918000D01*
X188357000Y-95926000D01*
X188367000Y-95934000D01*
X188377000Y-95943000D01*
X188386000Y-95953000D01*
X188394000Y-95963000D01*
X188402000Y-95973000D01*
X188410000Y-95984000D01*
X188417000Y-95995000D01*
X188423000Y-96007000D01*
X188428000Y-96018000D01*
X188433000Y-96030000D01*
X188438000Y-96043000D01*
X188441000Y-96055000D01*
X188445000Y-96068000D01*
X188447000Y-96081000D01*
X188449000Y-96094000D01*
X188450000Y-96107000D01*
X188450000Y-96120000D01*
X188450000Y-96420000D01*
X188450000Y-96433000D01*
X188449000Y-96446000D01*
X188447000Y-96459000D01*
X188445000Y-96472000D01*
X188441000Y-96485000D01*
X188438000Y-96497000D01*
X188433000Y-96510000D01*
X188428000Y-96522000D01*
X188423000Y-96533000D01*
X188417000Y-96545000D01*
X188410000Y-96556000D01*
X188402000Y-96567000D01*
X188394000Y-96577000D01*
X188386000Y-96587000D01*
X188377000Y-96597000D01*
X188367000Y-96606000D01*
X188357000Y-96614000D01*
X188347000Y-96622000D01*
X188336000Y-96630000D01*
X188325000Y-96637000D01*
X188313000Y-96643000D01*
X188302000Y-96648000D01*
X188290000Y-96653000D01*
X188277000Y-96658000D01*
X188265000Y-96661000D01*
X188252000Y-96665000D01*
X188239000Y-96667000D01*
X188226000Y-96669000D01*
X188213000Y-96670000D01*
X188200000Y-96670000D01*
X187900000Y-96670000D01*
X187887000Y-96670000D01*
X187874000Y-96669000D01*
X187861000Y-96667000D01*
X187848000Y-96665000D01*
X187835000Y-96661000D01*
X187823000Y-96658000D01*
X187810000Y-96653000D01*
X187798000Y-96648000D01*
X187787000Y-96643000D01*
X187775000Y-96637000D01*
X187764000Y-96630000D01*
X187753000Y-96622000D01*
X187743000Y-96614000D01*
X187733000Y-96606000D01*
X187723000Y-96597000D01*
X187714000Y-96587000D01*
X187706000Y-96577000D01*
X187698000Y-96567000D01*
X187690000Y-96556000D01*
X187683000Y-96545000D01*
X187677000Y-96533000D01*
X187672000Y-96522000D01*
X187667000Y-96510000D01*
X187662000Y-96497000D01*
X187659000Y-96485000D01*
X187655000Y-96472000D01*
X187653000Y-96459000D01*
X187651000Y-96446000D01*
X187650000Y-96433000D01*
X187650000Y-96420000D01*
X187650000Y-96120000D01*
X187650000Y-96107000D01*
X187651000Y-96094000D01*
X187653000Y-96081000D01*
X187655000Y-96068000D01*
X187659000Y-96055000D01*
X187662000Y-96043000D01*
X187667000Y-96030000D01*
X187672000Y-96018000D01*
X187677000Y-96007000D01*
X187683000Y-95995000D01*
X187690000Y-95984000D01*
X187698000Y-95973000D01*
X187706000Y-95963000D01*
X187714000Y-95953000D01*
X187723000Y-95943000D01*
X187733000Y-95934000D01*
X187743000Y-95926000D01*
X187753000Y-95918000D01*
X187764000Y-95910000D01*
X187775000Y-95903000D01*
X187787000Y-95897000D01*
X187798000Y-95892000D01*
X187810000Y-95887000D01*
X187823000Y-95882000D01*
X187835000Y-95879000D01*
X187848000Y-95875000D01*
X187861000Y-95873000D01*
X187874000Y-95871000D01*
X187887000Y-95870000D01*
X187900000Y-95870000D01*
X188200000Y-95870000D01*
X188213000Y-95870000D01*
X188226000Y-95871000D01*
G37*
X190287000Y-93092000D02*
X190305000Y-93094000D01*
X190323000Y-93098000D01*
X190341000Y-93102000D01*
X190358000Y-93107000D01*
X190375000Y-93113000D01*
X190392000Y-93120000D01*
X190409000Y-93128000D01*
X190425000Y-93137000D01*
X190441000Y-93146000D01*
X190456000Y-93157000D01*
X190470000Y-93168000D01*
X190484000Y-93180000D01*
X190497000Y-93193000D01*
X190510000Y-93206000D01*
X190522000Y-93220000D01*
X190533000Y-93234000D01*
X190544000Y-93249000D01*
X190553000Y-93265000D01*
X190562000Y-93281000D01*
X190570000Y-93298000D01*
X190577000Y-93315000D01*
X190583000Y-93332000D01*
X190588000Y-93349000D01*
X190592000Y-93367000D01*
X190596000Y-93385000D01*
X190598000Y-93403000D01*
X190600000Y-93422000D01*
X190600000Y-93440000D01*
X190600000Y-93840000D01*
X190600000Y-93858000D01*
X190598000Y-93877000D01*
X190596000Y-93895000D01*
X190592000Y-93913000D01*
X190588000Y-93931000D01*
X190583000Y-93948000D01*
X190577000Y-93965000D01*
X190570000Y-93982000D01*
X190562000Y-93999000D01*
X190553000Y-94015000D01*
X190544000Y-94031000D01*
X190533000Y-94046000D01*
X190522000Y-94060000D01*
X190510000Y-94074000D01*
X190497000Y-94087000D01*
X190484000Y-94100000D01*
X190470000Y-94112000D01*
X190456000Y-94123000D01*
X190441000Y-94134000D01*
X190425000Y-94143000D01*
X190409000Y-94152000D01*
X190392000Y-94160000D01*
X190375000Y-94167000D01*
X190358000Y-94173000D01*
X190341000Y-94178000D01*
X190323000Y-94182000D01*
X190305000Y-94186000D01*
X190287000Y-94188000D01*
X190268000Y-94190000D01*
X190250000Y-94190000D01*
X188950000Y-94190000D01*
X188932000Y-94190000D01*
X188913000Y-94188000D01*
X188895000Y-94186000D01*
X188877000Y-94182000D01*
X188859000Y-94178000D01*
X188842000Y-94173000D01*
X188825000Y-94167000D01*
X188808000Y-94160000D01*
X188791000Y-94152000D01*
X188775000Y-94143000D01*
X188759000Y-94134000D01*
X188744000Y-94123000D01*
X188730000Y-94112000D01*
X188716000Y-94100000D01*
X188703000Y-94087000D01*
X188690000Y-94074000D01*
X188678000Y-94060000D01*
X188667000Y-94046000D01*
X188656000Y-94031000D01*
X188647000Y-94015000D01*
X188638000Y-93999000D01*
X188630000Y-93982000D01*
X188623000Y-93965000D01*
X188617000Y-93948000D01*
X188612000Y-93931000D01*
X188608000Y-93913000D01*
X188604000Y-93895000D01*
X188602000Y-93877000D01*
X188600000Y-93858000D01*
X188600000Y-93840000D01*
X188600000Y-93440000D01*
X188600000Y-93422000D01*
X188602000Y-93403000D01*
X188604000Y-93385000D01*
X188608000Y-93367000D01*
X188612000Y-93349000D01*
X188617000Y-93332000D01*
X188623000Y-93315000D01*
X188630000Y-93298000D01*
X188638000Y-93281000D01*
X188647000Y-93265000D01*
X188656000Y-93249000D01*
X188667000Y-93234000D01*
X188678000Y-93220000D01*
X188690000Y-93206000D01*
X188703000Y-93193000D01*
X188716000Y-93180000D01*
X188730000Y-93168000D01*
X188744000Y-93157000D01*
X188759000Y-93146000D01*
X188775000Y-93137000D01*
X188791000Y-93128000D01*
X188808000Y-93120000D01*
X188825000Y-93113000D01*
X188842000Y-93107000D01*
X188859000Y-93102000D01*
X188877000Y-93098000D01*
X188895000Y-93094000D01*
X188913000Y-93092000D01*
X188932000Y-93090000D01*
X188950000Y-93090000D01*
X190250000Y-93090000D01*
X190268000Y-93090000D01*
X190287000Y-93092000D01*
G36*
X190287000Y-93092000D02*
G01*
X190305000Y-93094000D01*
X190323000Y-93098000D01*
X190341000Y-93102000D01*
X190358000Y-93107000D01*
X190375000Y-93113000D01*
X190392000Y-93120000D01*
X190409000Y-93128000D01*
X190425000Y-93137000D01*
X190441000Y-93146000D01*
X190456000Y-93157000D01*
X190470000Y-93168000D01*
X190484000Y-93180000D01*
X190497000Y-93193000D01*
X190510000Y-93206000D01*
X190522000Y-93220000D01*
X190533000Y-93234000D01*
X190544000Y-93249000D01*
X190553000Y-93265000D01*
X190562000Y-93281000D01*
X190570000Y-93298000D01*
X190577000Y-93315000D01*
X190583000Y-93332000D01*
X190588000Y-93349000D01*
X190592000Y-93367000D01*
X190596000Y-93385000D01*
X190598000Y-93403000D01*
X190600000Y-93422000D01*
X190600000Y-93440000D01*
X190600000Y-93840000D01*
X190600000Y-93858000D01*
X190598000Y-93877000D01*
X190596000Y-93895000D01*
X190592000Y-93913000D01*
X190588000Y-93931000D01*
X190583000Y-93948000D01*
X190577000Y-93965000D01*
X190570000Y-93982000D01*
X190562000Y-93999000D01*
X190553000Y-94015000D01*
X190544000Y-94031000D01*
X190533000Y-94046000D01*
X190522000Y-94060000D01*
X190510000Y-94074000D01*
X190497000Y-94087000D01*
X190484000Y-94100000D01*
X190470000Y-94112000D01*
X190456000Y-94123000D01*
X190441000Y-94134000D01*
X190425000Y-94143000D01*
X190409000Y-94152000D01*
X190392000Y-94160000D01*
X190375000Y-94167000D01*
X190358000Y-94173000D01*
X190341000Y-94178000D01*
X190323000Y-94182000D01*
X190305000Y-94186000D01*
X190287000Y-94188000D01*
X190268000Y-94190000D01*
X190250000Y-94190000D01*
X188950000Y-94190000D01*
X188932000Y-94190000D01*
X188913000Y-94188000D01*
X188895000Y-94186000D01*
X188877000Y-94182000D01*
X188859000Y-94178000D01*
X188842000Y-94173000D01*
X188825000Y-94167000D01*
X188808000Y-94160000D01*
X188791000Y-94152000D01*
X188775000Y-94143000D01*
X188759000Y-94134000D01*
X188744000Y-94123000D01*
X188730000Y-94112000D01*
X188716000Y-94100000D01*
X188703000Y-94087000D01*
X188690000Y-94074000D01*
X188678000Y-94060000D01*
X188667000Y-94046000D01*
X188656000Y-94031000D01*
X188647000Y-94015000D01*
X188638000Y-93999000D01*
X188630000Y-93982000D01*
X188623000Y-93965000D01*
X188617000Y-93948000D01*
X188612000Y-93931000D01*
X188608000Y-93913000D01*
X188604000Y-93895000D01*
X188602000Y-93877000D01*
X188600000Y-93858000D01*
X188600000Y-93840000D01*
X188600000Y-93440000D01*
X188600000Y-93422000D01*
X188602000Y-93403000D01*
X188604000Y-93385000D01*
X188608000Y-93367000D01*
X188612000Y-93349000D01*
X188617000Y-93332000D01*
X188623000Y-93315000D01*
X188630000Y-93298000D01*
X188638000Y-93281000D01*
X188647000Y-93265000D01*
X188656000Y-93249000D01*
X188667000Y-93234000D01*
X188678000Y-93220000D01*
X188690000Y-93206000D01*
X188703000Y-93193000D01*
X188716000Y-93180000D01*
X188730000Y-93168000D01*
X188744000Y-93157000D01*
X188759000Y-93146000D01*
X188775000Y-93137000D01*
X188791000Y-93128000D01*
X188808000Y-93120000D01*
X188825000Y-93113000D01*
X188842000Y-93107000D01*
X188859000Y-93102000D01*
X188877000Y-93098000D01*
X188895000Y-93094000D01*
X188913000Y-93092000D01*
X188932000Y-93090000D01*
X188950000Y-93090000D01*
X190250000Y-93090000D01*
X190268000Y-93090000D01*
X190287000Y-93092000D01*
G37*
X190287000Y-96952000D02*
X190305000Y-96954000D01*
X190323000Y-96958000D01*
X190341000Y-96962000D01*
X190358000Y-96967000D01*
X190375000Y-96973000D01*
X190392000Y-96980000D01*
X190409000Y-96988000D01*
X190425000Y-96997000D01*
X190441000Y-97006000D01*
X190456000Y-97017000D01*
X190470000Y-97028000D01*
X190484000Y-97040000D01*
X190497000Y-97053000D01*
X190510000Y-97066000D01*
X190522000Y-97080000D01*
X190533000Y-97094000D01*
X190544000Y-97109000D01*
X190553000Y-97125000D01*
X190562000Y-97141000D01*
X190570000Y-97158000D01*
X190577000Y-97175000D01*
X190583000Y-97192000D01*
X190588000Y-97209000D01*
X190592000Y-97227000D01*
X190596000Y-97245000D01*
X190598000Y-97263000D01*
X190600000Y-97282000D01*
X190600000Y-97300000D01*
X190600000Y-97700000D01*
X190600000Y-97718000D01*
X190598000Y-97737000D01*
X190596000Y-97755000D01*
X190592000Y-97773000D01*
X190588000Y-97791000D01*
X190583000Y-97808000D01*
X190577000Y-97825000D01*
X190570000Y-97842000D01*
X190562000Y-97859000D01*
X190553000Y-97875000D01*
X190544000Y-97891000D01*
X190533000Y-97906000D01*
X190522000Y-97920000D01*
X190510000Y-97934000D01*
X190497000Y-97947000D01*
X190484000Y-97960000D01*
X190470000Y-97972000D01*
X190456000Y-97983000D01*
X190441000Y-97994000D01*
X190425000Y-98003000D01*
X190409000Y-98012000D01*
X190392000Y-98020000D01*
X190375000Y-98027000D01*
X190358000Y-98033000D01*
X190341000Y-98038000D01*
X190323000Y-98042000D01*
X190305000Y-98046000D01*
X190287000Y-98048000D01*
X190268000Y-98050000D01*
X190250000Y-98050000D01*
X188950000Y-98050000D01*
X188932000Y-98050000D01*
X188913000Y-98048000D01*
X188895000Y-98046000D01*
X188877000Y-98042000D01*
X188859000Y-98038000D01*
X188842000Y-98033000D01*
X188825000Y-98027000D01*
X188808000Y-98020000D01*
X188791000Y-98012000D01*
X188775000Y-98003000D01*
X188759000Y-97994000D01*
X188744000Y-97983000D01*
X188730000Y-97972000D01*
X188716000Y-97960000D01*
X188703000Y-97947000D01*
X188690000Y-97934000D01*
X188678000Y-97920000D01*
X188667000Y-97906000D01*
X188656000Y-97891000D01*
X188647000Y-97875000D01*
X188638000Y-97859000D01*
X188630000Y-97842000D01*
X188623000Y-97825000D01*
X188617000Y-97808000D01*
X188612000Y-97791000D01*
X188608000Y-97773000D01*
X188604000Y-97755000D01*
X188602000Y-97737000D01*
X188600000Y-97718000D01*
X188600000Y-97700000D01*
X188600000Y-97300000D01*
X188600000Y-97282000D01*
X188602000Y-97263000D01*
X188604000Y-97245000D01*
X188608000Y-97227000D01*
X188612000Y-97209000D01*
X188617000Y-97192000D01*
X188623000Y-97175000D01*
X188630000Y-97158000D01*
X188638000Y-97141000D01*
X188647000Y-97125000D01*
X188656000Y-97109000D01*
X188667000Y-97094000D01*
X188678000Y-97080000D01*
X188690000Y-97066000D01*
X188703000Y-97053000D01*
X188716000Y-97040000D01*
X188730000Y-97028000D01*
X188744000Y-97017000D01*
X188759000Y-97006000D01*
X188775000Y-96997000D01*
X188791000Y-96988000D01*
X188808000Y-96980000D01*
X188825000Y-96973000D01*
X188842000Y-96967000D01*
X188859000Y-96962000D01*
X188877000Y-96958000D01*
X188895000Y-96954000D01*
X188913000Y-96952000D01*
X188932000Y-96950000D01*
X188950000Y-96950000D01*
X190250000Y-96950000D01*
X190268000Y-96950000D01*
X190287000Y-96952000D01*
G36*
X190287000Y-96952000D02*
G01*
X190305000Y-96954000D01*
X190323000Y-96958000D01*
X190341000Y-96962000D01*
X190358000Y-96967000D01*
X190375000Y-96973000D01*
X190392000Y-96980000D01*
X190409000Y-96988000D01*
X190425000Y-96997000D01*
X190441000Y-97006000D01*
X190456000Y-97017000D01*
X190470000Y-97028000D01*
X190484000Y-97040000D01*
X190497000Y-97053000D01*
X190510000Y-97066000D01*
X190522000Y-97080000D01*
X190533000Y-97094000D01*
X190544000Y-97109000D01*
X190553000Y-97125000D01*
X190562000Y-97141000D01*
X190570000Y-97158000D01*
X190577000Y-97175000D01*
X190583000Y-97192000D01*
X190588000Y-97209000D01*
X190592000Y-97227000D01*
X190596000Y-97245000D01*
X190598000Y-97263000D01*
X190600000Y-97282000D01*
X190600000Y-97300000D01*
X190600000Y-97700000D01*
X190600000Y-97718000D01*
X190598000Y-97737000D01*
X190596000Y-97755000D01*
X190592000Y-97773000D01*
X190588000Y-97791000D01*
X190583000Y-97808000D01*
X190577000Y-97825000D01*
X190570000Y-97842000D01*
X190562000Y-97859000D01*
X190553000Y-97875000D01*
X190544000Y-97891000D01*
X190533000Y-97906000D01*
X190522000Y-97920000D01*
X190510000Y-97934000D01*
X190497000Y-97947000D01*
X190484000Y-97960000D01*
X190470000Y-97972000D01*
X190456000Y-97983000D01*
X190441000Y-97994000D01*
X190425000Y-98003000D01*
X190409000Y-98012000D01*
X190392000Y-98020000D01*
X190375000Y-98027000D01*
X190358000Y-98033000D01*
X190341000Y-98038000D01*
X190323000Y-98042000D01*
X190305000Y-98046000D01*
X190287000Y-98048000D01*
X190268000Y-98050000D01*
X190250000Y-98050000D01*
X188950000Y-98050000D01*
X188932000Y-98050000D01*
X188913000Y-98048000D01*
X188895000Y-98046000D01*
X188877000Y-98042000D01*
X188859000Y-98038000D01*
X188842000Y-98033000D01*
X188825000Y-98027000D01*
X188808000Y-98020000D01*
X188791000Y-98012000D01*
X188775000Y-98003000D01*
X188759000Y-97994000D01*
X188744000Y-97983000D01*
X188730000Y-97972000D01*
X188716000Y-97960000D01*
X188703000Y-97947000D01*
X188690000Y-97934000D01*
X188678000Y-97920000D01*
X188667000Y-97906000D01*
X188656000Y-97891000D01*
X188647000Y-97875000D01*
X188638000Y-97859000D01*
X188630000Y-97842000D01*
X188623000Y-97825000D01*
X188617000Y-97808000D01*
X188612000Y-97791000D01*
X188608000Y-97773000D01*
X188604000Y-97755000D01*
X188602000Y-97737000D01*
X188600000Y-97718000D01*
X188600000Y-97700000D01*
X188600000Y-97300000D01*
X188600000Y-97282000D01*
X188602000Y-97263000D01*
X188604000Y-97245000D01*
X188608000Y-97227000D01*
X188612000Y-97209000D01*
X188617000Y-97192000D01*
X188623000Y-97175000D01*
X188630000Y-97158000D01*
X188638000Y-97141000D01*
X188647000Y-97125000D01*
X188656000Y-97109000D01*
X188667000Y-97094000D01*
X188678000Y-97080000D01*
X188690000Y-97066000D01*
X188703000Y-97053000D01*
X188716000Y-97040000D01*
X188730000Y-97028000D01*
X188744000Y-97017000D01*
X188759000Y-97006000D01*
X188775000Y-96997000D01*
X188791000Y-96988000D01*
X188808000Y-96980000D01*
X188825000Y-96973000D01*
X188842000Y-96967000D01*
X188859000Y-96962000D01*
X188877000Y-96958000D01*
X188895000Y-96954000D01*
X188913000Y-96952000D01*
X188932000Y-96950000D01*
X188950000Y-96950000D01*
X190250000Y-96950000D01*
X190268000Y-96950000D01*
X190287000Y-96952000D01*
G37*
X189126000Y-94471000D02*
X189139000Y-94473000D01*
X189152000Y-94475000D01*
X189165000Y-94479000D01*
X189177000Y-94482000D01*
X189190000Y-94487000D01*
X189202000Y-94492000D01*
X189213000Y-94497000D01*
X189225000Y-94503000D01*
X189236000Y-94510000D01*
X189247000Y-94518000D01*
X189257000Y-94526000D01*
X189267000Y-94534000D01*
X189277000Y-94543000D01*
X189286000Y-94553000D01*
X189294000Y-94563000D01*
X189302000Y-94573000D01*
X189310000Y-94584000D01*
X189317000Y-94595000D01*
X189323000Y-94607000D01*
X189328000Y-94618000D01*
X189333000Y-94630000D01*
X189338000Y-94643000D01*
X189341000Y-94655000D01*
X189345000Y-94668000D01*
X189347000Y-94681000D01*
X189349000Y-94694000D01*
X189350000Y-94707000D01*
X189350000Y-94720000D01*
X189350000Y-95020000D01*
X189350000Y-95033000D01*
X189349000Y-95046000D01*
X189347000Y-95059000D01*
X189345000Y-95072000D01*
X189341000Y-95085000D01*
X189338000Y-95097000D01*
X189333000Y-95110000D01*
X189328000Y-95122000D01*
X189323000Y-95133000D01*
X189317000Y-95145000D01*
X189310000Y-95156000D01*
X189302000Y-95167000D01*
X189294000Y-95177000D01*
X189286000Y-95187000D01*
X189277000Y-95197000D01*
X189267000Y-95206000D01*
X189257000Y-95214000D01*
X189247000Y-95222000D01*
X189236000Y-95230000D01*
X189225000Y-95237000D01*
X189213000Y-95243000D01*
X189202000Y-95248000D01*
X189190000Y-95253000D01*
X189177000Y-95258000D01*
X189165000Y-95261000D01*
X189152000Y-95265000D01*
X189139000Y-95267000D01*
X189126000Y-95269000D01*
X189113000Y-95270000D01*
X189100000Y-95270000D01*
X188800000Y-95270000D01*
X188787000Y-95270000D01*
X188774000Y-95269000D01*
X188761000Y-95267000D01*
X188748000Y-95265000D01*
X188735000Y-95261000D01*
X188723000Y-95258000D01*
X188710000Y-95253000D01*
X188698000Y-95248000D01*
X188687000Y-95243000D01*
X188675000Y-95237000D01*
X188664000Y-95230000D01*
X188653000Y-95222000D01*
X188643000Y-95214000D01*
X188633000Y-95206000D01*
X188623000Y-95197000D01*
X188614000Y-95187000D01*
X188606000Y-95177000D01*
X188598000Y-95167000D01*
X188590000Y-95156000D01*
X188583000Y-95145000D01*
X188577000Y-95133000D01*
X188572000Y-95122000D01*
X188567000Y-95110000D01*
X188562000Y-95097000D01*
X188559000Y-95085000D01*
X188555000Y-95072000D01*
X188553000Y-95059000D01*
X188551000Y-95046000D01*
X188550000Y-95033000D01*
X188550000Y-95020000D01*
X188550000Y-94720000D01*
X188550000Y-94707000D01*
X188551000Y-94694000D01*
X188553000Y-94681000D01*
X188555000Y-94668000D01*
X188559000Y-94655000D01*
X188562000Y-94643000D01*
X188567000Y-94630000D01*
X188572000Y-94618000D01*
X188577000Y-94607000D01*
X188583000Y-94595000D01*
X188590000Y-94584000D01*
X188598000Y-94573000D01*
X188606000Y-94563000D01*
X188614000Y-94553000D01*
X188623000Y-94543000D01*
X188633000Y-94534000D01*
X188643000Y-94526000D01*
X188653000Y-94518000D01*
X188664000Y-94510000D01*
X188675000Y-94503000D01*
X188687000Y-94497000D01*
X188698000Y-94492000D01*
X188710000Y-94487000D01*
X188723000Y-94482000D01*
X188735000Y-94479000D01*
X188748000Y-94475000D01*
X188761000Y-94473000D01*
X188774000Y-94471000D01*
X188787000Y-94470000D01*
X188800000Y-94470000D01*
X189100000Y-94470000D01*
X189113000Y-94470000D01*
X189126000Y-94471000D01*
G36*
X189126000Y-94471000D02*
G01*
X189139000Y-94473000D01*
X189152000Y-94475000D01*
X189165000Y-94479000D01*
X189177000Y-94482000D01*
X189190000Y-94487000D01*
X189202000Y-94492000D01*
X189213000Y-94497000D01*
X189225000Y-94503000D01*
X189236000Y-94510000D01*
X189247000Y-94518000D01*
X189257000Y-94526000D01*
X189267000Y-94534000D01*
X189277000Y-94543000D01*
X189286000Y-94553000D01*
X189294000Y-94563000D01*
X189302000Y-94573000D01*
X189310000Y-94584000D01*
X189317000Y-94595000D01*
X189323000Y-94607000D01*
X189328000Y-94618000D01*
X189333000Y-94630000D01*
X189338000Y-94643000D01*
X189341000Y-94655000D01*
X189345000Y-94668000D01*
X189347000Y-94681000D01*
X189349000Y-94694000D01*
X189350000Y-94707000D01*
X189350000Y-94720000D01*
X189350000Y-95020000D01*
X189350000Y-95033000D01*
X189349000Y-95046000D01*
X189347000Y-95059000D01*
X189345000Y-95072000D01*
X189341000Y-95085000D01*
X189338000Y-95097000D01*
X189333000Y-95110000D01*
X189328000Y-95122000D01*
X189323000Y-95133000D01*
X189317000Y-95145000D01*
X189310000Y-95156000D01*
X189302000Y-95167000D01*
X189294000Y-95177000D01*
X189286000Y-95187000D01*
X189277000Y-95197000D01*
X189267000Y-95206000D01*
X189257000Y-95214000D01*
X189247000Y-95222000D01*
X189236000Y-95230000D01*
X189225000Y-95237000D01*
X189213000Y-95243000D01*
X189202000Y-95248000D01*
X189190000Y-95253000D01*
X189177000Y-95258000D01*
X189165000Y-95261000D01*
X189152000Y-95265000D01*
X189139000Y-95267000D01*
X189126000Y-95269000D01*
X189113000Y-95270000D01*
X189100000Y-95270000D01*
X188800000Y-95270000D01*
X188787000Y-95270000D01*
X188774000Y-95269000D01*
X188761000Y-95267000D01*
X188748000Y-95265000D01*
X188735000Y-95261000D01*
X188723000Y-95258000D01*
X188710000Y-95253000D01*
X188698000Y-95248000D01*
X188687000Y-95243000D01*
X188675000Y-95237000D01*
X188664000Y-95230000D01*
X188653000Y-95222000D01*
X188643000Y-95214000D01*
X188633000Y-95206000D01*
X188623000Y-95197000D01*
X188614000Y-95187000D01*
X188606000Y-95177000D01*
X188598000Y-95167000D01*
X188590000Y-95156000D01*
X188583000Y-95145000D01*
X188577000Y-95133000D01*
X188572000Y-95122000D01*
X188567000Y-95110000D01*
X188562000Y-95097000D01*
X188559000Y-95085000D01*
X188555000Y-95072000D01*
X188553000Y-95059000D01*
X188551000Y-95046000D01*
X188550000Y-95033000D01*
X188550000Y-95020000D01*
X188550000Y-94720000D01*
X188550000Y-94707000D01*
X188551000Y-94694000D01*
X188553000Y-94681000D01*
X188555000Y-94668000D01*
X188559000Y-94655000D01*
X188562000Y-94643000D01*
X188567000Y-94630000D01*
X188572000Y-94618000D01*
X188577000Y-94607000D01*
X188583000Y-94595000D01*
X188590000Y-94584000D01*
X188598000Y-94573000D01*
X188606000Y-94563000D01*
X188614000Y-94553000D01*
X188623000Y-94543000D01*
X188633000Y-94534000D01*
X188643000Y-94526000D01*
X188653000Y-94518000D01*
X188664000Y-94510000D01*
X188675000Y-94503000D01*
X188687000Y-94497000D01*
X188698000Y-94492000D01*
X188710000Y-94487000D01*
X188723000Y-94482000D01*
X188735000Y-94479000D01*
X188748000Y-94475000D01*
X188761000Y-94473000D01*
X188774000Y-94471000D01*
X188787000Y-94470000D01*
X188800000Y-94470000D01*
X189100000Y-94470000D01*
X189113000Y-94470000D01*
X189126000Y-94471000D01*
G37*
X189126000Y-95871000D02*
X189139000Y-95873000D01*
X189152000Y-95875000D01*
X189165000Y-95879000D01*
X189177000Y-95882000D01*
X189190000Y-95887000D01*
X189202000Y-95892000D01*
X189213000Y-95897000D01*
X189225000Y-95903000D01*
X189236000Y-95910000D01*
X189247000Y-95918000D01*
X189257000Y-95926000D01*
X189267000Y-95934000D01*
X189277000Y-95943000D01*
X189286000Y-95953000D01*
X189294000Y-95963000D01*
X189302000Y-95973000D01*
X189310000Y-95984000D01*
X189317000Y-95995000D01*
X189323000Y-96007000D01*
X189328000Y-96018000D01*
X189333000Y-96030000D01*
X189338000Y-96043000D01*
X189341000Y-96055000D01*
X189345000Y-96068000D01*
X189347000Y-96081000D01*
X189349000Y-96094000D01*
X189350000Y-96107000D01*
X189350000Y-96120000D01*
X189350000Y-96420000D01*
X189350000Y-96433000D01*
X189349000Y-96446000D01*
X189347000Y-96459000D01*
X189345000Y-96472000D01*
X189341000Y-96485000D01*
X189338000Y-96497000D01*
X189333000Y-96510000D01*
X189328000Y-96522000D01*
X189323000Y-96533000D01*
X189317000Y-96545000D01*
X189310000Y-96556000D01*
X189302000Y-96567000D01*
X189294000Y-96577000D01*
X189286000Y-96587000D01*
X189277000Y-96597000D01*
X189267000Y-96606000D01*
X189257000Y-96614000D01*
X189247000Y-96622000D01*
X189236000Y-96630000D01*
X189225000Y-96637000D01*
X189213000Y-96643000D01*
X189202000Y-96648000D01*
X189190000Y-96653000D01*
X189177000Y-96658000D01*
X189165000Y-96661000D01*
X189152000Y-96665000D01*
X189139000Y-96667000D01*
X189126000Y-96669000D01*
X189113000Y-96670000D01*
X189100000Y-96670000D01*
X188800000Y-96670000D01*
X188787000Y-96670000D01*
X188774000Y-96669000D01*
X188761000Y-96667000D01*
X188748000Y-96665000D01*
X188735000Y-96661000D01*
X188723000Y-96658000D01*
X188710000Y-96653000D01*
X188698000Y-96648000D01*
X188687000Y-96643000D01*
X188675000Y-96637000D01*
X188664000Y-96630000D01*
X188653000Y-96622000D01*
X188643000Y-96614000D01*
X188633000Y-96606000D01*
X188623000Y-96597000D01*
X188614000Y-96587000D01*
X188606000Y-96577000D01*
X188598000Y-96567000D01*
X188590000Y-96556000D01*
X188583000Y-96545000D01*
X188577000Y-96533000D01*
X188572000Y-96522000D01*
X188567000Y-96510000D01*
X188562000Y-96497000D01*
X188559000Y-96485000D01*
X188555000Y-96472000D01*
X188553000Y-96459000D01*
X188551000Y-96446000D01*
X188550000Y-96433000D01*
X188550000Y-96420000D01*
X188550000Y-96120000D01*
X188550000Y-96107000D01*
X188551000Y-96094000D01*
X188553000Y-96081000D01*
X188555000Y-96068000D01*
X188559000Y-96055000D01*
X188562000Y-96043000D01*
X188567000Y-96030000D01*
X188572000Y-96018000D01*
X188577000Y-96007000D01*
X188583000Y-95995000D01*
X188590000Y-95984000D01*
X188598000Y-95973000D01*
X188606000Y-95963000D01*
X188614000Y-95953000D01*
X188623000Y-95943000D01*
X188633000Y-95934000D01*
X188643000Y-95926000D01*
X188653000Y-95918000D01*
X188664000Y-95910000D01*
X188675000Y-95903000D01*
X188687000Y-95897000D01*
X188698000Y-95892000D01*
X188710000Y-95887000D01*
X188723000Y-95882000D01*
X188735000Y-95879000D01*
X188748000Y-95875000D01*
X188761000Y-95873000D01*
X188774000Y-95871000D01*
X188787000Y-95870000D01*
X188800000Y-95870000D01*
X189100000Y-95870000D01*
X189113000Y-95870000D01*
X189126000Y-95871000D01*
G36*
X189126000Y-95871000D02*
G01*
X189139000Y-95873000D01*
X189152000Y-95875000D01*
X189165000Y-95879000D01*
X189177000Y-95882000D01*
X189190000Y-95887000D01*
X189202000Y-95892000D01*
X189213000Y-95897000D01*
X189225000Y-95903000D01*
X189236000Y-95910000D01*
X189247000Y-95918000D01*
X189257000Y-95926000D01*
X189267000Y-95934000D01*
X189277000Y-95943000D01*
X189286000Y-95953000D01*
X189294000Y-95963000D01*
X189302000Y-95973000D01*
X189310000Y-95984000D01*
X189317000Y-95995000D01*
X189323000Y-96007000D01*
X189328000Y-96018000D01*
X189333000Y-96030000D01*
X189338000Y-96043000D01*
X189341000Y-96055000D01*
X189345000Y-96068000D01*
X189347000Y-96081000D01*
X189349000Y-96094000D01*
X189350000Y-96107000D01*
X189350000Y-96120000D01*
X189350000Y-96420000D01*
X189350000Y-96433000D01*
X189349000Y-96446000D01*
X189347000Y-96459000D01*
X189345000Y-96472000D01*
X189341000Y-96485000D01*
X189338000Y-96497000D01*
X189333000Y-96510000D01*
X189328000Y-96522000D01*
X189323000Y-96533000D01*
X189317000Y-96545000D01*
X189310000Y-96556000D01*
X189302000Y-96567000D01*
X189294000Y-96577000D01*
X189286000Y-96587000D01*
X189277000Y-96597000D01*
X189267000Y-96606000D01*
X189257000Y-96614000D01*
X189247000Y-96622000D01*
X189236000Y-96630000D01*
X189225000Y-96637000D01*
X189213000Y-96643000D01*
X189202000Y-96648000D01*
X189190000Y-96653000D01*
X189177000Y-96658000D01*
X189165000Y-96661000D01*
X189152000Y-96665000D01*
X189139000Y-96667000D01*
X189126000Y-96669000D01*
X189113000Y-96670000D01*
X189100000Y-96670000D01*
X188800000Y-96670000D01*
X188787000Y-96670000D01*
X188774000Y-96669000D01*
X188761000Y-96667000D01*
X188748000Y-96665000D01*
X188735000Y-96661000D01*
X188723000Y-96658000D01*
X188710000Y-96653000D01*
X188698000Y-96648000D01*
X188687000Y-96643000D01*
X188675000Y-96637000D01*
X188664000Y-96630000D01*
X188653000Y-96622000D01*
X188643000Y-96614000D01*
X188633000Y-96606000D01*
X188623000Y-96597000D01*
X188614000Y-96587000D01*
X188606000Y-96577000D01*
X188598000Y-96567000D01*
X188590000Y-96556000D01*
X188583000Y-96545000D01*
X188577000Y-96533000D01*
X188572000Y-96522000D01*
X188567000Y-96510000D01*
X188562000Y-96497000D01*
X188559000Y-96485000D01*
X188555000Y-96472000D01*
X188553000Y-96459000D01*
X188551000Y-96446000D01*
X188550000Y-96433000D01*
X188550000Y-96420000D01*
X188550000Y-96120000D01*
X188550000Y-96107000D01*
X188551000Y-96094000D01*
X188553000Y-96081000D01*
X188555000Y-96068000D01*
X188559000Y-96055000D01*
X188562000Y-96043000D01*
X188567000Y-96030000D01*
X188572000Y-96018000D01*
X188577000Y-96007000D01*
X188583000Y-95995000D01*
X188590000Y-95984000D01*
X188598000Y-95973000D01*
X188606000Y-95963000D01*
X188614000Y-95953000D01*
X188623000Y-95943000D01*
X188633000Y-95934000D01*
X188643000Y-95926000D01*
X188653000Y-95918000D01*
X188664000Y-95910000D01*
X188675000Y-95903000D01*
X188687000Y-95897000D01*
X188698000Y-95892000D01*
X188710000Y-95887000D01*
X188723000Y-95882000D01*
X188735000Y-95879000D01*
X188748000Y-95875000D01*
X188761000Y-95873000D01*
X188774000Y-95871000D01*
X188787000Y-95870000D01*
X188800000Y-95870000D01*
X189100000Y-95870000D01*
X189113000Y-95870000D01*
X189126000Y-95871000D01*
G37*
X190076000Y-94471000D02*
X190089000Y-94473000D01*
X190102000Y-94475000D01*
X190115000Y-94479000D01*
X190127000Y-94482000D01*
X190140000Y-94487000D01*
X190152000Y-94492000D01*
X190163000Y-94497000D01*
X190175000Y-94503000D01*
X190186000Y-94510000D01*
X190197000Y-94518000D01*
X190207000Y-94526000D01*
X190217000Y-94534000D01*
X190227000Y-94543000D01*
X190236000Y-94553000D01*
X190244000Y-94563000D01*
X190252000Y-94573000D01*
X190260000Y-94584000D01*
X190267000Y-94595000D01*
X190273000Y-94607000D01*
X190278000Y-94618000D01*
X190283000Y-94630000D01*
X190288000Y-94643000D01*
X190291000Y-94655000D01*
X190295000Y-94668000D01*
X190297000Y-94681000D01*
X190299000Y-94694000D01*
X190300000Y-94707000D01*
X190300000Y-94720000D01*
X190300000Y-95020000D01*
X190300000Y-95033000D01*
X190299000Y-95046000D01*
X190297000Y-95059000D01*
X190295000Y-95072000D01*
X190291000Y-95085000D01*
X190288000Y-95097000D01*
X190283000Y-95110000D01*
X190278000Y-95122000D01*
X190273000Y-95133000D01*
X190267000Y-95145000D01*
X190260000Y-95156000D01*
X190252000Y-95167000D01*
X190244000Y-95177000D01*
X190236000Y-95187000D01*
X190227000Y-95197000D01*
X190217000Y-95206000D01*
X190207000Y-95214000D01*
X190197000Y-95222000D01*
X190186000Y-95230000D01*
X190175000Y-95237000D01*
X190163000Y-95243000D01*
X190152000Y-95248000D01*
X190140000Y-95253000D01*
X190127000Y-95258000D01*
X190115000Y-95261000D01*
X190102000Y-95265000D01*
X190089000Y-95267000D01*
X190076000Y-95269000D01*
X190063000Y-95270000D01*
X190050000Y-95270000D01*
X189750000Y-95270000D01*
X189737000Y-95270000D01*
X189724000Y-95269000D01*
X189711000Y-95267000D01*
X189698000Y-95265000D01*
X189685000Y-95261000D01*
X189673000Y-95258000D01*
X189660000Y-95253000D01*
X189648000Y-95248000D01*
X189637000Y-95243000D01*
X189625000Y-95237000D01*
X189614000Y-95230000D01*
X189603000Y-95222000D01*
X189593000Y-95214000D01*
X189583000Y-95206000D01*
X189573000Y-95197000D01*
X189564000Y-95187000D01*
X189556000Y-95177000D01*
X189548000Y-95167000D01*
X189540000Y-95156000D01*
X189533000Y-95145000D01*
X189527000Y-95133000D01*
X189522000Y-95122000D01*
X189517000Y-95110000D01*
X189512000Y-95097000D01*
X189509000Y-95085000D01*
X189505000Y-95072000D01*
X189503000Y-95059000D01*
X189501000Y-95046000D01*
X189500000Y-95033000D01*
X189500000Y-95020000D01*
X189500000Y-94720000D01*
X189500000Y-94707000D01*
X189501000Y-94694000D01*
X189503000Y-94681000D01*
X189505000Y-94668000D01*
X189509000Y-94655000D01*
X189512000Y-94643000D01*
X189517000Y-94630000D01*
X189522000Y-94618000D01*
X189527000Y-94607000D01*
X189533000Y-94595000D01*
X189540000Y-94584000D01*
X189548000Y-94573000D01*
X189556000Y-94563000D01*
X189564000Y-94553000D01*
X189573000Y-94543000D01*
X189583000Y-94534000D01*
X189593000Y-94526000D01*
X189603000Y-94518000D01*
X189614000Y-94510000D01*
X189625000Y-94503000D01*
X189637000Y-94497000D01*
X189648000Y-94492000D01*
X189660000Y-94487000D01*
X189673000Y-94482000D01*
X189685000Y-94479000D01*
X189698000Y-94475000D01*
X189711000Y-94473000D01*
X189724000Y-94471000D01*
X189737000Y-94470000D01*
X189750000Y-94470000D01*
X190050000Y-94470000D01*
X190063000Y-94470000D01*
X190076000Y-94471000D01*
G36*
X190076000Y-94471000D02*
G01*
X190089000Y-94473000D01*
X190102000Y-94475000D01*
X190115000Y-94479000D01*
X190127000Y-94482000D01*
X190140000Y-94487000D01*
X190152000Y-94492000D01*
X190163000Y-94497000D01*
X190175000Y-94503000D01*
X190186000Y-94510000D01*
X190197000Y-94518000D01*
X190207000Y-94526000D01*
X190217000Y-94534000D01*
X190227000Y-94543000D01*
X190236000Y-94553000D01*
X190244000Y-94563000D01*
X190252000Y-94573000D01*
X190260000Y-94584000D01*
X190267000Y-94595000D01*
X190273000Y-94607000D01*
X190278000Y-94618000D01*
X190283000Y-94630000D01*
X190288000Y-94643000D01*
X190291000Y-94655000D01*
X190295000Y-94668000D01*
X190297000Y-94681000D01*
X190299000Y-94694000D01*
X190300000Y-94707000D01*
X190300000Y-94720000D01*
X190300000Y-95020000D01*
X190300000Y-95033000D01*
X190299000Y-95046000D01*
X190297000Y-95059000D01*
X190295000Y-95072000D01*
X190291000Y-95085000D01*
X190288000Y-95097000D01*
X190283000Y-95110000D01*
X190278000Y-95122000D01*
X190273000Y-95133000D01*
X190267000Y-95145000D01*
X190260000Y-95156000D01*
X190252000Y-95167000D01*
X190244000Y-95177000D01*
X190236000Y-95187000D01*
X190227000Y-95197000D01*
X190217000Y-95206000D01*
X190207000Y-95214000D01*
X190197000Y-95222000D01*
X190186000Y-95230000D01*
X190175000Y-95237000D01*
X190163000Y-95243000D01*
X190152000Y-95248000D01*
X190140000Y-95253000D01*
X190127000Y-95258000D01*
X190115000Y-95261000D01*
X190102000Y-95265000D01*
X190089000Y-95267000D01*
X190076000Y-95269000D01*
X190063000Y-95270000D01*
X190050000Y-95270000D01*
X189750000Y-95270000D01*
X189737000Y-95270000D01*
X189724000Y-95269000D01*
X189711000Y-95267000D01*
X189698000Y-95265000D01*
X189685000Y-95261000D01*
X189673000Y-95258000D01*
X189660000Y-95253000D01*
X189648000Y-95248000D01*
X189637000Y-95243000D01*
X189625000Y-95237000D01*
X189614000Y-95230000D01*
X189603000Y-95222000D01*
X189593000Y-95214000D01*
X189583000Y-95206000D01*
X189573000Y-95197000D01*
X189564000Y-95187000D01*
X189556000Y-95177000D01*
X189548000Y-95167000D01*
X189540000Y-95156000D01*
X189533000Y-95145000D01*
X189527000Y-95133000D01*
X189522000Y-95122000D01*
X189517000Y-95110000D01*
X189512000Y-95097000D01*
X189509000Y-95085000D01*
X189505000Y-95072000D01*
X189503000Y-95059000D01*
X189501000Y-95046000D01*
X189500000Y-95033000D01*
X189500000Y-95020000D01*
X189500000Y-94720000D01*
X189500000Y-94707000D01*
X189501000Y-94694000D01*
X189503000Y-94681000D01*
X189505000Y-94668000D01*
X189509000Y-94655000D01*
X189512000Y-94643000D01*
X189517000Y-94630000D01*
X189522000Y-94618000D01*
X189527000Y-94607000D01*
X189533000Y-94595000D01*
X189540000Y-94584000D01*
X189548000Y-94573000D01*
X189556000Y-94563000D01*
X189564000Y-94553000D01*
X189573000Y-94543000D01*
X189583000Y-94534000D01*
X189593000Y-94526000D01*
X189603000Y-94518000D01*
X189614000Y-94510000D01*
X189625000Y-94503000D01*
X189637000Y-94497000D01*
X189648000Y-94492000D01*
X189660000Y-94487000D01*
X189673000Y-94482000D01*
X189685000Y-94479000D01*
X189698000Y-94475000D01*
X189711000Y-94473000D01*
X189724000Y-94471000D01*
X189737000Y-94470000D01*
X189750000Y-94470000D01*
X190050000Y-94470000D01*
X190063000Y-94470000D01*
X190076000Y-94471000D01*
G37*
X190076000Y-95871000D02*
X190089000Y-95873000D01*
X190102000Y-95875000D01*
X190115000Y-95879000D01*
X190127000Y-95882000D01*
X190140000Y-95887000D01*
X190152000Y-95892000D01*
X190163000Y-95897000D01*
X190175000Y-95903000D01*
X190186000Y-95910000D01*
X190197000Y-95918000D01*
X190207000Y-95926000D01*
X190217000Y-95934000D01*
X190227000Y-95943000D01*
X190236000Y-95953000D01*
X190244000Y-95963000D01*
X190252000Y-95973000D01*
X190260000Y-95984000D01*
X190267000Y-95995000D01*
X190273000Y-96007000D01*
X190278000Y-96018000D01*
X190283000Y-96030000D01*
X190288000Y-96043000D01*
X190291000Y-96055000D01*
X190295000Y-96068000D01*
X190297000Y-96081000D01*
X190299000Y-96094000D01*
X190300000Y-96107000D01*
X190300000Y-96120000D01*
X190300000Y-96420000D01*
X190300000Y-96433000D01*
X190299000Y-96446000D01*
X190297000Y-96459000D01*
X190295000Y-96472000D01*
X190291000Y-96485000D01*
X190288000Y-96497000D01*
X190283000Y-96510000D01*
X190278000Y-96522000D01*
X190273000Y-96533000D01*
X190267000Y-96545000D01*
X190260000Y-96556000D01*
X190252000Y-96567000D01*
X190244000Y-96577000D01*
X190236000Y-96587000D01*
X190227000Y-96597000D01*
X190217000Y-96606000D01*
X190207000Y-96614000D01*
X190197000Y-96622000D01*
X190186000Y-96630000D01*
X190175000Y-96637000D01*
X190163000Y-96643000D01*
X190152000Y-96648000D01*
X190140000Y-96653000D01*
X190127000Y-96658000D01*
X190115000Y-96661000D01*
X190102000Y-96665000D01*
X190089000Y-96667000D01*
X190076000Y-96669000D01*
X190063000Y-96670000D01*
X190050000Y-96670000D01*
X189750000Y-96670000D01*
X189737000Y-96670000D01*
X189724000Y-96669000D01*
X189711000Y-96667000D01*
X189698000Y-96665000D01*
X189685000Y-96661000D01*
X189673000Y-96658000D01*
X189660000Y-96653000D01*
X189648000Y-96648000D01*
X189637000Y-96643000D01*
X189625000Y-96637000D01*
X189614000Y-96630000D01*
X189603000Y-96622000D01*
X189593000Y-96614000D01*
X189583000Y-96606000D01*
X189573000Y-96597000D01*
X189564000Y-96587000D01*
X189556000Y-96577000D01*
X189548000Y-96567000D01*
X189540000Y-96556000D01*
X189533000Y-96545000D01*
X189527000Y-96533000D01*
X189522000Y-96522000D01*
X189517000Y-96510000D01*
X189512000Y-96497000D01*
X189509000Y-96485000D01*
X189505000Y-96472000D01*
X189503000Y-96459000D01*
X189501000Y-96446000D01*
X189500000Y-96433000D01*
X189500000Y-96420000D01*
X189500000Y-96120000D01*
X189500000Y-96107000D01*
X189501000Y-96094000D01*
X189503000Y-96081000D01*
X189505000Y-96068000D01*
X189509000Y-96055000D01*
X189512000Y-96043000D01*
X189517000Y-96030000D01*
X189522000Y-96018000D01*
X189527000Y-96007000D01*
X189533000Y-95995000D01*
X189540000Y-95984000D01*
X189548000Y-95973000D01*
X189556000Y-95963000D01*
X189564000Y-95953000D01*
X189573000Y-95943000D01*
X189583000Y-95934000D01*
X189593000Y-95926000D01*
X189603000Y-95918000D01*
X189614000Y-95910000D01*
X189625000Y-95903000D01*
X189637000Y-95897000D01*
X189648000Y-95892000D01*
X189660000Y-95887000D01*
X189673000Y-95882000D01*
X189685000Y-95879000D01*
X189698000Y-95875000D01*
X189711000Y-95873000D01*
X189724000Y-95871000D01*
X189737000Y-95870000D01*
X189750000Y-95870000D01*
X190050000Y-95870000D01*
X190063000Y-95870000D01*
X190076000Y-95871000D01*
G36*
X190076000Y-95871000D02*
G01*
X190089000Y-95873000D01*
X190102000Y-95875000D01*
X190115000Y-95879000D01*
X190127000Y-95882000D01*
X190140000Y-95887000D01*
X190152000Y-95892000D01*
X190163000Y-95897000D01*
X190175000Y-95903000D01*
X190186000Y-95910000D01*
X190197000Y-95918000D01*
X190207000Y-95926000D01*
X190217000Y-95934000D01*
X190227000Y-95943000D01*
X190236000Y-95953000D01*
X190244000Y-95963000D01*
X190252000Y-95973000D01*
X190260000Y-95984000D01*
X190267000Y-95995000D01*
X190273000Y-96007000D01*
X190278000Y-96018000D01*
X190283000Y-96030000D01*
X190288000Y-96043000D01*
X190291000Y-96055000D01*
X190295000Y-96068000D01*
X190297000Y-96081000D01*
X190299000Y-96094000D01*
X190300000Y-96107000D01*
X190300000Y-96120000D01*
X190300000Y-96420000D01*
X190300000Y-96433000D01*
X190299000Y-96446000D01*
X190297000Y-96459000D01*
X190295000Y-96472000D01*
X190291000Y-96485000D01*
X190288000Y-96497000D01*
X190283000Y-96510000D01*
X190278000Y-96522000D01*
X190273000Y-96533000D01*
X190267000Y-96545000D01*
X190260000Y-96556000D01*
X190252000Y-96567000D01*
X190244000Y-96577000D01*
X190236000Y-96587000D01*
X190227000Y-96597000D01*
X190217000Y-96606000D01*
X190207000Y-96614000D01*
X190197000Y-96622000D01*
X190186000Y-96630000D01*
X190175000Y-96637000D01*
X190163000Y-96643000D01*
X190152000Y-96648000D01*
X190140000Y-96653000D01*
X190127000Y-96658000D01*
X190115000Y-96661000D01*
X190102000Y-96665000D01*
X190089000Y-96667000D01*
X190076000Y-96669000D01*
X190063000Y-96670000D01*
X190050000Y-96670000D01*
X189750000Y-96670000D01*
X189737000Y-96670000D01*
X189724000Y-96669000D01*
X189711000Y-96667000D01*
X189698000Y-96665000D01*
X189685000Y-96661000D01*
X189673000Y-96658000D01*
X189660000Y-96653000D01*
X189648000Y-96648000D01*
X189637000Y-96643000D01*
X189625000Y-96637000D01*
X189614000Y-96630000D01*
X189603000Y-96622000D01*
X189593000Y-96614000D01*
X189583000Y-96606000D01*
X189573000Y-96597000D01*
X189564000Y-96587000D01*
X189556000Y-96577000D01*
X189548000Y-96567000D01*
X189540000Y-96556000D01*
X189533000Y-96545000D01*
X189527000Y-96533000D01*
X189522000Y-96522000D01*
X189517000Y-96510000D01*
X189512000Y-96497000D01*
X189509000Y-96485000D01*
X189505000Y-96472000D01*
X189503000Y-96459000D01*
X189501000Y-96446000D01*
X189500000Y-96433000D01*
X189500000Y-96420000D01*
X189500000Y-96120000D01*
X189500000Y-96107000D01*
X189501000Y-96094000D01*
X189503000Y-96081000D01*
X189505000Y-96068000D01*
X189509000Y-96055000D01*
X189512000Y-96043000D01*
X189517000Y-96030000D01*
X189522000Y-96018000D01*
X189527000Y-96007000D01*
X189533000Y-95995000D01*
X189540000Y-95984000D01*
X189548000Y-95973000D01*
X189556000Y-95963000D01*
X189564000Y-95953000D01*
X189573000Y-95943000D01*
X189583000Y-95934000D01*
X189593000Y-95926000D01*
X189603000Y-95918000D01*
X189614000Y-95910000D01*
X189625000Y-95903000D01*
X189637000Y-95897000D01*
X189648000Y-95892000D01*
X189660000Y-95887000D01*
X189673000Y-95882000D01*
X189685000Y-95879000D01*
X189698000Y-95875000D01*
X189711000Y-95873000D01*
X189724000Y-95871000D01*
X189737000Y-95870000D01*
X189750000Y-95870000D01*
X190050000Y-95870000D01*
X190063000Y-95870000D01*
X190076000Y-95871000D01*
G37*
X191026000Y-94471000D02*
X191039000Y-94473000D01*
X191052000Y-94475000D01*
X191065000Y-94479000D01*
X191077000Y-94482000D01*
X191090000Y-94487000D01*
X191102000Y-94492000D01*
X191113000Y-94497000D01*
X191125000Y-94503000D01*
X191136000Y-94510000D01*
X191147000Y-94518000D01*
X191157000Y-94526000D01*
X191167000Y-94534000D01*
X191177000Y-94543000D01*
X191186000Y-94553000D01*
X191194000Y-94563000D01*
X191202000Y-94573000D01*
X191210000Y-94584000D01*
X191217000Y-94595000D01*
X191223000Y-94607000D01*
X191228000Y-94618000D01*
X191233000Y-94630000D01*
X191238000Y-94643000D01*
X191241000Y-94655000D01*
X191245000Y-94668000D01*
X191247000Y-94681000D01*
X191249000Y-94694000D01*
X191250000Y-94707000D01*
X191250000Y-94720000D01*
X191250000Y-95020000D01*
X191250000Y-95033000D01*
X191249000Y-95046000D01*
X191247000Y-95059000D01*
X191245000Y-95072000D01*
X191241000Y-95085000D01*
X191238000Y-95097000D01*
X191233000Y-95110000D01*
X191228000Y-95122000D01*
X191223000Y-95133000D01*
X191217000Y-95145000D01*
X191210000Y-95156000D01*
X191202000Y-95167000D01*
X191194000Y-95177000D01*
X191186000Y-95187000D01*
X191177000Y-95197000D01*
X191167000Y-95206000D01*
X191157000Y-95214000D01*
X191147000Y-95222000D01*
X191136000Y-95230000D01*
X191125000Y-95237000D01*
X191113000Y-95243000D01*
X191102000Y-95248000D01*
X191090000Y-95253000D01*
X191077000Y-95258000D01*
X191065000Y-95261000D01*
X191052000Y-95265000D01*
X191039000Y-95267000D01*
X191026000Y-95269000D01*
X191013000Y-95270000D01*
X191000000Y-95270000D01*
X190700000Y-95270000D01*
X190687000Y-95270000D01*
X190674000Y-95269000D01*
X190661000Y-95267000D01*
X190648000Y-95265000D01*
X190635000Y-95261000D01*
X190623000Y-95258000D01*
X190610000Y-95253000D01*
X190598000Y-95248000D01*
X190587000Y-95243000D01*
X190575000Y-95237000D01*
X190564000Y-95230000D01*
X190553000Y-95222000D01*
X190543000Y-95214000D01*
X190533000Y-95206000D01*
X190523000Y-95197000D01*
X190514000Y-95187000D01*
X190506000Y-95177000D01*
X190498000Y-95167000D01*
X190490000Y-95156000D01*
X190483000Y-95145000D01*
X190477000Y-95133000D01*
X190472000Y-95122000D01*
X190467000Y-95110000D01*
X190462000Y-95097000D01*
X190459000Y-95085000D01*
X190455000Y-95072000D01*
X190453000Y-95059000D01*
X190451000Y-95046000D01*
X190450000Y-95033000D01*
X190450000Y-95020000D01*
X190450000Y-94720000D01*
X190450000Y-94707000D01*
X190451000Y-94694000D01*
X190453000Y-94681000D01*
X190455000Y-94668000D01*
X190459000Y-94655000D01*
X190462000Y-94643000D01*
X190467000Y-94630000D01*
X190472000Y-94618000D01*
X190477000Y-94607000D01*
X190483000Y-94595000D01*
X190490000Y-94584000D01*
X190498000Y-94573000D01*
X190506000Y-94563000D01*
X190514000Y-94553000D01*
X190523000Y-94543000D01*
X190533000Y-94534000D01*
X190543000Y-94526000D01*
X190553000Y-94518000D01*
X190564000Y-94510000D01*
X190575000Y-94503000D01*
X190587000Y-94497000D01*
X190598000Y-94492000D01*
X190610000Y-94487000D01*
X190623000Y-94482000D01*
X190635000Y-94479000D01*
X190648000Y-94475000D01*
X190661000Y-94473000D01*
X190674000Y-94471000D01*
X190687000Y-94470000D01*
X190700000Y-94470000D01*
X191000000Y-94470000D01*
X191013000Y-94470000D01*
X191026000Y-94471000D01*
G36*
X191026000Y-94471000D02*
G01*
X191039000Y-94473000D01*
X191052000Y-94475000D01*
X191065000Y-94479000D01*
X191077000Y-94482000D01*
X191090000Y-94487000D01*
X191102000Y-94492000D01*
X191113000Y-94497000D01*
X191125000Y-94503000D01*
X191136000Y-94510000D01*
X191147000Y-94518000D01*
X191157000Y-94526000D01*
X191167000Y-94534000D01*
X191177000Y-94543000D01*
X191186000Y-94553000D01*
X191194000Y-94563000D01*
X191202000Y-94573000D01*
X191210000Y-94584000D01*
X191217000Y-94595000D01*
X191223000Y-94607000D01*
X191228000Y-94618000D01*
X191233000Y-94630000D01*
X191238000Y-94643000D01*
X191241000Y-94655000D01*
X191245000Y-94668000D01*
X191247000Y-94681000D01*
X191249000Y-94694000D01*
X191250000Y-94707000D01*
X191250000Y-94720000D01*
X191250000Y-95020000D01*
X191250000Y-95033000D01*
X191249000Y-95046000D01*
X191247000Y-95059000D01*
X191245000Y-95072000D01*
X191241000Y-95085000D01*
X191238000Y-95097000D01*
X191233000Y-95110000D01*
X191228000Y-95122000D01*
X191223000Y-95133000D01*
X191217000Y-95145000D01*
X191210000Y-95156000D01*
X191202000Y-95167000D01*
X191194000Y-95177000D01*
X191186000Y-95187000D01*
X191177000Y-95197000D01*
X191167000Y-95206000D01*
X191157000Y-95214000D01*
X191147000Y-95222000D01*
X191136000Y-95230000D01*
X191125000Y-95237000D01*
X191113000Y-95243000D01*
X191102000Y-95248000D01*
X191090000Y-95253000D01*
X191077000Y-95258000D01*
X191065000Y-95261000D01*
X191052000Y-95265000D01*
X191039000Y-95267000D01*
X191026000Y-95269000D01*
X191013000Y-95270000D01*
X191000000Y-95270000D01*
X190700000Y-95270000D01*
X190687000Y-95270000D01*
X190674000Y-95269000D01*
X190661000Y-95267000D01*
X190648000Y-95265000D01*
X190635000Y-95261000D01*
X190623000Y-95258000D01*
X190610000Y-95253000D01*
X190598000Y-95248000D01*
X190587000Y-95243000D01*
X190575000Y-95237000D01*
X190564000Y-95230000D01*
X190553000Y-95222000D01*
X190543000Y-95214000D01*
X190533000Y-95206000D01*
X190523000Y-95197000D01*
X190514000Y-95187000D01*
X190506000Y-95177000D01*
X190498000Y-95167000D01*
X190490000Y-95156000D01*
X190483000Y-95145000D01*
X190477000Y-95133000D01*
X190472000Y-95122000D01*
X190467000Y-95110000D01*
X190462000Y-95097000D01*
X190459000Y-95085000D01*
X190455000Y-95072000D01*
X190453000Y-95059000D01*
X190451000Y-95046000D01*
X190450000Y-95033000D01*
X190450000Y-95020000D01*
X190450000Y-94720000D01*
X190450000Y-94707000D01*
X190451000Y-94694000D01*
X190453000Y-94681000D01*
X190455000Y-94668000D01*
X190459000Y-94655000D01*
X190462000Y-94643000D01*
X190467000Y-94630000D01*
X190472000Y-94618000D01*
X190477000Y-94607000D01*
X190483000Y-94595000D01*
X190490000Y-94584000D01*
X190498000Y-94573000D01*
X190506000Y-94563000D01*
X190514000Y-94553000D01*
X190523000Y-94543000D01*
X190533000Y-94534000D01*
X190543000Y-94526000D01*
X190553000Y-94518000D01*
X190564000Y-94510000D01*
X190575000Y-94503000D01*
X190587000Y-94497000D01*
X190598000Y-94492000D01*
X190610000Y-94487000D01*
X190623000Y-94482000D01*
X190635000Y-94479000D01*
X190648000Y-94475000D01*
X190661000Y-94473000D01*
X190674000Y-94471000D01*
X190687000Y-94470000D01*
X190700000Y-94470000D01*
X191000000Y-94470000D01*
X191013000Y-94470000D01*
X191026000Y-94471000D01*
G37*
X191026000Y-95871000D02*
X191039000Y-95873000D01*
X191052000Y-95875000D01*
X191065000Y-95879000D01*
X191077000Y-95882000D01*
X191090000Y-95887000D01*
X191102000Y-95892000D01*
X191113000Y-95897000D01*
X191125000Y-95903000D01*
X191136000Y-95910000D01*
X191147000Y-95918000D01*
X191157000Y-95926000D01*
X191167000Y-95934000D01*
X191177000Y-95943000D01*
X191186000Y-95953000D01*
X191194000Y-95963000D01*
X191202000Y-95973000D01*
X191210000Y-95984000D01*
X191217000Y-95995000D01*
X191223000Y-96007000D01*
X191228000Y-96018000D01*
X191233000Y-96030000D01*
X191238000Y-96043000D01*
X191241000Y-96055000D01*
X191245000Y-96068000D01*
X191247000Y-96081000D01*
X191249000Y-96094000D01*
X191250000Y-96107000D01*
X191250000Y-96120000D01*
X191250000Y-96420000D01*
X191250000Y-96433000D01*
X191249000Y-96446000D01*
X191247000Y-96459000D01*
X191245000Y-96472000D01*
X191241000Y-96485000D01*
X191238000Y-96497000D01*
X191233000Y-96510000D01*
X191228000Y-96522000D01*
X191223000Y-96533000D01*
X191217000Y-96545000D01*
X191210000Y-96556000D01*
X191202000Y-96567000D01*
X191194000Y-96577000D01*
X191186000Y-96587000D01*
X191177000Y-96597000D01*
X191167000Y-96606000D01*
X191157000Y-96614000D01*
X191147000Y-96622000D01*
X191136000Y-96630000D01*
X191125000Y-96637000D01*
X191113000Y-96643000D01*
X191102000Y-96648000D01*
X191090000Y-96653000D01*
X191077000Y-96658000D01*
X191065000Y-96661000D01*
X191052000Y-96665000D01*
X191039000Y-96667000D01*
X191026000Y-96669000D01*
X191013000Y-96670000D01*
X191000000Y-96670000D01*
X190700000Y-96670000D01*
X190687000Y-96670000D01*
X190674000Y-96669000D01*
X190661000Y-96667000D01*
X190648000Y-96665000D01*
X190635000Y-96661000D01*
X190623000Y-96658000D01*
X190610000Y-96653000D01*
X190598000Y-96648000D01*
X190587000Y-96643000D01*
X190575000Y-96637000D01*
X190564000Y-96630000D01*
X190553000Y-96622000D01*
X190543000Y-96614000D01*
X190533000Y-96606000D01*
X190523000Y-96597000D01*
X190514000Y-96587000D01*
X190506000Y-96577000D01*
X190498000Y-96567000D01*
X190490000Y-96556000D01*
X190483000Y-96545000D01*
X190477000Y-96533000D01*
X190472000Y-96522000D01*
X190467000Y-96510000D01*
X190462000Y-96497000D01*
X190459000Y-96485000D01*
X190455000Y-96472000D01*
X190453000Y-96459000D01*
X190451000Y-96446000D01*
X190450000Y-96433000D01*
X190450000Y-96420000D01*
X190450000Y-96120000D01*
X190450000Y-96107000D01*
X190451000Y-96094000D01*
X190453000Y-96081000D01*
X190455000Y-96068000D01*
X190459000Y-96055000D01*
X190462000Y-96043000D01*
X190467000Y-96030000D01*
X190472000Y-96018000D01*
X190477000Y-96007000D01*
X190483000Y-95995000D01*
X190490000Y-95984000D01*
X190498000Y-95973000D01*
X190506000Y-95963000D01*
X190514000Y-95953000D01*
X190523000Y-95943000D01*
X190533000Y-95934000D01*
X190543000Y-95926000D01*
X190553000Y-95918000D01*
X190564000Y-95910000D01*
X190575000Y-95903000D01*
X190587000Y-95897000D01*
X190598000Y-95892000D01*
X190610000Y-95887000D01*
X190623000Y-95882000D01*
X190635000Y-95879000D01*
X190648000Y-95875000D01*
X190661000Y-95873000D01*
X190674000Y-95871000D01*
X190687000Y-95870000D01*
X190700000Y-95870000D01*
X191000000Y-95870000D01*
X191013000Y-95870000D01*
X191026000Y-95871000D01*
G36*
X191026000Y-95871000D02*
G01*
X191039000Y-95873000D01*
X191052000Y-95875000D01*
X191065000Y-95879000D01*
X191077000Y-95882000D01*
X191090000Y-95887000D01*
X191102000Y-95892000D01*
X191113000Y-95897000D01*
X191125000Y-95903000D01*
X191136000Y-95910000D01*
X191147000Y-95918000D01*
X191157000Y-95926000D01*
X191167000Y-95934000D01*
X191177000Y-95943000D01*
X191186000Y-95953000D01*
X191194000Y-95963000D01*
X191202000Y-95973000D01*
X191210000Y-95984000D01*
X191217000Y-95995000D01*
X191223000Y-96007000D01*
X191228000Y-96018000D01*
X191233000Y-96030000D01*
X191238000Y-96043000D01*
X191241000Y-96055000D01*
X191245000Y-96068000D01*
X191247000Y-96081000D01*
X191249000Y-96094000D01*
X191250000Y-96107000D01*
X191250000Y-96120000D01*
X191250000Y-96420000D01*
X191250000Y-96433000D01*
X191249000Y-96446000D01*
X191247000Y-96459000D01*
X191245000Y-96472000D01*
X191241000Y-96485000D01*
X191238000Y-96497000D01*
X191233000Y-96510000D01*
X191228000Y-96522000D01*
X191223000Y-96533000D01*
X191217000Y-96545000D01*
X191210000Y-96556000D01*
X191202000Y-96567000D01*
X191194000Y-96577000D01*
X191186000Y-96587000D01*
X191177000Y-96597000D01*
X191167000Y-96606000D01*
X191157000Y-96614000D01*
X191147000Y-96622000D01*
X191136000Y-96630000D01*
X191125000Y-96637000D01*
X191113000Y-96643000D01*
X191102000Y-96648000D01*
X191090000Y-96653000D01*
X191077000Y-96658000D01*
X191065000Y-96661000D01*
X191052000Y-96665000D01*
X191039000Y-96667000D01*
X191026000Y-96669000D01*
X191013000Y-96670000D01*
X191000000Y-96670000D01*
X190700000Y-96670000D01*
X190687000Y-96670000D01*
X190674000Y-96669000D01*
X190661000Y-96667000D01*
X190648000Y-96665000D01*
X190635000Y-96661000D01*
X190623000Y-96658000D01*
X190610000Y-96653000D01*
X190598000Y-96648000D01*
X190587000Y-96643000D01*
X190575000Y-96637000D01*
X190564000Y-96630000D01*
X190553000Y-96622000D01*
X190543000Y-96614000D01*
X190533000Y-96606000D01*
X190523000Y-96597000D01*
X190514000Y-96587000D01*
X190506000Y-96577000D01*
X190498000Y-96567000D01*
X190490000Y-96556000D01*
X190483000Y-96545000D01*
X190477000Y-96533000D01*
X190472000Y-96522000D01*
X190467000Y-96510000D01*
X190462000Y-96497000D01*
X190459000Y-96485000D01*
X190455000Y-96472000D01*
X190453000Y-96459000D01*
X190451000Y-96446000D01*
X190450000Y-96433000D01*
X190450000Y-96420000D01*
X190450000Y-96120000D01*
X190450000Y-96107000D01*
X190451000Y-96094000D01*
X190453000Y-96081000D01*
X190455000Y-96068000D01*
X190459000Y-96055000D01*
X190462000Y-96043000D01*
X190467000Y-96030000D01*
X190472000Y-96018000D01*
X190477000Y-96007000D01*
X190483000Y-95995000D01*
X190490000Y-95984000D01*
X190498000Y-95973000D01*
X190506000Y-95963000D01*
X190514000Y-95953000D01*
X190523000Y-95943000D01*
X190533000Y-95934000D01*
X190543000Y-95926000D01*
X190553000Y-95918000D01*
X190564000Y-95910000D01*
X190575000Y-95903000D01*
X190587000Y-95897000D01*
X190598000Y-95892000D01*
X190610000Y-95887000D01*
X190623000Y-95882000D01*
X190635000Y-95879000D01*
X190648000Y-95875000D01*
X190661000Y-95873000D01*
X190674000Y-95871000D01*
X190687000Y-95870000D01*
X190700000Y-95870000D01*
X191000000Y-95870000D01*
X191013000Y-95870000D01*
X191026000Y-95871000D01*
G37*
%TO.C,U4*%
X211680000Y-119510000D02*
X210920000Y-119510000D01*
X210920000Y-119090000D01*
X211680000Y-119090000D01*
X211680000Y-119510000D01*
G36*
X211680000Y-119510000D02*
G01*
X210920000Y-119510000D01*
X210920000Y-119090000D01*
X211680000Y-119090000D01*
X211680000Y-119510000D01*
G37*
X211680000Y-120010000D02*
X210920000Y-120010000D01*
X210920000Y-119590000D01*
X211680000Y-119590000D01*
X211680000Y-120010000D01*
G36*
X211680000Y-120010000D02*
G01*
X210920000Y-120010000D01*
X210920000Y-119590000D01*
X211680000Y-119590000D01*
X211680000Y-120010000D01*
G37*
X211680000Y-120510000D02*
X210920000Y-120510000D01*
X210920000Y-120090000D01*
X211680000Y-120090000D01*
X211680000Y-120510000D01*
G36*
X211680000Y-120510000D02*
G01*
X210920000Y-120510000D01*
X210920000Y-120090000D01*
X211680000Y-120090000D01*
X211680000Y-120510000D01*
G37*
X211680000Y-121010000D02*
X210920000Y-121010000D01*
X210920000Y-120590000D01*
X211680000Y-120590000D01*
X211680000Y-121010000D01*
G36*
X211680000Y-121010000D02*
G01*
X210920000Y-121010000D01*
X210920000Y-120590000D01*
X211680000Y-120590000D01*
X211680000Y-121010000D01*
G37*
X213150000Y-119510000D02*
X212390000Y-119510000D01*
X212390000Y-119090000D01*
X213150000Y-119090000D01*
X213150000Y-119510000D01*
G36*
X213150000Y-119510000D02*
G01*
X212390000Y-119510000D01*
X212390000Y-119090000D01*
X213150000Y-119090000D01*
X213150000Y-119510000D01*
G37*
X213150000Y-120010000D02*
X212390000Y-120010000D01*
X212390000Y-119590000D01*
X213150000Y-119590000D01*
X213150000Y-120010000D01*
G36*
X213150000Y-120010000D02*
G01*
X212390000Y-120010000D01*
X212390000Y-119590000D01*
X213150000Y-119590000D01*
X213150000Y-120010000D01*
G37*
X213150000Y-120510000D02*
X212390000Y-120510000D01*
X212390000Y-120090000D01*
X213150000Y-120090000D01*
X213150000Y-120510000D01*
G36*
X213150000Y-120510000D02*
G01*
X212390000Y-120510000D01*
X212390000Y-120090000D01*
X213150000Y-120090000D01*
X213150000Y-120510000D01*
G37*
X213150000Y-121010000D02*
X212390000Y-121010000D01*
X212390000Y-120590000D01*
X213150000Y-120590000D01*
X213150000Y-121010000D01*
G36*
X213150000Y-121010000D02*
G01*
X212390000Y-121010000D01*
X212390000Y-120590000D01*
X213150000Y-120590000D01*
X213150000Y-121010000D01*
G37*
%TD*%
D12*
%TO.C,J12*%
X172070000Y-79910000D03*
D13*
X172070000Y-82450000D03*
X169530000Y-79910000D03*
X169530000Y-82450000D03*
X166990000Y-79910000D03*
X166990000Y-82450000D03*
X164450000Y-79910000D03*
X164450000Y-82450000D03*
%TD*%
D14*
%TO.C,U1*%
X182500000Y-110000000D03*
X182500000Y-110500000D03*
X182500000Y-111000000D03*
X182500000Y-111500000D03*
X182500000Y-112000000D03*
X182500000Y-112500000D03*
X182500000Y-113000000D03*
X182500000Y-113500000D03*
X182500000Y-114000000D03*
X182500000Y-114500000D03*
X182500000Y-115000000D03*
X182500000Y-115500000D03*
D15*
X183912500Y-116912500D03*
X184412500Y-116912500D03*
X184912500Y-116912500D03*
X185412500Y-116912500D03*
X185912500Y-116912500D03*
X186412500Y-116912500D03*
X186912500Y-116912500D03*
X187412500Y-116912500D03*
X187912500Y-116912500D03*
X188412500Y-116912500D03*
X188912500Y-116912500D03*
X189412500Y-116912500D03*
D14*
X190825000Y-115500000D03*
X190825000Y-115000000D03*
X190825000Y-114500000D03*
X190825000Y-114000000D03*
X190825000Y-113500000D03*
X190825000Y-113000000D03*
X190825000Y-112500000D03*
X190825000Y-112000000D03*
X190825000Y-111500000D03*
X190825000Y-111000000D03*
X190825000Y-110500000D03*
X190825000Y-110000000D03*
D15*
X189412500Y-108587500D03*
X188912500Y-108587500D03*
X188412500Y-108587500D03*
X187912500Y-108587500D03*
X187412500Y-108587500D03*
X186912500Y-108587500D03*
X186412500Y-108587500D03*
X185912500Y-108587500D03*
X185412500Y-108587500D03*
X184912500Y-108587500D03*
X184412500Y-108587500D03*
X183912500Y-108587500D03*
%TD*%
D16*
%TO.C,D1*%
X197300000Y-96754004D03*
X197300000Y-90500000D03*
%TD*%
D17*
%TO.C,J4*%
X145000000Y-121000000D03*
D18*
X145000000Y-119000000D03*
%TD*%
D19*
%TO.C,C40*%
X195800000Y-139350000D03*
X195800000Y-136400000D03*
%TD*%
D20*
%TO.C,J14*%
X179500000Y-142450000D03*
D21*
X181500000Y-142450000D03*
X183500000Y-142450000D03*
X185500000Y-142450000D03*
X187500000Y-142450000D03*
X189500000Y-142450000D03*
X191500000Y-142450000D03*
X193500000Y-142450000D03*
X195500000Y-142450000D03*
%TD*%
D19*
%TO.C,C41*%
X193000000Y-139350000D03*
X193000000Y-136400000D03*
%TD*%
D22*
%TO.C,R41*%
X156065000Y-91740000D03*
X158990000Y-91740000D03*
%TD*%
D19*
%TO.C,C42*%
X190200000Y-139350000D03*
X190200000Y-136400000D03*
%TD*%
D23*
%TO.C,C15*%
X202000000Y-94187500D03*
X202000000Y-97137500D03*
%TD*%
D24*
%TO.C,R39*%
X165600000Y-89250000D03*
X162675000Y-89250000D03*
%TD*%
D25*
%TO.C,SW1*%
X161000000Y-134200000D03*
X161000000Y-127000000D03*
X158000000Y-134200000D03*
X158000000Y-127000000D03*
%TD*%
D26*
%TO.C,L3*%
X215990000Y-127440000D03*
X214420000Y-127440000D03*
%TD*%
D27*
%TO.C,D3*%
X203800000Y-139400000D03*
X203800000Y-136600000D03*
%TD*%
D28*
%TO.C,R5*%
X219060000Y-94600000D03*
X219060000Y-97525000D03*
%TD*%
%TO.C,R11*%
X223350000Y-119280000D03*
X223350000Y-122205000D03*
%TD*%
D27*
%TO.C,D5*%
X206400000Y-139400000D03*
X206400000Y-136600000D03*
%TD*%
D28*
%TO.C,R35*%
X203800000Y-141275000D03*
X203800000Y-144200000D03*
%TD*%
D29*
%TO.C,RV1*%
X218310000Y-103710000D03*
D30*
X219310000Y-100460000D03*
D29*
X220310000Y-103710000D03*
%TD*%
D24*
%TO.C,R4*%
X214230000Y-104180000D03*
X211305000Y-104180000D03*
%TD*%
D31*
%TO.C,D4*%
X170580000Y-92450000D03*
X170580000Y-93750000D03*
X172580000Y-93100000D03*
%TD*%
D32*
%TO.C,C20*%
X161017500Y-123860000D03*
X158067500Y-123860000D03*
%TD*%
D20*
%TO.C,J9*%
X163800000Y-142450000D03*
D21*
X165800000Y-142450000D03*
%TD*%
D23*
%TO.C,C35*%
X212735000Y-113980000D03*
X212735000Y-116930000D03*
%TD*%
%TO.C,C37*%
X204540000Y-120350000D03*
X204540000Y-123300000D03*
%TD*%
D28*
%TO.C,R33*%
X201200000Y-141275000D03*
X201200000Y-144200000D03*
%TD*%
D22*
%TO.C,R40*%
X156005000Y-89190000D03*
X158930000Y-89190000D03*
%TD*%
D33*
%TO.C,X1*%
X164100000Y-108400000D03*
X164100000Y-105900000D03*
%TD*%
D32*
%TO.C,C25*%
X167230000Y-102570000D03*
X164280000Y-102570000D03*
%TD*%
D34*
%TO.C,J3*%
X229000000Y-100500000D03*
D18*
X229000000Y-102500000D03*
%TD*%
D35*
%TO.C,H3*%
X147600000Y-133000000D03*
%TD*%
D23*
%TO.C,C38*%
X207150000Y-120350000D03*
X207150000Y-123300000D03*
%TD*%
D36*
%TO.C,Z3*%
X163562500Y-94200000D03*
X163562500Y-97700000D03*
%TD*%
D37*
%TO.C,IC2*%
X208440000Y-94180000D03*
X208440000Y-94830000D03*
X208440000Y-95480000D03*
X208440000Y-96130000D03*
X208440000Y-96780000D03*
X208440000Y-97430000D03*
X208440000Y-98080000D03*
X208440000Y-98730000D03*
X214316000Y-98730000D03*
X214316000Y-98080000D03*
X214316000Y-97430000D03*
X214316000Y-96780000D03*
X214316000Y-96130000D03*
X214316000Y-95480000D03*
X214316000Y-94830000D03*
X214316000Y-94180000D03*
D38*
X211378000Y-96455000D03*
%TD*%
D28*
%TO.C,R10*%
X215425000Y-114010000D03*
X215425000Y-116935000D03*
%TD*%
D39*
%TO.C,X2*%
X167826000Y-110424000D03*
X169176000Y-110424000D03*
X169176000Y-109374000D03*
X167826000Y-109374000D03*
%TD*%
D25*
%TO.C,SW2*%
X167050000Y-134200000D03*
X167050000Y-127000000D03*
X164050000Y-134200000D03*
X164050000Y-127000000D03*
%TD*%
%TO.C,SW3*%
X172925000Y-134200000D03*
X172925000Y-127000000D03*
X169925000Y-134200000D03*
X169925000Y-127000000D03*
%TD*%
D32*
%TO.C,C22*%
X172900000Y-123400000D03*
X169950000Y-123400000D03*
%TD*%
D29*
%TO.C,RV2*%
X221340000Y-115760000D03*
D30*
X222340000Y-112510000D03*
D29*
X223340000Y-115760000D03*
%TD*%
D22*
%TO.C,R7*%
X217370000Y-107330000D03*
X220295000Y-107330000D03*
%TD*%
D40*
%TO.C,C12*%
X167776000Y-112574000D03*
X170726000Y-112574000D03*
%TD*%
D23*
%TO.C,C34*%
X215980000Y-122050000D03*
X215980000Y-125000000D03*
%TD*%
D20*
%TO.C,J8*%
X211700000Y-142450000D03*
D21*
X213700000Y-142450000D03*
%TD*%
D22*
%TO.C,R12*%
X167235000Y-99420000D03*
X170160000Y-99420000D03*
%TD*%
D23*
%TO.C,C11*%
X161400000Y-105900000D03*
X161400000Y-108850000D03*
%TD*%
D36*
%TO.C,Z4*%
X158100000Y-94100000D03*
X158100000Y-97600000D03*
%TD*%
D24*
%TO.C,R37*%
X160962500Y-137000000D03*
X158037500Y-137000000D03*
%TD*%
D17*
%TO.C,J5*%
X145000000Y-102000000D03*
D18*
X145000000Y-100000000D03*
%TD*%
D40*
%TO.C,C39*%
X215350000Y-119580000D03*
X218300000Y-119580000D03*
%TD*%
D17*
%TO.C,J6*%
X145000000Y-111600000D03*
D18*
X145000000Y-109600000D03*
%TD*%
D27*
%TO.C,D2*%
X201200000Y-139400000D03*
X201200000Y-136600000D03*
%TD*%
D28*
%TO.C,R2*%
X204600000Y-94175000D03*
X204600000Y-97100000D03*
%TD*%
D41*
%TO.C,U3*%
X177540000Y-99380000D03*
X177540000Y-98110000D03*
X177540000Y-96840000D03*
X177540000Y-95570000D03*
X172590000Y-95570000D03*
X172590000Y-96840000D03*
X172590000Y-98110000D03*
X172590000Y-99380000D03*
%TD*%
D34*
%TO.C,J7*%
X229000000Y-110000000D03*
D18*
X229000000Y-112000000D03*
%TD*%
D22*
%TO.C,R38*%
X162675000Y-91800000D03*
X165600000Y-91800000D03*
%TD*%
D42*
%TO.C,D6*%
X208786000Y-109050000D03*
D43*
X206500000Y-115700000D03*
D42*
X204214000Y-109050000D03*
%TD*%
D44*
%TO.C,C17*%
X218020000Y-91240000D03*
X218020000Y-85840000D03*
%TD*%
D24*
%TO.C,R42*%
X161005000Y-121040000D03*
X158080000Y-121040000D03*
%TD*%
D28*
%TO.C,R3*%
X204620000Y-99225000D03*
X204620000Y-102150000D03*
%TD*%
D24*
%TO.C,R43*%
X167012500Y-137200000D03*
X164087500Y-137200000D03*
%TD*%
D22*
%TO.C,R13*%
X167235000Y-96820000D03*
X170160000Y-96820000D03*
%TD*%
D24*
%TO.C,R46*%
X172887500Y-120700000D03*
X169962500Y-120700000D03*
%TD*%
D35*
%TO.C,H2*%
X226100000Y-90150000D03*
%TD*%
D23*
%TO.C,C36*%
X218030000Y-113980000D03*
X218030000Y-116930000D03*
%TD*%
D24*
%TO.C,R44*%
X167012500Y-120800000D03*
X164087500Y-120800000D03*
%TD*%
D28*
%TO.C,R36*%
X206400000Y-141275000D03*
X206400000Y-144200000D03*
%TD*%
D34*
%TO.C,J10*%
X229000000Y-119500000D03*
D18*
X229000000Y-121500000D03*
%TD*%
D35*
%TO.C,H1*%
X147600000Y-90150000D03*
%TD*%
D23*
%TO.C,C10*%
X164100000Y-110450000D03*
X164100000Y-113400000D03*
%TD*%
D32*
%TO.C,C19*%
X214245000Y-101500000D03*
X211295000Y-101500000D03*
%TD*%
D35*
%TO.C,H4*%
X226100000Y-133100000D03*
%TD*%
D40*
%TO.C,C13*%
X167776000Y-115274000D03*
X170726000Y-115274000D03*
%TD*%
D32*
%TO.C,C21*%
X167025000Y-123500000D03*
X164075000Y-123500000D03*
%TD*%
D24*
%TO.C,R45*%
X172887500Y-137100000D03*
X169962500Y-137100000D03*
%TD*%
D45*
%TO.C,J15*%
X189207500Y-131500000D03*
D46*
X189207500Y-128960000D03*
X186667500Y-131500000D03*
X186667500Y-128960000D03*
X184127500Y-131500000D03*
X184127500Y-128960000D03*
%TD*%
D20*
%TO.C,J11*%
X208600000Y-79500000D03*
D21*
X210600000Y-79500000D03*
X212600000Y-79500000D03*
X214600000Y-79500000D03*
%TD*%
D47*
X162160000Y-83810000D03*
X162140000Y-84880000D03*
X160450000Y-84810000D03*
D48*
X156860000Y-78510000D03*
X175780000Y-141790000D03*
X181630000Y-128460000D03*
D49*
X181880000Y-139930000D03*
X203930000Y-91960000D03*
X188240000Y-111520000D03*
D48*
X194205000Y-114525000D03*
X194400000Y-118550000D03*
D49*
X184850000Y-136180000D03*
X183750000Y-135000000D03*
X203260000Y-87630000D03*
X214830000Y-90250000D03*
D48*
X199370000Y-100300000D03*
X200150000Y-100300000D03*
X200960000Y-100300000D03*
D49*
X191110000Y-99080000D03*
X219890000Y-116020000D03*
X221410000Y-95950000D03*
X212280000Y-84210000D03*
D48*
X188345000Y-119845000D03*
X189300000Y-119800000D03*
D49*
X184580000Y-111780000D03*
D48*
X220880000Y-88520000D03*
X208240000Y-89650000D03*
X207420000Y-102180000D03*
X202900000Y-103760000D03*
X197670000Y-106960000D03*
X207780000Y-104560000D03*
D47*
X214930000Y-107090000D03*
X209120000Y-102260000D03*
D49*
X159910000Y-99700000D03*
D48*
X225290000Y-94680000D03*
X215680000Y-93190000D03*
X204630000Y-90160000D03*
X195350000Y-87830000D03*
X193490000Y-92580000D03*
D49*
X191720000Y-130710000D03*
X201110000Y-134870000D03*
X225390000Y-112380000D03*
X218030000Y-112320000D03*
X210360000Y-115140000D03*
X212030000Y-126650000D03*
D48*
X227840000Y-113740000D03*
D49*
X225660000Y-84380000D03*
X179470000Y-96250000D03*
X174970000Y-91890000D03*
D48*
X178350000Y-103490000D03*
X177510000Y-102330000D03*
X201190000Y-118450000D03*
X184000000Y-124500000D03*
D47*
X228900000Y-145000000D03*
X146500000Y-78500000D03*
X221100000Y-145000000D03*
X201700000Y-130500000D03*
X204800000Y-127300000D03*
X199340000Y-126340000D03*
X225400000Y-78700000D03*
X146000000Y-144500000D03*
X143500000Y-125000000D03*
X172710000Y-112540000D03*
X173050000Y-107290000D03*
X159750000Y-113970000D03*
X230380000Y-96750000D03*
X172710000Y-115040000D03*
X175280000Y-79270000D03*
X223700000Y-145000000D03*
X223200000Y-78700000D03*
X165160000Y-100210000D03*
X221300000Y-78700000D03*
X199240000Y-124140000D03*
X184600000Y-86800000D03*
D48*
X169150000Y-112200000D03*
D47*
X226300000Y-145000000D03*
X162250000Y-116050000D03*
X206900000Y-127300000D03*
X171550000Y-107290000D03*
X227700000Y-78700000D03*
X185840000Y-82580000D03*
D49*
X179790000Y-118610000D03*
D47*
X159750000Y-116050000D03*
X192630000Y-94540000D03*
X199240000Y-121940000D03*
X163600000Y-95900000D03*
X161050000Y-94250000D03*
X154500000Y-144500000D03*
X144700000Y-78500000D03*
X148600000Y-144500000D03*
X229300000Y-116390000D03*
X151500000Y-144500000D03*
X150900000Y-78500000D03*
X143520000Y-128890000D03*
X148600000Y-78500000D03*
X143500000Y-127000000D03*
D49*
X191390000Y-83080000D03*
D47*
X229330000Y-115050000D03*
X155550000Y-119000000D03*
X206140000Y-87400000D03*
X158090000Y-87070000D03*
X218180000Y-82680000D03*
X227460000Y-97190000D03*
X175965000Y-138005000D03*
X226530000Y-102050000D03*
D48*
X157030000Y-142270000D03*
X180990000Y-109250000D03*
D47*
X208440000Y-91747500D03*
X149800000Y-96810000D03*
D48*
X181900000Y-93700000D03*
X179530000Y-99740000D03*
X194530000Y-82600000D03*
X183850000Y-105150000D03*
X186760000Y-104720000D03*
X183470719Y-104445621D03*
X190600000Y-91300000D03*
X180500000Y-95000000D03*
X200005000Y-79065000D03*
X186760000Y-103790000D03*
X166900000Y-118100000D03*
X161000000Y-118700000D03*
X168600000Y-121700000D03*
X175000000Y-123500000D03*
X197750000Y-120550000D03*
X176900000Y-116000000D03*
X178090000Y-107930000D03*
X201660000Y-105010000D03*
X196200000Y-110500000D03*
X197460000Y-115600000D03*
X195700000Y-111700000D03*
X174430000Y-140890000D03*
X154770000Y-111080000D03*
X196260000Y-112510000D03*
X169820000Y-89510000D03*
X174650000Y-125850000D03*
X184790000Y-103600000D03*
X178040000Y-116630000D03*
X174400000Y-122100000D03*
X192500000Y-124600000D03*
X198965000Y-131065000D03*
X181700000Y-101500000D03*
D47*
X192060000Y-97530000D03*
D49*
X225280000Y-108740000D03*
D48*
X189010000Y-98790000D03*
X177400000Y-128280000D03*
X180600000Y-138400000D03*
X183100000Y-125600000D03*
X186200000Y-124500000D03*
D49*
X187000000Y-138000000D03*
X195700000Y-130700000D03*
D48*
X188750000Y-122800000D03*
X200600000Y-119600000D03*
X179700000Y-135000000D03*
X190700000Y-126700000D03*
X179720000Y-108130000D03*
X160900000Y-98600000D03*
X173581161Y-103318839D03*
X192000000Y-105400000D03*
X154730000Y-86670000D03*
X188700000Y-105500000D03*
X183960000Y-101400000D03*
X165600000Y-93560000D03*
X179510000Y-93100000D03*
X179355000Y-122445000D03*
D49*
X156440000Y-100000000D03*
D48*
X193300000Y-117960000D03*
X195160000Y-109190000D03*
X194659618Y-109840382D03*
X186500000Y-113900000D03*
X199390000Y-101360000D03*
X200240000Y-101360000D03*
X201010000Y-101360000D03*
M02*
