%TF.GenerationSoftware,KiCad,Pcbnew,9.0.0*%
%TF.CreationDate,2025-03-22T00:06:51+01:00*%
%TF.ProjectId,steering_wheel_unit,73746565-7269-46e6-975f-776865656c5f,rev?*%
%TF.SameCoordinates,Original*%
%TF.FileFunction,Profile,NP*%
%FSLAX46Y46*%
G04 Gerber Fmt 4.6, Leading zero omitted, Abs format (unit mm)*
G04 Created by KiCad (PCBNEW 9.0.0) date 2025-03-22 00:06:51*
%MOMM*%
%LPD*%
G01*
G04 APERTURE LIST*
%TA.AperFunction,Profile*%
%ADD10C,0.050000*%
%TD*%
%TA.AperFunction,Profile*%
%ADD11C,0.010000*%
%TD*%
G04 APERTURE END LIST*
D10*
X141850000Y-76600000D02*
X231850000Y-76600000D01*
X231850000Y-146600000D01*
X141850000Y-146600000D01*
X141850000Y-76600000D01*
D11*
%TO.C,J2*%
X184150000Y-94720000D02*
X184150000Y-95020000D01*
X184150000Y-96120000D02*
X184150000Y-96420000D01*
X184200000Y-95070000D02*
X184500000Y-95070000D01*
X184200000Y-96470000D02*
X184500000Y-96470000D01*
X184500000Y-94670000D02*
X184200000Y-94670000D01*
X184500000Y-96070000D02*
X184200000Y-96070000D01*
X184550000Y-95020000D02*
X184550000Y-94720000D01*
X184550000Y-96420000D02*
X184550000Y-96120000D01*
X184900000Y-93840000D02*
X184900000Y-93440000D01*
X184900000Y-97700000D02*
X184900000Y-97300000D01*
X184950000Y-93390000D02*
X186250000Y-93390000D01*
X184950000Y-97250000D02*
X186250000Y-97250000D01*
X185100000Y-94720000D02*
X185100000Y-95020000D01*
X185100000Y-96420000D02*
X185100000Y-96120000D01*
X185150000Y-95070000D02*
X185450000Y-95070000D01*
X185150000Y-96070000D02*
X185450000Y-96070000D01*
X185450000Y-94670000D02*
X185150000Y-94670000D01*
X185450000Y-96470000D02*
X185150000Y-96470000D01*
X185500000Y-95020000D02*
X185500000Y-94720000D01*
X185500000Y-96120000D02*
X185500000Y-96420000D01*
X186050000Y-94720000D02*
X186050000Y-95020000D01*
X186050000Y-96420000D02*
X186050000Y-96120000D01*
X186100000Y-95070000D02*
X186400000Y-95070000D01*
X186100000Y-96070000D02*
X186400000Y-96070000D01*
X186250000Y-93890000D02*
X184950000Y-93890000D01*
X186250000Y-97750000D02*
X184950000Y-97750000D01*
X186300000Y-93440000D02*
X186300000Y-93840000D01*
X186300000Y-97300000D02*
X186300000Y-97700000D01*
X186400000Y-94670000D02*
X186100000Y-94670000D01*
X186400000Y-96470000D02*
X186100000Y-96470000D01*
X186450000Y-95020000D02*
X186450000Y-94720000D01*
X186450000Y-96120000D02*
X186450000Y-96420000D01*
X186950000Y-95020000D02*
X186950000Y-94720000D01*
X186950000Y-96120000D02*
X186950000Y-96420000D01*
X187000000Y-94670000D02*
X187300000Y-94670000D01*
X187000000Y-96470000D02*
X187300000Y-96470000D01*
X187300000Y-95070000D02*
X187000000Y-95070000D01*
X187300000Y-96070000D02*
X187000000Y-96070000D01*
X187350000Y-94720000D02*
X187350000Y-95020000D01*
X187350000Y-96420000D02*
X187350000Y-96120000D01*
X187850000Y-94720000D02*
X187850000Y-95020000D01*
X187850000Y-96120000D02*
X187850000Y-96420000D01*
X187900000Y-95070000D02*
X188200000Y-95070000D01*
X187900000Y-96470000D02*
X188200000Y-96470000D01*
X188200000Y-94670000D02*
X187900000Y-94670000D01*
X188200000Y-96070000D02*
X187900000Y-96070000D01*
X188250000Y-95020000D02*
X188250000Y-94720000D01*
X188250000Y-96420000D02*
X188250000Y-96120000D01*
X188750000Y-95020000D02*
X188750000Y-94720000D01*
X188750000Y-96420000D02*
X188750000Y-96120000D01*
X188800000Y-94670000D02*
X189100000Y-94670000D01*
X188800000Y-96070000D02*
X189100000Y-96070000D01*
X188900000Y-93440000D02*
X188900000Y-93840000D01*
X188900000Y-97300000D02*
X188900000Y-97700000D01*
X188950000Y-93890000D02*
X190250000Y-93890000D01*
X188950000Y-97750000D02*
X190250000Y-97750000D01*
X189100000Y-95070000D02*
X188800000Y-95070000D01*
X189100000Y-96470000D02*
X188800000Y-96470000D01*
X189150000Y-94720000D02*
X189150000Y-95020000D01*
X189150000Y-96120000D02*
X189150000Y-96420000D01*
X189700000Y-94720000D02*
X189700000Y-95020000D01*
X189700000Y-96120000D02*
X189700000Y-96420000D01*
X189750000Y-95070000D02*
X190050000Y-95070000D01*
X189750000Y-96470000D02*
X190050000Y-96470000D01*
X190050000Y-94670000D02*
X189750000Y-94670000D01*
X190050000Y-96070000D02*
X189750000Y-96070000D01*
X190100000Y-95020000D02*
X190100000Y-94720000D01*
X190100000Y-96420000D02*
X190100000Y-96120000D01*
X190250000Y-93390000D02*
X188950000Y-93390000D01*
X190250000Y-97250000D02*
X188950000Y-97250000D01*
X190300000Y-93840000D02*
X190300000Y-93440000D01*
X190300000Y-97700000D02*
X190300000Y-97300000D01*
X190650000Y-94720000D02*
X190650000Y-95020000D01*
X190650000Y-96120000D02*
X190650000Y-96420000D01*
X190700000Y-95070000D02*
X191000000Y-95070000D01*
X190700000Y-96470000D02*
X191000000Y-96470000D01*
X191000000Y-94670000D02*
X190700000Y-94670000D01*
X191000000Y-96070000D02*
X190700000Y-96070000D01*
X191050000Y-95020000D02*
X191050000Y-94720000D01*
X191050000Y-96420000D02*
X191050000Y-96120000D01*
X184150000Y-94720000D02*
G75*
G02*
X184200000Y-94670000I50000J0D01*
G01*
X184150000Y-96120000D02*
G75*
G02*
X184200000Y-96070000I50000J0D01*
G01*
X184200000Y-95070000D02*
G75*
G02*
X184150000Y-95020000I0J50000D01*
G01*
X184200000Y-96470000D02*
G75*
G02*
X184150000Y-96420000I0J50000D01*
G01*
X184500000Y-94670000D02*
G75*
G02*
X184550000Y-94720000I0J-50000D01*
G01*
X184500000Y-96070000D02*
G75*
G02*
X184550000Y-96120000I0J-50000D01*
G01*
X184550000Y-95020000D02*
G75*
G02*
X184500000Y-95070000I-50000J0D01*
G01*
X184550000Y-96420000D02*
G75*
G02*
X184500000Y-96470000I-50000J0D01*
G01*
X184900000Y-93440000D02*
G75*
G02*
X184950000Y-93390000I50000J0D01*
G01*
X184900000Y-97300000D02*
G75*
G02*
X184950000Y-97250000I50000J0D01*
G01*
X184950000Y-93890000D02*
G75*
G02*
X184900000Y-93840000I0J50000D01*
G01*
X184950000Y-97750000D02*
G75*
G02*
X184900000Y-97700000I0J50000D01*
G01*
X185100000Y-94720000D02*
G75*
G02*
X185150000Y-94670000I50000J0D01*
G01*
X185100000Y-96120000D02*
G75*
G02*
X185150000Y-96070000I50000J0D01*
G01*
X185150000Y-95070000D02*
G75*
G02*
X185100000Y-95020000I0J50000D01*
G01*
X185150000Y-96470000D02*
G75*
G02*
X185100000Y-96420000I0J50000D01*
G01*
X185450000Y-94670000D02*
G75*
G02*
X185500000Y-94720000I0J-50000D01*
G01*
X185450000Y-96070000D02*
G75*
G02*
X185500000Y-96120000I0J-50000D01*
G01*
X185500000Y-95020000D02*
G75*
G02*
X185450000Y-95070000I-50000J0D01*
G01*
X185500000Y-96420000D02*
G75*
G02*
X185450000Y-96470000I-50000J0D01*
G01*
X186050000Y-94720000D02*
G75*
G02*
X186100000Y-94670000I50000J0D01*
G01*
X186050000Y-96120000D02*
G75*
G02*
X186100000Y-96070000I50000J0D01*
G01*
X186100000Y-95070000D02*
G75*
G02*
X186050000Y-95020000I0J50000D01*
G01*
X186100000Y-96470000D02*
G75*
G02*
X186050000Y-96420000I0J50000D01*
G01*
X186250000Y-93390000D02*
G75*
G02*
X186300000Y-93440000I0J-50000D01*
G01*
X186250000Y-97250000D02*
G75*
G02*
X186300000Y-97300000I0J-50000D01*
G01*
X186300000Y-93840000D02*
G75*
G02*
X186250000Y-93890000I-50000J0D01*
G01*
X186300000Y-97700000D02*
G75*
G02*
X186250000Y-97750000I-50000J0D01*
G01*
X186400000Y-94670000D02*
G75*
G02*
X186450000Y-94720000I0J-50000D01*
G01*
X186400000Y-96070000D02*
G75*
G02*
X186450000Y-96120000I0J-50000D01*
G01*
X186450000Y-95020000D02*
G75*
G02*
X186400000Y-95070000I-50000J0D01*
G01*
X186450000Y-96420000D02*
G75*
G02*
X186400000Y-96470000I-50000J0D01*
G01*
X186950000Y-94720000D02*
G75*
G02*
X187000000Y-94670000I50000J0D01*
G01*
X186950000Y-96120000D02*
G75*
G02*
X187000000Y-96070000I50000J0D01*
G01*
X187000000Y-95070000D02*
G75*
G02*
X186950000Y-95020000I0J50000D01*
G01*
X187000000Y-96470000D02*
G75*
G02*
X186950000Y-96420000I0J50000D01*
G01*
X187300000Y-94670000D02*
G75*
G02*
X187350000Y-94720000I0J-50000D01*
G01*
X187300000Y-96070000D02*
G75*
G02*
X187350000Y-96120000I0J-50000D01*
G01*
X187350000Y-95020000D02*
G75*
G02*
X187300000Y-95070000I-50000J0D01*
G01*
X187350000Y-96420000D02*
G75*
G02*
X187300000Y-96470000I-50000J0D01*
G01*
X187850000Y-94720000D02*
G75*
G02*
X187900000Y-94670000I50001J-1D01*
G01*
X187850000Y-96120000D02*
G75*
G02*
X187900000Y-96070000I50001J-1D01*
G01*
X187900000Y-95070000D02*
G75*
G02*
X187850000Y-95020000I1J50001D01*
G01*
X187900000Y-96470000D02*
G75*
G02*
X187850000Y-96420000I1J50001D01*
G01*
X188200000Y-94670000D02*
G75*
G02*
X188250000Y-94720000I-1J-50001D01*
G01*
X188200000Y-96070000D02*
G75*
G02*
X188250000Y-96120000I-1J-50001D01*
G01*
X188250000Y-95020000D02*
G75*
G02*
X188200000Y-95070000I-50001J1D01*
G01*
X188250000Y-96420000D02*
G75*
G02*
X188200000Y-96470000I-50001J1D01*
G01*
X188750000Y-94720000D02*
G75*
G02*
X188800000Y-94670000I50001J-1D01*
G01*
X188750000Y-96120000D02*
G75*
G02*
X188800000Y-96070000I50001J-1D01*
G01*
X188800000Y-95070000D02*
G75*
G02*
X188750000Y-95020000I1J50001D01*
G01*
X188800000Y-96470000D02*
G75*
G02*
X188750000Y-96420000I1J50001D01*
G01*
X188900000Y-93440000D02*
G75*
G02*
X188950000Y-93390000I50001J-1D01*
G01*
X188900000Y-97300000D02*
G75*
G02*
X188950000Y-97250000I50001J-1D01*
G01*
X188950000Y-93890000D02*
G75*
G02*
X188900000Y-93840000I1J50001D01*
G01*
X188950000Y-97750000D02*
G75*
G02*
X188900000Y-97700000I1J50001D01*
G01*
X189100000Y-94670000D02*
G75*
G02*
X189150000Y-94720000I-1J-50001D01*
G01*
X189100000Y-96070000D02*
G75*
G02*
X189150000Y-96120000I-1J-50001D01*
G01*
X189150000Y-95020000D02*
G75*
G02*
X189100000Y-95070000I-50001J1D01*
G01*
X189150000Y-96420000D02*
G75*
G02*
X189100000Y-96470000I-50001J1D01*
G01*
X189700000Y-94720000D02*
G75*
G02*
X189750000Y-94670000I50001J-1D01*
G01*
X189700000Y-96120000D02*
G75*
G02*
X189750000Y-96070000I50001J-1D01*
G01*
X189750000Y-95070000D02*
G75*
G02*
X189700000Y-95020000I1J50001D01*
G01*
X189750000Y-96470000D02*
G75*
G02*
X189700000Y-96420000I1J50001D01*
G01*
X190050000Y-94670000D02*
G75*
G02*
X190100000Y-94720000I-1J-50001D01*
G01*
X190050000Y-96070000D02*
G75*
G02*
X190100000Y-96120000I-1J-50001D01*
G01*
X190100000Y-95020000D02*
G75*
G02*
X190050000Y-95070000I-50001J1D01*
G01*
X190100000Y-96420000D02*
G75*
G02*
X190050000Y-96470000I-50001J1D01*
G01*
X190250000Y-93390000D02*
G75*
G02*
X190300000Y-93440000I-1J-50001D01*
G01*
X190250000Y-97250000D02*
G75*
G02*
X190300000Y-97300000I-1J-50001D01*
G01*
X190300000Y-93840000D02*
G75*
G02*
X190250000Y-93890000I-50001J1D01*
G01*
X190300000Y-97700000D02*
G75*
G02*
X190250000Y-97750000I-50001J1D01*
G01*
X190650000Y-94720000D02*
G75*
G02*
X190700000Y-94670000I50001J-1D01*
G01*
X190650000Y-96120000D02*
G75*
G02*
X190700000Y-96070000I50001J-1D01*
G01*
X190700000Y-95070000D02*
G75*
G02*
X190650000Y-95020000I1J50001D01*
G01*
X190700000Y-96470000D02*
G75*
G02*
X190650000Y-96420000I1J50001D01*
G01*
X191000000Y-94670000D02*
G75*
G02*
X191050000Y-94720000I-1J-50001D01*
G01*
X191000000Y-96070000D02*
G75*
G02*
X191050000Y-96120000I-1J-50001D01*
G01*
X191050000Y-95020000D02*
G75*
G02*
X191000000Y-95070000I-50001J1D01*
G01*
X191050000Y-96420000D02*
G75*
G02*
X191000000Y-96470000I-50001J1D01*
G01*
%TD*%
M02*
