M48
; DRILL file {KiCad 9.0.0} date 2025-04-02T22:25:58+0200
; FORMAT={-:-/ absolute / metric / decimal}
; #@! TF.CreationDate,2025-04-02T22:25:58+02:00
; #@! TF.GenerationSoftware,Kicad,Pcbnew,9.0.0
; #@! TF.FileFunction,Plated,1,2,PTH
FMAT,2
METRIC
; #@! TA.AperFunction,Plated,PTH,ViaDrill
T1C0.300
; #@! TA.AperFunction,Plated,PTH,ViaDrill
T2C0.400
; #@! TA.AperFunction,Plated,PTH,ViaDrill
T3C0.500
; #@! TA.AperFunction,Plated,PTH,ComponentDrill
T4C0.750
; #@! TA.AperFunction,Plated,PTH,ComponentDrill
T5C1.000
; #@! TA.AperFunction,Plated,PTH,ComponentDrill
T6C1.400
; #@! TA.AperFunction,Plated,PTH,ComponentDrill
T7C3.200
%
G90
G05
T1
X154.73Y-86.67
X154.77Y-111.08
X156.86Y-78.51
X157.03Y-142.27
X158.78Y-102.46
X160.9Y-98.6
X165.6Y-93.56
X169.82Y-89.51
X171.38Y-122.1
X172.74Y-141.08
X173.581Y-103.319
X174.5Y-101.49
X174.65Y-125.85
X175.78Y-141.79
X176.735Y-115.835
X177.4Y-128.28
X177.51Y-102.33
X178.09Y-107.93
X178.18Y-116.63
X178.35Y-103.49
X178.62Y-122.7
X179.51Y-93.1
X179.53Y-99.74
X179.7Y-135.0
X180.5Y-95.0
X180.6Y-138.4
X180.99Y-109.25
X181.14Y-108.2
X181.63Y-128.46
X181.65Y-101.45
X181.9Y-93.7
X183.1Y-125.6
X183.471Y-104.446
X183.85Y-105.15
X184.79Y-103.6
X185.36Y-101.4
X186.2Y-124.5
X186.5Y-113.9
X186.76Y-103.79
X186.76Y-104.72
X188.17Y-98.33
X188.5Y-122.55
X188.7Y-105.5
X189.3Y-119.8
X190.2Y-126.7
X190.6Y-91.3
X191.62Y-119.81
X192.0Y-105.4
X192.5Y-124.6
X193.3Y-119.21
X193.49Y-92.58
X194.205Y-114.525
X194.4Y-120.06
X194.53Y-82.6
X194.66Y-109.84
X195.1Y-87.83
X195.16Y-109.19
X195.7Y-111.7
X196.2Y-110.5
X196.26Y-112.51
X197.46Y-115.6
X197.67Y-106.96
X198.965Y-131.065
X199.96Y-119.6
X200.005Y-79.065
X202.85Y-105.01
X202.9Y-103.76
X204.63Y-90.16
X207.42Y-102.18
X208.815Y-89.075
X209.1Y-104.6
X214.8Y-92.82
X220.0Y-88.52
X221.14Y-126.44
X225.29Y-94.68
T2
X159.91Y-99.7
X171.31Y-110.69
X172.6Y-114.31
X179.79Y-118.61
X184.58Y-111.78
X184.85Y-136.18
X186.13Y-136.13
X187.73Y-133.17
X187.82Y-125.94
X188.24Y-111.52
X190.36Y-140.83
X190.37Y-123.6
X190.82Y-98.79
X192.57Y-133.77
X195.7Y-130.7
X201.11Y-134.87
X203.26Y-87.63
X203.93Y-91.96
X208.92Y-84.44
X210.36Y-115.14
X210.63Y-112.17
X212.03Y-126.65
X214.83Y-90.25
X218.0Y-111.73
X219.89Y-116.02
X221.41Y-95.95
X222.59Y-111.0
X225.39Y-112.38
X225.485Y-108.945
X225.53Y-104.62
X225.66Y-84.38
T3
X143.5Y-125.0
X143.5Y-127.0
X143.52Y-128.89
X143.66Y-94.26
X143.66Y-96.26
X144.7Y-78.5
X146.0Y-144.5
X146.5Y-78.5
X148.6Y-78.5
X148.6Y-144.5
X149.8Y-96.81
X150.9Y-78.5
X151.5Y-144.5
X154.5Y-144.5
X155.55Y-119.0
X158.09Y-87.07
X159.75Y-113.97
X159.75Y-116.05
X160.54Y-142.01
X161.0Y-130.82
X161.01Y-121.9
X161.05Y-94.25
X162.2Y-85.85
X162.25Y-116.05
X163.6Y-95.9
X163.89Y-85.92
X167.06Y-100.76
X168.26Y-141.17
X169.98Y-85.87
X170.53Y-95.38
X171.14Y-119.45
X171.55Y-107.29
X173.05Y-107.29
X175.88Y-103.76
X175.965Y-138.005
X180.91Y-106.88
X184.6Y-86.8
X192.06Y-97.53
X192.36Y-128.84
X192.63Y-94.54
X196.14Y-126.03
X196.42Y-132.35
X197.88Y-142.49
X198.91Y-122.97
X199.01Y-125.17
X200.12Y-101.41
X201.25Y-130.29
X203.46Y-78.2
X205.36Y-78.2
X206.14Y-87.4
X206.59Y-125.19
X206.89Y-129.45
X208.17Y-125.12
X208.44Y-91.748
X208.99Y-129.45
X209.12Y-102.26
X212.03Y-107.09
X213.41Y-107.09
X214.93Y-107.09
X218.18Y-82.68
X221.1Y-145.0
X221.3Y-78.7
X223.2Y-78.7
X223.7Y-145.0
X223.9Y-126.16
X225.4Y-78.7
X225.68Y-126.16
X226.3Y-145.0
X226.53Y-102.05
X227.46Y-97.19
X227.7Y-78.7
X228.9Y-145.0
X229.3Y-116.39
X229.33Y-115.05
X230.64Y-96.32
T4
X145.0Y-100.0
X145.0Y-102.0
X145.0Y-109.6
X145.0Y-111.6
X145.0Y-119.0
X145.0Y-121.0
X163.8Y-142.45
X165.8Y-142.45
X179.5Y-142.45
X181.5Y-142.45
X183.5Y-142.45
X185.5Y-142.45
X187.5Y-142.45
X189.5Y-142.45
X191.5Y-142.45
X193.5Y-142.45
X195.5Y-142.45
X208.6Y-79.5
X210.6Y-79.5
X211.7Y-142.45
X212.6Y-79.5
X213.7Y-142.45
X214.6Y-79.5
X229.0Y-100.5
X229.0Y-102.5
X229.0Y-110.0
X229.0Y-112.0
X229.0Y-119.5
X229.0Y-121.5
T5
X164.45Y-79.91
X164.45Y-82.45
X166.99Y-79.91
X166.99Y-82.45
X169.53Y-79.91
X169.53Y-82.45
X172.07Y-79.91
X172.07Y-82.45
X184.127Y-128.96
X184.127Y-131.5
X186.667Y-128.96
X186.667Y-131.5
X189.207Y-128.96
X189.207Y-131.5
T6
X178.262Y-80.5
X178.262Y-86.0
X182.463Y-80.5
X182.463Y-86.0
X186.662Y-80.5
X186.662Y-86.0
X190.862Y-80.5
X190.862Y-86.0
X195.062Y-80.5
X195.062Y-86.0
T7
X147.55Y-90.1
X147.55Y-133.1
X226.15Y-90.1
X226.15Y-133.1
M30
