%TF.GenerationSoftware,KiCad,Pcbnew,9.0.0*%
%TF.CreationDate,2025-04-02T22:26:08+02:00*%
%TF.ProjectId,steering_wheel_unit,73746565-7269-46e6-975f-776865656c5f,rev?*%
%TF.SameCoordinates,Original*%
%TF.FileFunction,Paste,Top*%
%TF.FilePolarity,Positive*%
%FSLAX46Y46*%
G04 Gerber Fmt 4.6, Leading zero omitted, Abs format (unit mm)*
G04 Created by KiCad (PCBNEW 9.0.0) date 2025-04-02 22:26:08*
%MOMM*%
%LPD*%
G01*
G04 APERTURE LIST*
G04 Aperture macros list*
%AMRoundRect*
0 Rectangle with rounded corners*
0 $1 Rounding radius*
0 $2 $3 $4 $5 $6 $7 $8 $9 X,Y pos of 4 corners*
0 Add a 4 corners polygon primitive as box body*
4,1,4,$2,$3,$4,$5,$6,$7,$8,$9,$2,$3,0*
0 Add four circle primitives for the rounded corners*
1,1,$1+$1,$2,$3*
1,1,$1+$1,$4,$5*
1,1,$1+$1,$6,$7*
1,1,$1+$1,$8,$9*
0 Add four rect primitives between the rounded corners*
20,1,$1+$1,$2,$3,$4,$5,0*
20,1,$1+$1,$4,$5,$6,$7,0*
20,1,$1+$1,$6,$7,$8,$9,0*
20,1,$1+$1,$8,$9,$2,$3,0*%
G04 Aperture macros list end*
%ADD10C,0.100000*%
%ADD11C,0.150000*%
%ADD12C,0.300000*%
%ADD13C,0.400000*%
%ADD14RoundRect,0.250000X0.650000X-0.325000X0.650000X0.325000X-0.650000X0.325000X-0.650000X-0.325000X0*%
%ADD15RoundRect,0.250000X-0.312500X-0.625000X0.312500X-0.625000X0.312500X0.625000X-0.312500X0.625000X0*%
%ADD16R,0.660000X0.320000*%
%ADD17RoundRect,0.250000X-0.650000X0.325000X-0.650000X-0.325000X0.650000X-0.325000X0.650000X0.325000X0*%
%ADD18RoundRect,0.250000X0.312500X0.625000X-0.312500X0.625000X-0.312500X-0.625000X0.312500X-0.625000X0*%
%ADD19R,1.400000X1.600000*%
%ADD20RoundRect,0.135000X0.315000X0.350000X-0.315000X0.350000X-0.315000X-0.350000X0.315000X-0.350000X0*%
%ADD21RoundRect,0.250000X0.625000X-0.375000X0.625000X0.375000X-0.625000X0.375000X-0.625000X-0.375000X0*%
%ADD22RoundRect,0.250000X-0.625000X0.312500X-0.625000X-0.312500X0.625000X-0.312500X0.625000X0.312500X0*%
%ADD23R,1.200000X1.200000*%
%ADD24R,1.600000X1.500000*%
%ADD25RoundRect,0.112500X-0.112500X-0.237500X0.112500X-0.237500X0.112500X0.237500X-0.112500X0.237500X0*%
%ADD26RoundRect,0.250000X-0.325000X-0.650000X0.325000X-0.650000X0.325000X0.650000X-0.325000X0.650000X0*%
%ADD27RoundRect,0.250000X0.325000X0.650000X-0.325000X0.650000X-0.325000X-0.650000X0.325000X-0.650000X0*%
%ADD28R,0.800000X1.150000*%
%ADD29R,1.475000X0.450000*%
%ADD30R,2.460000X3.550000*%
%ADD31R,0.875000X0.775000*%
%ADD32R,0.750000X1.000000*%
%ADD33R,0.750000X0.560000*%
%ADD34R,2.080000X2.880000*%
%ADD35R,2.575000X1.400000*%
%ADD36R,0.600000X1.200000*%
%ADD37R,1.150000X0.800000*%
%ADD38RoundRect,0.075000X-0.662500X-0.075000X0.662500X-0.075000X0.662500X0.075000X-0.662500X0.075000X0*%
%ADD39RoundRect,0.075000X-0.075000X-0.662500X0.075000X-0.662500X0.075000X0.662500X-0.075000X0.662500X0*%
%ADD40RoundRect,0.150000X0.150000X-0.825000X0.150000X0.825000X-0.150000X0.825000X-0.150000X-0.825000X0*%
%ADD41RoundRect,0.250000X0.550000X-1.500000X0.550000X1.500000X-0.550000X1.500000X-0.550000X-1.500000X0*%
%ADD42R,3.200400X2.173999*%
%ADD43RoundRect,0.250000X0.625000X-0.312500X0.625000X0.312500X-0.625000X0.312500X-0.625000X-0.312500X0*%
G04 APERTURE END LIST*
D10*
D11*
X177002200Y-166007200D02*
X285002200Y-166007200D01*
X285002200Y-198007200D01*
X177002200Y-198007200D01*
X177002200Y-166007200D01*
D10*
D11*
X10000000Y-10000000D02*
X287002200Y-10000000D01*
X287002200Y-200007200D01*
X10000000Y-200007200D01*
X10000000Y-10000000D01*
D10*
D11*
X12000000Y-12000000D02*
X285002200Y-12000000D01*
X285002200Y-198007200D01*
X12000000Y-198007200D01*
X12000000Y-12000000D01*
D10*
D11*
X60000000Y-12000000D02*
X60000000Y-10000000D01*
D10*
D11*
X110000000Y-12000000D02*
X110000000Y-10000000D01*
D10*
D11*
X160000000Y-12000000D02*
X160000000Y-10000000D01*
D10*
D11*
X210000000Y-12000000D02*
X210000000Y-10000000D01*
D10*
D11*
X260000000Y-12000000D02*
X260000000Y-10000000D01*
D10*
D11*
X36089160Y-11593604D02*
X35346303Y-11593604D01*
X35717731Y-11593604D02*
X35717731Y-10293604D01*
X35717731Y-10293604D02*
X35593922Y-10479319D01*
X35593922Y-10479319D02*
X35470112Y-10603128D01*
X35470112Y-10603128D02*
X35346303Y-10665033D01*
D10*
D11*
X85346303Y-10417414D02*
X85408207Y-10355509D01*
X85408207Y-10355509D02*
X85532017Y-10293604D01*
X85532017Y-10293604D02*
X85841541Y-10293604D01*
X85841541Y-10293604D02*
X85965350Y-10355509D01*
X85965350Y-10355509D02*
X86027255Y-10417414D01*
X86027255Y-10417414D02*
X86089160Y-10541223D01*
X86089160Y-10541223D02*
X86089160Y-10665033D01*
X86089160Y-10665033D02*
X86027255Y-10850747D01*
X86027255Y-10850747D02*
X85284398Y-11593604D01*
X85284398Y-11593604D02*
X86089160Y-11593604D01*
D10*
D11*
X135284398Y-10293604D02*
X136089160Y-10293604D01*
X136089160Y-10293604D02*
X135655826Y-10788842D01*
X135655826Y-10788842D02*
X135841541Y-10788842D01*
X135841541Y-10788842D02*
X135965350Y-10850747D01*
X135965350Y-10850747D02*
X136027255Y-10912652D01*
X136027255Y-10912652D02*
X136089160Y-11036461D01*
X136089160Y-11036461D02*
X136089160Y-11345985D01*
X136089160Y-11345985D02*
X136027255Y-11469795D01*
X136027255Y-11469795D02*
X135965350Y-11531700D01*
X135965350Y-11531700D02*
X135841541Y-11593604D01*
X135841541Y-11593604D02*
X135470112Y-11593604D01*
X135470112Y-11593604D02*
X135346303Y-11531700D01*
X135346303Y-11531700D02*
X135284398Y-11469795D01*
D10*
D11*
X185965350Y-10726938D02*
X185965350Y-11593604D01*
X185655826Y-10231700D02*
X185346303Y-11160271D01*
X185346303Y-11160271D02*
X186151064Y-11160271D01*
D10*
D11*
X236027255Y-10293604D02*
X235408207Y-10293604D01*
X235408207Y-10293604D02*
X235346303Y-10912652D01*
X235346303Y-10912652D02*
X235408207Y-10850747D01*
X235408207Y-10850747D02*
X235532017Y-10788842D01*
X235532017Y-10788842D02*
X235841541Y-10788842D01*
X235841541Y-10788842D02*
X235965350Y-10850747D01*
X235965350Y-10850747D02*
X236027255Y-10912652D01*
X236027255Y-10912652D02*
X236089160Y-11036461D01*
X236089160Y-11036461D02*
X236089160Y-11345985D01*
X236089160Y-11345985D02*
X236027255Y-11469795D01*
X236027255Y-11469795D02*
X235965350Y-11531700D01*
X235965350Y-11531700D02*
X235841541Y-11593604D01*
X235841541Y-11593604D02*
X235532017Y-11593604D01*
X235532017Y-11593604D02*
X235408207Y-11531700D01*
X235408207Y-11531700D02*
X235346303Y-11469795D01*
D10*
D11*
X285965350Y-10293604D02*
X285717731Y-10293604D01*
X285717731Y-10293604D02*
X285593922Y-10355509D01*
X285593922Y-10355509D02*
X285532017Y-10417414D01*
X285532017Y-10417414D02*
X285408207Y-10603128D01*
X285408207Y-10603128D02*
X285346303Y-10850747D01*
X285346303Y-10850747D02*
X285346303Y-11345985D01*
X285346303Y-11345985D02*
X285408207Y-11469795D01*
X285408207Y-11469795D02*
X285470112Y-11531700D01*
X285470112Y-11531700D02*
X285593922Y-11593604D01*
X285593922Y-11593604D02*
X285841541Y-11593604D01*
X285841541Y-11593604D02*
X285965350Y-11531700D01*
X285965350Y-11531700D02*
X286027255Y-11469795D01*
X286027255Y-11469795D02*
X286089160Y-11345985D01*
X286089160Y-11345985D02*
X286089160Y-11036461D01*
X286089160Y-11036461D02*
X286027255Y-10912652D01*
X286027255Y-10912652D02*
X285965350Y-10850747D01*
X285965350Y-10850747D02*
X285841541Y-10788842D01*
X285841541Y-10788842D02*
X285593922Y-10788842D01*
X285593922Y-10788842D02*
X285470112Y-10850747D01*
X285470112Y-10850747D02*
X285408207Y-10912652D01*
X285408207Y-10912652D02*
X285346303Y-11036461D01*
D10*
D11*
X60000000Y-198007200D02*
X60000000Y-200007200D01*
D10*
D11*
X110000000Y-198007200D02*
X110000000Y-200007200D01*
D10*
D11*
X160000000Y-198007200D02*
X160000000Y-200007200D01*
D10*
D11*
X210000000Y-198007200D02*
X210000000Y-200007200D01*
D10*
D11*
X260000000Y-198007200D02*
X260000000Y-200007200D01*
D10*
D11*
X36089160Y-199600804D02*
X35346303Y-199600804D01*
X35717731Y-199600804D02*
X35717731Y-198300804D01*
X35717731Y-198300804D02*
X35593922Y-198486519D01*
X35593922Y-198486519D02*
X35470112Y-198610328D01*
X35470112Y-198610328D02*
X35346303Y-198672233D01*
D10*
D11*
X85346303Y-198424614D02*
X85408207Y-198362709D01*
X85408207Y-198362709D02*
X85532017Y-198300804D01*
X85532017Y-198300804D02*
X85841541Y-198300804D01*
X85841541Y-198300804D02*
X85965350Y-198362709D01*
X85965350Y-198362709D02*
X86027255Y-198424614D01*
X86027255Y-198424614D02*
X86089160Y-198548423D01*
X86089160Y-198548423D02*
X86089160Y-198672233D01*
X86089160Y-198672233D02*
X86027255Y-198857947D01*
X86027255Y-198857947D02*
X85284398Y-199600804D01*
X85284398Y-199600804D02*
X86089160Y-199600804D01*
D10*
D11*
X135284398Y-198300804D02*
X136089160Y-198300804D01*
X136089160Y-198300804D02*
X135655826Y-198796042D01*
X135655826Y-198796042D02*
X135841541Y-198796042D01*
X135841541Y-198796042D02*
X135965350Y-198857947D01*
X135965350Y-198857947D02*
X136027255Y-198919852D01*
X136027255Y-198919852D02*
X136089160Y-199043661D01*
X136089160Y-199043661D02*
X136089160Y-199353185D01*
X136089160Y-199353185D02*
X136027255Y-199476995D01*
X136027255Y-199476995D02*
X135965350Y-199538900D01*
X135965350Y-199538900D02*
X135841541Y-199600804D01*
X135841541Y-199600804D02*
X135470112Y-199600804D01*
X135470112Y-199600804D02*
X135346303Y-199538900D01*
X135346303Y-199538900D02*
X135284398Y-199476995D01*
D10*
D11*
X185965350Y-198734138D02*
X185965350Y-199600804D01*
X185655826Y-198238900D02*
X185346303Y-199167471D01*
X185346303Y-199167471D02*
X186151064Y-199167471D01*
D10*
D11*
X236027255Y-198300804D02*
X235408207Y-198300804D01*
X235408207Y-198300804D02*
X235346303Y-198919852D01*
X235346303Y-198919852D02*
X235408207Y-198857947D01*
X235408207Y-198857947D02*
X235532017Y-198796042D01*
X235532017Y-198796042D02*
X235841541Y-198796042D01*
X235841541Y-198796042D02*
X235965350Y-198857947D01*
X235965350Y-198857947D02*
X236027255Y-198919852D01*
X236027255Y-198919852D02*
X236089160Y-199043661D01*
X236089160Y-199043661D02*
X236089160Y-199353185D01*
X236089160Y-199353185D02*
X236027255Y-199476995D01*
X236027255Y-199476995D02*
X235965350Y-199538900D01*
X235965350Y-199538900D02*
X235841541Y-199600804D01*
X235841541Y-199600804D02*
X235532017Y-199600804D01*
X235532017Y-199600804D02*
X235408207Y-199538900D01*
X235408207Y-199538900D02*
X235346303Y-199476995D01*
D10*
D11*
X285965350Y-198300804D02*
X285717731Y-198300804D01*
X285717731Y-198300804D02*
X285593922Y-198362709D01*
X285593922Y-198362709D02*
X285532017Y-198424614D01*
X285532017Y-198424614D02*
X285408207Y-198610328D01*
X285408207Y-198610328D02*
X285346303Y-198857947D01*
X285346303Y-198857947D02*
X285346303Y-199353185D01*
X285346303Y-199353185D02*
X285408207Y-199476995D01*
X285408207Y-199476995D02*
X285470112Y-199538900D01*
X285470112Y-199538900D02*
X285593922Y-199600804D01*
X285593922Y-199600804D02*
X285841541Y-199600804D01*
X285841541Y-199600804D02*
X285965350Y-199538900D01*
X285965350Y-199538900D02*
X286027255Y-199476995D01*
X286027255Y-199476995D02*
X286089160Y-199353185D01*
X286089160Y-199353185D02*
X286089160Y-199043661D01*
X286089160Y-199043661D02*
X286027255Y-198919852D01*
X286027255Y-198919852D02*
X285965350Y-198857947D01*
X285965350Y-198857947D02*
X285841541Y-198796042D01*
X285841541Y-198796042D02*
X285593922Y-198796042D01*
X285593922Y-198796042D02*
X285470112Y-198857947D01*
X285470112Y-198857947D02*
X285408207Y-198919852D01*
X285408207Y-198919852D02*
X285346303Y-199043661D01*
D10*
D11*
X10000000Y-60000000D02*
X12000000Y-60000000D01*
D10*
D11*
X10000000Y-110000000D02*
X12000000Y-110000000D01*
D10*
D11*
X10000000Y-160000000D02*
X12000000Y-160000000D01*
D10*
D11*
X10690476Y-35222176D02*
X11309523Y-35222176D01*
X10566666Y-35593604D02*
X10999999Y-34293604D01*
X10999999Y-34293604D02*
X11433333Y-35593604D01*
D10*
D11*
X11092857Y-84912652D02*
X11278571Y-84974557D01*
X11278571Y-84974557D02*
X11340476Y-85036461D01*
X11340476Y-85036461D02*
X11402380Y-85160271D01*
X11402380Y-85160271D02*
X11402380Y-85345985D01*
X11402380Y-85345985D02*
X11340476Y-85469795D01*
X11340476Y-85469795D02*
X11278571Y-85531700D01*
X11278571Y-85531700D02*
X11154761Y-85593604D01*
X11154761Y-85593604D02*
X10659523Y-85593604D01*
X10659523Y-85593604D02*
X10659523Y-84293604D01*
X10659523Y-84293604D02*
X11092857Y-84293604D01*
X11092857Y-84293604D02*
X11216666Y-84355509D01*
X11216666Y-84355509D02*
X11278571Y-84417414D01*
X11278571Y-84417414D02*
X11340476Y-84541223D01*
X11340476Y-84541223D02*
X11340476Y-84665033D01*
X11340476Y-84665033D02*
X11278571Y-84788842D01*
X11278571Y-84788842D02*
X11216666Y-84850747D01*
X11216666Y-84850747D02*
X11092857Y-84912652D01*
X11092857Y-84912652D02*
X10659523Y-84912652D01*
D10*
D11*
X11402380Y-135469795D02*
X11340476Y-135531700D01*
X11340476Y-135531700D02*
X11154761Y-135593604D01*
X11154761Y-135593604D02*
X11030952Y-135593604D01*
X11030952Y-135593604D02*
X10845238Y-135531700D01*
X10845238Y-135531700D02*
X10721428Y-135407890D01*
X10721428Y-135407890D02*
X10659523Y-135284080D01*
X10659523Y-135284080D02*
X10597619Y-135036461D01*
X10597619Y-135036461D02*
X10597619Y-134850747D01*
X10597619Y-134850747D02*
X10659523Y-134603128D01*
X10659523Y-134603128D02*
X10721428Y-134479319D01*
X10721428Y-134479319D02*
X10845238Y-134355509D01*
X10845238Y-134355509D02*
X11030952Y-134293604D01*
X11030952Y-134293604D02*
X11154761Y-134293604D01*
X11154761Y-134293604D02*
X11340476Y-134355509D01*
X11340476Y-134355509D02*
X11402380Y-134417414D01*
D10*
D11*
X10659523Y-185593604D02*
X10659523Y-184293604D01*
X10659523Y-184293604D02*
X10969047Y-184293604D01*
X10969047Y-184293604D02*
X11154761Y-184355509D01*
X11154761Y-184355509D02*
X11278571Y-184479319D01*
X11278571Y-184479319D02*
X11340476Y-184603128D01*
X11340476Y-184603128D02*
X11402380Y-184850747D01*
X11402380Y-184850747D02*
X11402380Y-185036461D01*
X11402380Y-185036461D02*
X11340476Y-185284080D01*
X11340476Y-185284080D02*
X11278571Y-185407890D01*
X11278571Y-185407890D02*
X11154761Y-185531700D01*
X11154761Y-185531700D02*
X10969047Y-185593604D01*
X10969047Y-185593604D02*
X10659523Y-185593604D01*
D10*
D11*
X287002200Y-60000000D02*
X285002200Y-60000000D01*
D10*
D11*
X287002200Y-110000000D02*
X285002200Y-110000000D01*
D10*
D11*
X287002200Y-160000000D02*
X285002200Y-160000000D01*
D10*
D11*
X285692676Y-35222176D02*
X286311723Y-35222176D01*
X285568866Y-35593604D02*
X286002199Y-34293604D01*
X286002199Y-34293604D02*
X286435533Y-35593604D01*
D10*
D11*
X286095057Y-84912652D02*
X286280771Y-84974557D01*
X286280771Y-84974557D02*
X286342676Y-85036461D01*
X286342676Y-85036461D02*
X286404580Y-85160271D01*
X286404580Y-85160271D02*
X286404580Y-85345985D01*
X286404580Y-85345985D02*
X286342676Y-85469795D01*
X286342676Y-85469795D02*
X286280771Y-85531700D01*
X286280771Y-85531700D02*
X286156961Y-85593604D01*
X286156961Y-85593604D02*
X285661723Y-85593604D01*
X285661723Y-85593604D02*
X285661723Y-84293604D01*
X285661723Y-84293604D02*
X286095057Y-84293604D01*
X286095057Y-84293604D02*
X286218866Y-84355509D01*
X286218866Y-84355509D02*
X286280771Y-84417414D01*
X286280771Y-84417414D02*
X286342676Y-84541223D01*
X286342676Y-84541223D02*
X286342676Y-84665033D01*
X286342676Y-84665033D02*
X286280771Y-84788842D01*
X286280771Y-84788842D02*
X286218866Y-84850747D01*
X286218866Y-84850747D02*
X286095057Y-84912652D01*
X286095057Y-84912652D02*
X285661723Y-84912652D01*
D10*
D11*
X286404580Y-135469795D02*
X286342676Y-135531700D01*
X286342676Y-135531700D02*
X286156961Y-135593604D01*
X286156961Y-135593604D02*
X286033152Y-135593604D01*
X286033152Y-135593604D02*
X285847438Y-135531700D01*
X285847438Y-135531700D02*
X285723628Y-135407890D01*
X285723628Y-135407890D02*
X285661723Y-135284080D01*
X285661723Y-135284080D02*
X285599819Y-135036461D01*
X285599819Y-135036461D02*
X285599819Y-134850747D01*
X285599819Y-134850747D02*
X285661723Y-134603128D01*
X285661723Y-134603128D02*
X285723628Y-134479319D01*
X285723628Y-134479319D02*
X285847438Y-134355509D01*
X285847438Y-134355509D02*
X286033152Y-134293604D01*
X286033152Y-134293604D02*
X286156961Y-134293604D01*
X286156961Y-134293604D02*
X286342676Y-134355509D01*
X286342676Y-134355509D02*
X286404580Y-134417414D01*
D10*
D11*
X285661723Y-185593604D02*
X285661723Y-184293604D01*
X285661723Y-184293604D02*
X285971247Y-184293604D01*
X285971247Y-184293604D02*
X286156961Y-184355509D01*
X286156961Y-184355509D02*
X286280771Y-184479319D01*
X286280771Y-184479319D02*
X286342676Y-184603128D01*
X286342676Y-184603128D02*
X286404580Y-184850747D01*
X286404580Y-184850747D02*
X286404580Y-185036461D01*
X286404580Y-185036461D02*
X286342676Y-185284080D01*
X286342676Y-185284080D02*
X286280771Y-185407890D01*
X286280771Y-185407890D02*
X286156961Y-185531700D01*
X286156961Y-185531700D02*
X285971247Y-185593604D01*
X285971247Y-185593604D02*
X285661723Y-185593604D01*
D10*
D11*
X200458026Y-193793328D02*
X200458026Y-192293328D01*
X200458026Y-192293328D02*
X200815169Y-192293328D01*
X200815169Y-192293328D02*
X201029455Y-192364757D01*
X201029455Y-192364757D02*
X201172312Y-192507614D01*
X201172312Y-192507614D02*
X201243741Y-192650471D01*
X201243741Y-192650471D02*
X201315169Y-192936185D01*
X201315169Y-192936185D02*
X201315169Y-193150471D01*
X201315169Y-193150471D02*
X201243741Y-193436185D01*
X201243741Y-193436185D02*
X201172312Y-193579042D01*
X201172312Y-193579042D02*
X201029455Y-193721900D01*
X201029455Y-193721900D02*
X200815169Y-193793328D01*
X200815169Y-193793328D02*
X200458026Y-193793328D01*
X202600884Y-193793328D02*
X202600884Y-193007614D01*
X202600884Y-193007614D02*
X202529455Y-192864757D01*
X202529455Y-192864757D02*
X202386598Y-192793328D01*
X202386598Y-192793328D02*
X202100884Y-192793328D01*
X202100884Y-192793328D02*
X201958026Y-192864757D01*
X202600884Y-193721900D02*
X202458026Y-193793328D01*
X202458026Y-193793328D02*
X202100884Y-193793328D01*
X202100884Y-193793328D02*
X201958026Y-193721900D01*
X201958026Y-193721900D02*
X201886598Y-193579042D01*
X201886598Y-193579042D02*
X201886598Y-193436185D01*
X201886598Y-193436185D02*
X201958026Y-193293328D01*
X201958026Y-193293328D02*
X202100884Y-193221900D01*
X202100884Y-193221900D02*
X202458026Y-193221900D01*
X202458026Y-193221900D02*
X202600884Y-193150471D01*
X203100884Y-192793328D02*
X203672312Y-192793328D01*
X203315169Y-192293328D02*
X203315169Y-193579042D01*
X203315169Y-193579042D02*
X203386598Y-193721900D01*
X203386598Y-193721900D02*
X203529455Y-193793328D01*
X203529455Y-193793328D02*
X203672312Y-193793328D01*
X204743741Y-193721900D02*
X204600884Y-193793328D01*
X204600884Y-193793328D02*
X204315170Y-193793328D01*
X204315170Y-193793328D02*
X204172312Y-193721900D01*
X204172312Y-193721900D02*
X204100884Y-193579042D01*
X204100884Y-193579042D02*
X204100884Y-193007614D01*
X204100884Y-193007614D02*
X204172312Y-192864757D01*
X204172312Y-192864757D02*
X204315170Y-192793328D01*
X204315170Y-192793328D02*
X204600884Y-192793328D01*
X204600884Y-192793328D02*
X204743741Y-192864757D01*
X204743741Y-192864757D02*
X204815170Y-193007614D01*
X204815170Y-193007614D02*
X204815170Y-193150471D01*
X204815170Y-193150471D02*
X204100884Y-193293328D01*
X205458026Y-193650471D02*
X205529455Y-193721900D01*
X205529455Y-193721900D02*
X205458026Y-193793328D01*
X205458026Y-193793328D02*
X205386598Y-193721900D01*
X205386598Y-193721900D02*
X205458026Y-193650471D01*
X205458026Y-193650471D02*
X205458026Y-193793328D01*
X205458026Y-192864757D02*
X205529455Y-192936185D01*
X205529455Y-192936185D02*
X205458026Y-193007614D01*
X205458026Y-193007614D02*
X205386598Y-192936185D01*
X205386598Y-192936185D02*
X205458026Y-192864757D01*
X205458026Y-192864757D02*
X205458026Y-193007614D01*
X207243741Y-192436185D02*
X207315169Y-192364757D01*
X207315169Y-192364757D02*
X207458027Y-192293328D01*
X207458027Y-192293328D02*
X207815169Y-192293328D01*
X207815169Y-192293328D02*
X207958027Y-192364757D01*
X207958027Y-192364757D02*
X208029455Y-192436185D01*
X208029455Y-192436185D02*
X208100884Y-192579042D01*
X208100884Y-192579042D02*
X208100884Y-192721900D01*
X208100884Y-192721900D02*
X208029455Y-192936185D01*
X208029455Y-192936185D02*
X207172312Y-193793328D01*
X207172312Y-193793328D02*
X208100884Y-193793328D01*
X209029455Y-192293328D02*
X209172312Y-192293328D01*
X209172312Y-192293328D02*
X209315169Y-192364757D01*
X209315169Y-192364757D02*
X209386598Y-192436185D01*
X209386598Y-192436185D02*
X209458026Y-192579042D01*
X209458026Y-192579042D02*
X209529455Y-192864757D01*
X209529455Y-192864757D02*
X209529455Y-193221900D01*
X209529455Y-193221900D02*
X209458026Y-193507614D01*
X209458026Y-193507614D02*
X209386598Y-193650471D01*
X209386598Y-193650471D02*
X209315169Y-193721900D01*
X209315169Y-193721900D02*
X209172312Y-193793328D01*
X209172312Y-193793328D02*
X209029455Y-193793328D01*
X209029455Y-193793328D02*
X208886598Y-193721900D01*
X208886598Y-193721900D02*
X208815169Y-193650471D01*
X208815169Y-193650471D02*
X208743740Y-193507614D01*
X208743740Y-193507614D02*
X208672312Y-193221900D01*
X208672312Y-193221900D02*
X208672312Y-192864757D01*
X208672312Y-192864757D02*
X208743740Y-192579042D01*
X208743740Y-192579042D02*
X208815169Y-192436185D01*
X208815169Y-192436185D02*
X208886598Y-192364757D01*
X208886598Y-192364757D02*
X209029455Y-192293328D01*
X210100883Y-192436185D02*
X210172311Y-192364757D01*
X210172311Y-192364757D02*
X210315169Y-192293328D01*
X210315169Y-192293328D02*
X210672311Y-192293328D01*
X210672311Y-192293328D02*
X210815169Y-192364757D01*
X210815169Y-192364757D02*
X210886597Y-192436185D01*
X210886597Y-192436185D02*
X210958026Y-192579042D01*
X210958026Y-192579042D02*
X210958026Y-192721900D01*
X210958026Y-192721900D02*
X210886597Y-192936185D01*
X210886597Y-192936185D02*
X210029454Y-193793328D01*
X210029454Y-193793328D02*
X210958026Y-193793328D01*
X212315168Y-192293328D02*
X211600882Y-192293328D01*
X211600882Y-192293328D02*
X211529454Y-193007614D01*
X211529454Y-193007614D02*
X211600882Y-192936185D01*
X211600882Y-192936185D02*
X211743740Y-192864757D01*
X211743740Y-192864757D02*
X212100882Y-192864757D01*
X212100882Y-192864757D02*
X212243740Y-192936185D01*
X212243740Y-192936185D02*
X212315168Y-193007614D01*
X212315168Y-193007614D02*
X212386597Y-193150471D01*
X212386597Y-193150471D02*
X212386597Y-193507614D01*
X212386597Y-193507614D02*
X212315168Y-193650471D01*
X212315168Y-193650471D02*
X212243740Y-193721900D01*
X212243740Y-193721900D02*
X212100882Y-193793328D01*
X212100882Y-193793328D02*
X211743740Y-193793328D01*
X211743740Y-193793328D02*
X211600882Y-193721900D01*
X211600882Y-193721900D02*
X211529454Y-193650471D01*
X213029453Y-193221900D02*
X214172311Y-193221900D01*
X215172311Y-192293328D02*
X215315168Y-192293328D01*
X215315168Y-192293328D02*
X215458025Y-192364757D01*
X215458025Y-192364757D02*
X215529454Y-192436185D01*
X215529454Y-192436185D02*
X215600882Y-192579042D01*
X215600882Y-192579042D02*
X215672311Y-192864757D01*
X215672311Y-192864757D02*
X215672311Y-193221900D01*
X215672311Y-193221900D02*
X215600882Y-193507614D01*
X215600882Y-193507614D02*
X215529454Y-193650471D01*
X215529454Y-193650471D02*
X215458025Y-193721900D01*
X215458025Y-193721900D02*
X215315168Y-193793328D01*
X215315168Y-193793328D02*
X215172311Y-193793328D01*
X215172311Y-193793328D02*
X215029454Y-193721900D01*
X215029454Y-193721900D02*
X214958025Y-193650471D01*
X214958025Y-193650471D02*
X214886596Y-193507614D01*
X214886596Y-193507614D02*
X214815168Y-193221900D01*
X214815168Y-193221900D02*
X214815168Y-192864757D01*
X214815168Y-192864757D02*
X214886596Y-192579042D01*
X214886596Y-192579042D02*
X214958025Y-192436185D01*
X214958025Y-192436185D02*
X215029454Y-192364757D01*
X215029454Y-192364757D02*
X215172311Y-192293328D01*
X216172310Y-192293328D02*
X217100882Y-192293328D01*
X217100882Y-192293328D02*
X216600882Y-192864757D01*
X216600882Y-192864757D02*
X216815167Y-192864757D01*
X216815167Y-192864757D02*
X216958025Y-192936185D01*
X216958025Y-192936185D02*
X217029453Y-193007614D01*
X217029453Y-193007614D02*
X217100882Y-193150471D01*
X217100882Y-193150471D02*
X217100882Y-193507614D01*
X217100882Y-193507614D02*
X217029453Y-193650471D01*
X217029453Y-193650471D02*
X216958025Y-193721900D01*
X216958025Y-193721900D02*
X216815167Y-193793328D01*
X216815167Y-193793328D02*
X216386596Y-193793328D01*
X216386596Y-193793328D02*
X216243739Y-193721900D01*
X216243739Y-193721900D02*
X216172310Y-193650471D01*
X217743738Y-193221900D02*
X218886596Y-193221900D01*
X219529453Y-192436185D02*
X219600881Y-192364757D01*
X219600881Y-192364757D02*
X219743739Y-192293328D01*
X219743739Y-192293328D02*
X220100881Y-192293328D01*
X220100881Y-192293328D02*
X220243739Y-192364757D01*
X220243739Y-192364757D02*
X220315167Y-192436185D01*
X220315167Y-192436185D02*
X220386596Y-192579042D01*
X220386596Y-192579042D02*
X220386596Y-192721900D01*
X220386596Y-192721900D02*
X220315167Y-192936185D01*
X220315167Y-192936185D02*
X219458024Y-193793328D01*
X219458024Y-193793328D02*
X220386596Y-193793328D01*
X220958024Y-192436185D02*
X221029452Y-192364757D01*
X221029452Y-192364757D02*
X221172310Y-192293328D01*
X221172310Y-192293328D02*
X221529452Y-192293328D01*
X221529452Y-192293328D02*
X221672310Y-192364757D01*
X221672310Y-192364757D02*
X221743738Y-192436185D01*
X221743738Y-192436185D02*
X221815167Y-192579042D01*
X221815167Y-192579042D02*
X221815167Y-192721900D01*
X221815167Y-192721900D02*
X221743738Y-192936185D01*
X221743738Y-192936185D02*
X220886595Y-193793328D01*
X220886595Y-193793328D02*
X221815167Y-193793328D01*
D10*
D11*
X177002200Y-194507200D02*
X285002200Y-194507200D01*
D10*
D11*
X178458026Y-196593328D02*
X178458026Y-195093328D01*
X179315169Y-196593328D02*
X178672312Y-195736185D01*
X179315169Y-195093328D02*
X178458026Y-195950471D01*
X179958026Y-196593328D02*
X179958026Y-195593328D01*
X179958026Y-195093328D02*
X179886598Y-195164757D01*
X179886598Y-195164757D02*
X179958026Y-195236185D01*
X179958026Y-195236185D02*
X180029455Y-195164757D01*
X180029455Y-195164757D02*
X179958026Y-195093328D01*
X179958026Y-195093328D02*
X179958026Y-195236185D01*
X181529455Y-196450471D02*
X181458027Y-196521900D01*
X181458027Y-196521900D02*
X181243741Y-196593328D01*
X181243741Y-196593328D02*
X181100884Y-196593328D01*
X181100884Y-196593328D02*
X180886598Y-196521900D01*
X180886598Y-196521900D02*
X180743741Y-196379042D01*
X180743741Y-196379042D02*
X180672312Y-196236185D01*
X180672312Y-196236185D02*
X180600884Y-195950471D01*
X180600884Y-195950471D02*
X180600884Y-195736185D01*
X180600884Y-195736185D02*
X180672312Y-195450471D01*
X180672312Y-195450471D02*
X180743741Y-195307614D01*
X180743741Y-195307614D02*
X180886598Y-195164757D01*
X180886598Y-195164757D02*
X181100884Y-195093328D01*
X181100884Y-195093328D02*
X181243741Y-195093328D01*
X181243741Y-195093328D02*
X181458027Y-195164757D01*
X181458027Y-195164757D02*
X181529455Y-195236185D01*
X182815170Y-196593328D02*
X182815170Y-195807614D01*
X182815170Y-195807614D02*
X182743741Y-195664757D01*
X182743741Y-195664757D02*
X182600884Y-195593328D01*
X182600884Y-195593328D02*
X182315170Y-195593328D01*
X182315170Y-195593328D02*
X182172312Y-195664757D01*
X182815170Y-196521900D02*
X182672312Y-196593328D01*
X182672312Y-196593328D02*
X182315170Y-196593328D01*
X182315170Y-196593328D02*
X182172312Y-196521900D01*
X182172312Y-196521900D02*
X182100884Y-196379042D01*
X182100884Y-196379042D02*
X182100884Y-196236185D01*
X182100884Y-196236185D02*
X182172312Y-196093328D01*
X182172312Y-196093328D02*
X182315170Y-196021900D01*
X182315170Y-196021900D02*
X182672312Y-196021900D01*
X182672312Y-196021900D02*
X182815170Y-195950471D01*
X184172313Y-196593328D02*
X184172313Y-195093328D01*
X184172313Y-196521900D02*
X184029455Y-196593328D01*
X184029455Y-196593328D02*
X183743741Y-196593328D01*
X183743741Y-196593328D02*
X183600884Y-196521900D01*
X183600884Y-196521900D02*
X183529455Y-196450471D01*
X183529455Y-196450471D02*
X183458027Y-196307614D01*
X183458027Y-196307614D02*
X183458027Y-195879042D01*
X183458027Y-195879042D02*
X183529455Y-195736185D01*
X183529455Y-195736185D02*
X183600884Y-195664757D01*
X183600884Y-195664757D02*
X183743741Y-195593328D01*
X183743741Y-195593328D02*
X184029455Y-195593328D01*
X184029455Y-195593328D02*
X184172313Y-195664757D01*
X186029455Y-195807614D02*
X186529455Y-195807614D01*
X186743741Y-196593328D02*
X186029455Y-196593328D01*
X186029455Y-196593328D02*
X186029455Y-195093328D01*
X186029455Y-195093328D02*
X186743741Y-195093328D01*
X187386598Y-196450471D02*
X187458027Y-196521900D01*
X187458027Y-196521900D02*
X187386598Y-196593328D01*
X187386598Y-196593328D02*
X187315170Y-196521900D01*
X187315170Y-196521900D02*
X187386598Y-196450471D01*
X187386598Y-196450471D02*
X187386598Y-196593328D01*
X188100884Y-196593328D02*
X188100884Y-195093328D01*
X188100884Y-195093328D02*
X188458027Y-195093328D01*
X188458027Y-195093328D02*
X188672313Y-195164757D01*
X188672313Y-195164757D02*
X188815170Y-195307614D01*
X188815170Y-195307614D02*
X188886599Y-195450471D01*
X188886599Y-195450471D02*
X188958027Y-195736185D01*
X188958027Y-195736185D02*
X188958027Y-195950471D01*
X188958027Y-195950471D02*
X188886599Y-196236185D01*
X188886599Y-196236185D02*
X188815170Y-196379042D01*
X188815170Y-196379042D02*
X188672313Y-196521900D01*
X188672313Y-196521900D02*
X188458027Y-196593328D01*
X188458027Y-196593328D02*
X188100884Y-196593328D01*
X189600884Y-196450471D02*
X189672313Y-196521900D01*
X189672313Y-196521900D02*
X189600884Y-196593328D01*
X189600884Y-196593328D02*
X189529456Y-196521900D01*
X189529456Y-196521900D02*
X189600884Y-196450471D01*
X189600884Y-196450471D02*
X189600884Y-196593328D01*
X190243742Y-196164757D02*
X190958028Y-196164757D01*
X190100885Y-196593328D02*
X190600885Y-195093328D01*
X190600885Y-195093328D02*
X191100885Y-196593328D01*
X191600884Y-196450471D02*
X191672313Y-196521900D01*
X191672313Y-196521900D02*
X191600884Y-196593328D01*
X191600884Y-196593328D02*
X191529456Y-196521900D01*
X191529456Y-196521900D02*
X191600884Y-196450471D01*
X191600884Y-196450471D02*
X191600884Y-196593328D01*
X193529456Y-196593328D02*
X193815170Y-196593328D01*
X193815170Y-196593328D02*
X193958027Y-196521900D01*
X193958027Y-196521900D02*
X194029456Y-196450471D01*
X194029456Y-196450471D02*
X194172313Y-196236185D01*
X194172313Y-196236185D02*
X194243742Y-195950471D01*
X194243742Y-195950471D02*
X194243742Y-195379042D01*
X194243742Y-195379042D02*
X194172313Y-195236185D01*
X194172313Y-195236185D02*
X194100885Y-195164757D01*
X194100885Y-195164757D02*
X193958027Y-195093328D01*
X193958027Y-195093328D02*
X193672313Y-195093328D01*
X193672313Y-195093328D02*
X193529456Y-195164757D01*
X193529456Y-195164757D02*
X193458027Y-195236185D01*
X193458027Y-195236185D02*
X193386599Y-195379042D01*
X193386599Y-195379042D02*
X193386599Y-195736185D01*
X193386599Y-195736185D02*
X193458027Y-195879042D01*
X193458027Y-195879042D02*
X193529456Y-195950471D01*
X193529456Y-195950471D02*
X193672313Y-196021900D01*
X193672313Y-196021900D02*
X193958027Y-196021900D01*
X193958027Y-196021900D02*
X194100885Y-195950471D01*
X194100885Y-195950471D02*
X194172313Y-195879042D01*
X194172313Y-195879042D02*
X194243742Y-195736185D01*
X194886598Y-196450471D02*
X194958027Y-196521900D01*
X194958027Y-196521900D02*
X194886598Y-196593328D01*
X194886598Y-196593328D02*
X194815170Y-196521900D01*
X194815170Y-196521900D02*
X194886598Y-196450471D01*
X194886598Y-196450471D02*
X194886598Y-196593328D01*
X195886599Y-195093328D02*
X196029456Y-195093328D01*
X196029456Y-195093328D02*
X196172313Y-195164757D01*
X196172313Y-195164757D02*
X196243742Y-195236185D01*
X196243742Y-195236185D02*
X196315170Y-195379042D01*
X196315170Y-195379042D02*
X196386599Y-195664757D01*
X196386599Y-195664757D02*
X196386599Y-196021900D01*
X196386599Y-196021900D02*
X196315170Y-196307614D01*
X196315170Y-196307614D02*
X196243742Y-196450471D01*
X196243742Y-196450471D02*
X196172313Y-196521900D01*
X196172313Y-196521900D02*
X196029456Y-196593328D01*
X196029456Y-196593328D02*
X195886599Y-196593328D01*
X195886599Y-196593328D02*
X195743742Y-196521900D01*
X195743742Y-196521900D02*
X195672313Y-196450471D01*
X195672313Y-196450471D02*
X195600884Y-196307614D01*
X195600884Y-196307614D02*
X195529456Y-196021900D01*
X195529456Y-196021900D02*
X195529456Y-195664757D01*
X195529456Y-195664757D02*
X195600884Y-195379042D01*
X195600884Y-195379042D02*
X195672313Y-195236185D01*
X195672313Y-195236185D02*
X195743742Y-195164757D01*
X195743742Y-195164757D02*
X195886599Y-195093328D01*
X197029455Y-196450471D02*
X197100884Y-196521900D01*
X197100884Y-196521900D02*
X197029455Y-196593328D01*
X197029455Y-196593328D02*
X196958027Y-196521900D01*
X196958027Y-196521900D02*
X197029455Y-196450471D01*
X197029455Y-196450471D02*
X197029455Y-196593328D01*
X198029456Y-195093328D02*
X198172313Y-195093328D01*
X198172313Y-195093328D02*
X198315170Y-195164757D01*
X198315170Y-195164757D02*
X198386599Y-195236185D01*
X198386599Y-195236185D02*
X198458027Y-195379042D01*
X198458027Y-195379042D02*
X198529456Y-195664757D01*
X198529456Y-195664757D02*
X198529456Y-196021900D01*
X198529456Y-196021900D02*
X198458027Y-196307614D01*
X198458027Y-196307614D02*
X198386599Y-196450471D01*
X198386599Y-196450471D02*
X198315170Y-196521900D01*
X198315170Y-196521900D02*
X198172313Y-196593328D01*
X198172313Y-196593328D02*
X198029456Y-196593328D01*
X198029456Y-196593328D02*
X197886599Y-196521900D01*
X197886599Y-196521900D02*
X197815170Y-196450471D01*
X197815170Y-196450471D02*
X197743741Y-196307614D01*
X197743741Y-196307614D02*
X197672313Y-196021900D01*
X197672313Y-196021900D02*
X197672313Y-195664757D01*
X197672313Y-195664757D02*
X197743741Y-195379042D01*
X197743741Y-195379042D02*
X197815170Y-195236185D01*
X197815170Y-195236185D02*
X197886599Y-195164757D01*
X197886599Y-195164757D02*
X198029456Y-195093328D01*
D10*
D11*
X177002200Y-191507200D02*
X285002200Y-191507200D01*
D10*
D12*
X264413853Y-193785528D02*
X263913853Y-193071242D01*
X263556710Y-193785528D02*
X263556710Y-192285528D01*
X263556710Y-192285528D02*
X264128139Y-192285528D01*
X264128139Y-192285528D02*
X264270996Y-192356957D01*
X264270996Y-192356957D02*
X264342425Y-192428385D01*
X264342425Y-192428385D02*
X264413853Y-192571242D01*
X264413853Y-192571242D02*
X264413853Y-192785528D01*
X264413853Y-192785528D02*
X264342425Y-192928385D01*
X264342425Y-192928385D02*
X264270996Y-192999814D01*
X264270996Y-192999814D02*
X264128139Y-193071242D01*
X264128139Y-193071242D02*
X263556710Y-193071242D01*
X265628139Y-193714100D02*
X265485282Y-193785528D01*
X265485282Y-193785528D02*
X265199568Y-193785528D01*
X265199568Y-193785528D02*
X265056710Y-193714100D01*
X265056710Y-193714100D02*
X264985282Y-193571242D01*
X264985282Y-193571242D02*
X264985282Y-192999814D01*
X264985282Y-192999814D02*
X265056710Y-192856957D01*
X265056710Y-192856957D02*
X265199568Y-192785528D01*
X265199568Y-192785528D02*
X265485282Y-192785528D01*
X265485282Y-192785528D02*
X265628139Y-192856957D01*
X265628139Y-192856957D02*
X265699568Y-192999814D01*
X265699568Y-192999814D02*
X265699568Y-193142671D01*
X265699568Y-193142671D02*
X264985282Y-193285528D01*
X266199567Y-192785528D02*
X266556710Y-193785528D01*
X266556710Y-193785528D02*
X266913853Y-192785528D01*
X267485281Y-193642671D02*
X267556710Y-193714100D01*
X267556710Y-193714100D02*
X267485281Y-193785528D01*
X267485281Y-193785528D02*
X267413853Y-193714100D01*
X267413853Y-193714100D02*
X267485281Y-193642671D01*
X267485281Y-193642671D02*
X267485281Y-193785528D01*
X267485281Y-192856957D02*
X267556710Y-192928385D01*
X267556710Y-192928385D02*
X267485281Y-192999814D01*
X267485281Y-192999814D02*
X267413853Y-192928385D01*
X267413853Y-192928385D02*
X267485281Y-192856957D01*
X267485281Y-192856957D02*
X267485281Y-192999814D01*
D10*
D11*
X178386598Y-193721900D02*
X178600884Y-193793328D01*
X178600884Y-193793328D02*
X178958026Y-193793328D01*
X178958026Y-193793328D02*
X179100884Y-193721900D01*
X179100884Y-193721900D02*
X179172312Y-193650471D01*
X179172312Y-193650471D02*
X179243741Y-193507614D01*
X179243741Y-193507614D02*
X179243741Y-193364757D01*
X179243741Y-193364757D02*
X179172312Y-193221900D01*
X179172312Y-193221900D02*
X179100884Y-193150471D01*
X179100884Y-193150471D02*
X178958026Y-193079042D01*
X178958026Y-193079042D02*
X178672312Y-193007614D01*
X178672312Y-193007614D02*
X178529455Y-192936185D01*
X178529455Y-192936185D02*
X178458026Y-192864757D01*
X178458026Y-192864757D02*
X178386598Y-192721900D01*
X178386598Y-192721900D02*
X178386598Y-192579042D01*
X178386598Y-192579042D02*
X178458026Y-192436185D01*
X178458026Y-192436185D02*
X178529455Y-192364757D01*
X178529455Y-192364757D02*
X178672312Y-192293328D01*
X178672312Y-192293328D02*
X179029455Y-192293328D01*
X179029455Y-192293328D02*
X179243741Y-192364757D01*
X179886597Y-193793328D02*
X179886597Y-192793328D01*
X179886597Y-192293328D02*
X179815169Y-192364757D01*
X179815169Y-192364757D02*
X179886597Y-192436185D01*
X179886597Y-192436185D02*
X179958026Y-192364757D01*
X179958026Y-192364757D02*
X179886597Y-192293328D01*
X179886597Y-192293328D02*
X179886597Y-192436185D01*
X180458026Y-192793328D02*
X181243741Y-192793328D01*
X181243741Y-192793328D02*
X180458026Y-193793328D01*
X180458026Y-193793328D02*
X181243741Y-193793328D01*
X182386598Y-193721900D02*
X182243741Y-193793328D01*
X182243741Y-193793328D02*
X181958027Y-193793328D01*
X181958027Y-193793328D02*
X181815169Y-193721900D01*
X181815169Y-193721900D02*
X181743741Y-193579042D01*
X181743741Y-193579042D02*
X181743741Y-193007614D01*
X181743741Y-193007614D02*
X181815169Y-192864757D01*
X181815169Y-192864757D02*
X181958027Y-192793328D01*
X181958027Y-192793328D02*
X182243741Y-192793328D01*
X182243741Y-192793328D02*
X182386598Y-192864757D01*
X182386598Y-192864757D02*
X182458027Y-193007614D01*
X182458027Y-193007614D02*
X182458027Y-193150471D01*
X182458027Y-193150471D02*
X181743741Y-193293328D01*
X183100883Y-193650471D02*
X183172312Y-193721900D01*
X183172312Y-193721900D02*
X183100883Y-193793328D01*
X183100883Y-193793328D02*
X183029455Y-193721900D01*
X183029455Y-193721900D02*
X183100883Y-193650471D01*
X183100883Y-193650471D02*
X183100883Y-193793328D01*
X183100883Y-192864757D02*
X183172312Y-192936185D01*
X183172312Y-192936185D02*
X183100883Y-193007614D01*
X183100883Y-193007614D02*
X183029455Y-192936185D01*
X183029455Y-192936185D02*
X183100883Y-192864757D01*
X183100883Y-192864757D02*
X183100883Y-193007614D01*
X184886598Y-193364757D02*
X185600884Y-193364757D01*
X184743741Y-193793328D02*
X185243741Y-192293328D01*
X185243741Y-192293328D02*
X185743741Y-193793328D01*
X186886598Y-192793328D02*
X186886598Y-193793328D01*
X186529455Y-192221900D02*
X186172312Y-193293328D01*
X186172312Y-193293328D02*
X187100883Y-193293328D01*
D10*
D11*
X263458026Y-196593328D02*
X263458026Y-195093328D01*
X264815170Y-196593328D02*
X264815170Y-195093328D01*
X264815170Y-196521900D02*
X264672312Y-196593328D01*
X264672312Y-196593328D02*
X264386598Y-196593328D01*
X264386598Y-196593328D02*
X264243741Y-196521900D01*
X264243741Y-196521900D02*
X264172312Y-196450471D01*
X264172312Y-196450471D02*
X264100884Y-196307614D01*
X264100884Y-196307614D02*
X264100884Y-195879042D01*
X264100884Y-195879042D02*
X264172312Y-195736185D01*
X264172312Y-195736185D02*
X264243741Y-195664757D01*
X264243741Y-195664757D02*
X264386598Y-195593328D01*
X264386598Y-195593328D02*
X264672312Y-195593328D01*
X264672312Y-195593328D02*
X264815170Y-195664757D01*
X265529455Y-196450471D02*
X265600884Y-196521900D01*
X265600884Y-196521900D02*
X265529455Y-196593328D01*
X265529455Y-196593328D02*
X265458027Y-196521900D01*
X265458027Y-196521900D02*
X265529455Y-196450471D01*
X265529455Y-196450471D02*
X265529455Y-196593328D01*
X265529455Y-195664757D02*
X265600884Y-195736185D01*
X265600884Y-195736185D02*
X265529455Y-195807614D01*
X265529455Y-195807614D02*
X265458027Y-195736185D01*
X265458027Y-195736185D02*
X265529455Y-195664757D01*
X265529455Y-195664757D02*
X265529455Y-195807614D01*
X267243741Y-195093328D02*
X268172313Y-195093328D01*
X268172313Y-195093328D02*
X267672313Y-195664757D01*
X267672313Y-195664757D02*
X267886598Y-195664757D01*
X267886598Y-195664757D02*
X268029456Y-195736185D01*
X268029456Y-195736185D02*
X268100884Y-195807614D01*
X268100884Y-195807614D02*
X268172313Y-195950471D01*
X268172313Y-195950471D02*
X268172313Y-196307614D01*
X268172313Y-196307614D02*
X268100884Y-196450471D01*
X268100884Y-196450471D02*
X268029456Y-196521900D01*
X268029456Y-196521900D02*
X267886598Y-196593328D01*
X267886598Y-196593328D02*
X267458027Y-196593328D01*
X267458027Y-196593328D02*
X267315170Y-196521900D01*
X267315170Y-196521900D02*
X267243741Y-196450471D01*
X269886598Y-195021900D02*
X268600884Y-196950471D01*
X270458027Y-196593328D02*
X270743741Y-196593328D01*
X270743741Y-196593328D02*
X270886598Y-196521900D01*
X270886598Y-196521900D02*
X270958027Y-196450471D01*
X270958027Y-196450471D02*
X271100884Y-196236185D01*
X271100884Y-196236185D02*
X271172313Y-195950471D01*
X271172313Y-195950471D02*
X271172313Y-195379042D01*
X271172313Y-195379042D02*
X271100884Y-195236185D01*
X271100884Y-195236185D02*
X271029456Y-195164757D01*
X271029456Y-195164757D02*
X270886598Y-195093328D01*
X270886598Y-195093328D02*
X270600884Y-195093328D01*
X270600884Y-195093328D02*
X270458027Y-195164757D01*
X270458027Y-195164757D02*
X270386598Y-195236185D01*
X270386598Y-195236185D02*
X270315170Y-195379042D01*
X270315170Y-195379042D02*
X270315170Y-195736185D01*
X270315170Y-195736185D02*
X270386598Y-195879042D01*
X270386598Y-195879042D02*
X270458027Y-195950471D01*
X270458027Y-195950471D02*
X270600884Y-196021900D01*
X270600884Y-196021900D02*
X270886598Y-196021900D01*
X270886598Y-196021900D02*
X271029456Y-195950471D01*
X271029456Y-195950471D02*
X271100884Y-195879042D01*
X271100884Y-195879042D02*
X271172313Y-195736185D01*
D10*
D11*
X177002200Y-187507200D02*
X285002200Y-187507200D01*
D10*
D13*
X178693928Y-188211638D02*
X179836785Y-188211638D01*
X179015357Y-190211638D02*
X179265357Y-188211638D01*
X180253452Y-190211638D02*
X180420119Y-188878304D01*
X180503452Y-188211638D02*
X180396309Y-188306876D01*
X180396309Y-188306876D02*
X180479643Y-188402114D01*
X180479643Y-188402114D02*
X180586786Y-188306876D01*
X180586786Y-188306876D02*
X180503452Y-188211638D01*
X180503452Y-188211638D02*
X180479643Y-188402114D01*
X181086786Y-188878304D02*
X181848690Y-188878304D01*
X181455833Y-188211638D02*
X181241548Y-189925923D01*
X181241548Y-189925923D02*
X181312976Y-190116400D01*
X181312976Y-190116400D02*
X181491548Y-190211638D01*
X181491548Y-190211638D02*
X181682024Y-190211638D01*
X182634405Y-190211638D02*
X182455833Y-190116400D01*
X182455833Y-190116400D02*
X182384405Y-189925923D01*
X182384405Y-189925923D02*
X182598690Y-188211638D01*
X184170119Y-190116400D02*
X183967738Y-190211638D01*
X183967738Y-190211638D02*
X183586785Y-190211638D01*
X183586785Y-190211638D02*
X183408214Y-190116400D01*
X183408214Y-190116400D02*
X183336785Y-189925923D01*
X183336785Y-189925923D02*
X183432024Y-189164019D01*
X183432024Y-189164019D02*
X183551071Y-188973542D01*
X183551071Y-188973542D02*
X183753452Y-188878304D01*
X183753452Y-188878304D02*
X184134404Y-188878304D01*
X184134404Y-188878304D02*
X184312976Y-188973542D01*
X184312976Y-188973542D02*
X184384404Y-189164019D01*
X184384404Y-189164019D02*
X184360595Y-189354495D01*
X184360595Y-189354495D02*
X183384404Y-189544971D01*
X185134405Y-190021161D02*
X185217738Y-190116400D01*
X185217738Y-190116400D02*
X185110595Y-190211638D01*
X185110595Y-190211638D02*
X185027262Y-190116400D01*
X185027262Y-190116400D02*
X185134405Y-190021161D01*
X185134405Y-190021161D02*
X185110595Y-190211638D01*
X185265357Y-188973542D02*
X185348690Y-189068780D01*
X185348690Y-189068780D02*
X185241548Y-189164019D01*
X185241548Y-189164019D02*
X185158214Y-189068780D01*
X185158214Y-189068780D02*
X185265357Y-188973542D01*
X185265357Y-188973542D02*
X185241548Y-189164019D01*
X187503453Y-190116400D02*
X187777262Y-190211638D01*
X187777262Y-190211638D02*
X188253453Y-190211638D01*
X188253453Y-190211638D02*
X188455834Y-190116400D01*
X188455834Y-190116400D02*
X188562977Y-190021161D01*
X188562977Y-190021161D02*
X188682024Y-189830685D01*
X188682024Y-189830685D02*
X188705834Y-189640209D01*
X188705834Y-189640209D02*
X188634405Y-189449733D01*
X188634405Y-189449733D02*
X188551072Y-189354495D01*
X188551072Y-189354495D02*
X188372501Y-189259257D01*
X188372501Y-189259257D02*
X188003453Y-189164019D01*
X188003453Y-189164019D02*
X187824881Y-189068780D01*
X187824881Y-189068780D02*
X187741548Y-188973542D01*
X187741548Y-188973542D02*
X187670120Y-188783066D01*
X187670120Y-188783066D02*
X187693929Y-188592590D01*
X187693929Y-188592590D02*
X187812977Y-188402114D01*
X187812977Y-188402114D02*
X187920120Y-188306876D01*
X187920120Y-188306876D02*
X188122501Y-188211638D01*
X188122501Y-188211638D02*
X188598691Y-188211638D01*
X188598691Y-188211638D02*
X188872501Y-188306876D01*
X189372501Y-188878304D02*
X190134405Y-188878304D01*
X189741548Y-188211638D02*
X189527263Y-189925923D01*
X189527263Y-189925923D02*
X189598691Y-190116400D01*
X189598691Y-190116400D02*
X189777263Y-190211638D01*
X189777263Y-190211638D02*
X189967739Y-190211638D01*
X191408215Y-190116400D02*
X191205834Y-190211638D01*
X191205834Y-190211638D02*
X190824881Y-190211638D01*
X190824881Y-190211638D02*
X190646310Y-190116400D01*
X190646310Y-190116400D02*
X190574881Y-189925923D01*
X190574881Y-189925923D02*
X190670120Y-189164019D01*
X190670120Y-189164019D02*
X190789167Y-188973542D01*
X190789167Y-188973542D02*
X190991548Y-188878304D01*
X190991548Y-188878304D02*
X191372500Y-188878304D01*
X191372500Y-188878304D02*
X191551072Y-188973542D01*
X191551072Y-188973542D02*
X191622500Y-189164019D01*
X191622500Y-189164019D02*
X191598691Y-189354495D01*
X191598691Y-189354495D02*
X190622500Y-189544971D01*
X193122501Y-190116400D02*
X192920120Y-190211638D01*
X192920120Y-190211638D02*
X192539167Y-190211638D01*
X192539167Y-190211638D02*
X192360596Y-190116400D01*
X192360596Y-190116400D02*
X192289167Y-189925923D01*
X192289167Y-189925923D02*
X192384406Y-189164019D01*
X192384406Y-189164019D02*
X192503453Y-188973542D01*
X192503453Y-188973542D02*
X192705834Y-188878304D01*
X192705834Y-188878304D02*
X193086786Y-188878304D01*
X193086786Y-188878304D02*
X193265358Y-188973542D01*
X193265358Y-188973542D02*
X193336786Y-189164019D01*
X193336786Y-189164019D02*
X193312977Y-189354495D01*
X193312977Y-189354495D02*
X192336786Y-189544971D01*
X194062977Y-190211638D02*
X194229644Y-188878304D01*
X194182025Y-189259257D02*
X194301072Y-189068780D01*
X194301072Y-189068780D02*
X194408215Y-188973542D01*
X194408215Y-188973542D02*
X194610596Y-188878304D01*
X194610596Y-188878304D02*
X194801072Y-188878304D01*
X195301072Y-190211638D02*
X195467739Y-188878304D01*
X195551072Y-188211638D02*
X195443929Y-188306876D01*
X195443929Y-188306876D02*
X195527263Y-188402114D01*
X195527263Y-188402114D02*
X195634406Y-188306876D01*
X195634406Y-188306876D02*
X195551072Y-188211638D01*
X195551072Y-188211638D02*
X195527263Y-188402114D01*
X196420120Y-188878304D02*
X196253453Y-190211638D01*
X196396310Y-189068780D02*
X196503453Y-188973542D01*
X196503453Y-188973542D02*
X196705834Y-188878304D01*
X196705834Y-188878304D02*
X196991548Y-188878304D01*
X196991548Y-188878304D02*
X197170120Y-188973542D01*
X197170120Y-188973542D02*
X197241548Y-189164019D01*
X197241548Y-189164019D02*
X197110596Y-190211638D01*
X199086787Y-188878304D02*
X198884406Y-190497352D01*
X198884406Y-190497352D02*
X198765358Y-190687828D01*
X198765358Y-190687828D02*
X198658215Y-190783066D01*
X198658215Y-190783066D02*
X198455834Y-190878304D01*
X198455834Y-190878304D02*
X198170120Y-190878304D01*
X198170120Y-190878304D02*
X197991549Y-190783066D01*
X198932025Y-190116400D02*
X198729644Y-190211638D01*
X198729644Y-190211638D02*
X198348692Y-190211638D01*
X198348692Y-190211638D02*
X198170120Y-190116400D01*
X198170120Y-190116400D02*
X198086787Y-190021161D01*
X198086787Y-190021161D02*
X198015358Y-189830685D01*
X198015358Y-189830685D02*
X198086787Y-189259257D01*
X198086787Y-189259257D02*
X198205834Y-189068780D01*
X198205834Y-189068780D02*
X198312977Y-188973542D01*
X198312977Y-188973542D02*
X198515358Y-188878304D01*
X198515358Y-188878304D02*
X198896311Y-188878304D01*
X198896311Y-188878304D02*
X199074882Y-188973542D01*
X199372501Y-190402114D02*
X200896311Y-190402114D01*
X201372502Y-188878304D02*
X201586787Y-190211638D01*
X201586787Y-190211638D02*
X202086787Y-189259257D01*
X202086787Y-189259257D02*
X202348692Y-190211638D01*
X202348692Y-190211638D02*
X202896311Y-188878304D01*
X203491549Y-190211638D02*
X203741549Y-188211638D01*
X204348692Y-190211638D02*
X204479644Y-189164019D01*
X204479644Y-189164019D02*
X204408216Y-188973542D01*
X204408216Y-188973542D02*
X204229644Y-188878304D01*
X204229644Y-188878304D02*
X203943930Y-188878304D01*
X203943930Y-188878304D02*
X203741549Y-188973542D01*
X203741549Y-188973542D02*
X203634406Y-189068780D01*
X206074883Y-190116400D02*
X205872502Y-190211638D01*
X205872502Y-190211638D02*
X205491549Y-190211638D01*
X205491549Y-190211638D02*
X205312978Y-190116400D01*
X205312978Y-190116400D02*
X205241549Y-189925923D01*
X205241549Y-189925923D02*
X205336788Y-189164019D01*
X205336788Y-189164019D02*
X205455835Y-188973542D01*
X205455835Y-188973542D02*
X205658216Y-188878304D01*
X205658216Y-188878304D02*
X206039168Y-188878304D01*
X206039168Y-188878304D02*
X206217740Y-188973542D01*
X206217740Y-188973542D02*
X206289168Y-189164019D01*
X206289168Y-189164019D02*
X206265359Y-189354495D01*
X206265359Y-189354495D02*
X205289168Y-189544971D01*
X207789169Y-190116400D02*
X207586788Y-190211638D01*
X207586788Y-190211638D02*
X207205835Y-190211638D01*
X207205835Y-190211638D02*
X207027264Y-190116400D01*
X207027264Y-190116400D02*
X206955835Y-189925923D01*
X206955835Y-189925923D02*
X207051074Y-189164019D01*
X207051074Y-189164019D02*
X207170121Y-188973542D01*
X207170121Y-188973542D02*
X207372502Y-188878304D01*
X207372502Y-188878304D02*
X207753454Y-188878304D01*
X207753454Y-188878304D02*
X207932026Y-188973542D01*
X207932026Y-188973542D02*
X208003454Y-189164019D01*
X208003454Y-189164019D02*
X207979645Y-189354495D01*
X207979645Y-189354495D02*
X207003454Y-189544971D01*
X209015360Y-190211638D02*
X208836788Y-190116400D01*
X208836788Y-190116400D02*
X208765360Y-189925923D01*
X208765360Y-189925923D02*
X208979645Y-188211638D01*
X209277264Y-190402114D02*
X210801074Y-190402114D01*
X212324884Y-188878304D02*
X212158217Y-190211638D01*
X211467741Y-188878304D02*
X211336789Y-189925923D01*
X211336789Y-189925923D02*
X211408217Y-190116400D01*
X211408217Y-190116400D02*
X211586789Y-190211638D01*
X211586789Y-190211638D02*
X211872503Y-190211638D01*
X211872503Y-190211638D02*
X212074884Y-190116400D01*
X212074884Y-190116400D02*
X212182027Y-190021161D01*
X213277265Y-188878304D02*
X213110598Y-190211638D01*
X213253455Y-189068780D02*
X213360598Y-188973542D01*
X213360598Y-188973542D02*
X213562979Y-188878304D01*
X213562979Y-188878304D02*
X213848693Y-188878304D01*
X213848693Y-188878304D02*
X214027265Y-188973542D01*
X214027265Y-188973542D02*
X214098693Y-189164019D01*
X214098693Y-189164019D02*
X213967741Y-190211638D01*
X214920122Y-190211638D02*
X215086789Y-188878304D01*
X215170122Y-188211638D02*
X215062979Y-188306876D01*
X215062979Y-188306876D02*
X215146313Y-188402114D01*
X215146313Y-188402114D02*
X215253456Y-188306876D01*
X215253456Y-188306876D02*
X215170122Y-188211638D01*
X215170122Y-188211638D02*
X215146313Y-188402114D01*
X215753456Y-188878304D02*
X216515360Y-188878304D01*
X216122503Y-188211638D02*
X215908218Y-189925923D01*
X215908218Y-189925923D02*
X215979646Y-190116400D01*
X215979646Y-190116400D02*
X216158218Y-190211638D01*
X216158218Y-190211638D02*
X216348694Y-190211638D01*
X216515360Y-190402114D02*
X218039170Y-190402114D01*
X218705837Y-188878304D02*
X218455837Y-190878304D01*
X218693932Y-188973542D02*
X218896313Y-188878304D01*
X218896313Y-188878304D02*
X219277265Y-188878304D01*
X219277265Y-188878304D02*
X219455837Y-188973542D01*
X219455837Y-188973542D02*
X219539170Y-189068780D01*
X219539170Y-189068780D02*
X219610599Y-189259257D01*
X219610599Y-189259257D02*
X219539170Y-189830685D01*
X219539170Y-189830685D02*
X219420123Y-190021161D01*
X219420123Y-190021161D02*
X219312980Y-190116400D01*
X219312980Y-190116400D02*
X219110599Y-190211638D01*
X219110599Y-190211638D02*
X218729646Y-190211638D01*
X218729646Y-190211638D02*
X218551075Y-190116400D01*
X221217742Y-190116400D02*
X221015361Y-190211638D01*
X221015361Y-190211638D02*
X220634409Y-190211638D01*
X220634409Y-190211638D02*
X220455837Y-190116400D01*
X220455837Y-190116400D02*
X220372504Y-190021161D01*
X220372504Y-190021161D02*
X220301075Y-189830685D01*
X220301075Y-189830685D02*
X220372504Y-189259257D01*
X220372504Y-189259257D02*
X220491551Y-189068780D01*
X220491551Y-189068780D02*
X220598694Y-188973542D01*
X220598694Y-188973542D02*
X220801075Y-188878304D01*
X220801075Y-188878304D02*
X221182028Y-188878304D01*
X221182028Y-188878304D02*
X221360599Y-188973542D01*
X222062980Y-190211638D02*
X222312980Y-188211638D01*
X222217742Y-188973542D02*
X222420123Y-188878304D01*
X222420123Y-188878304D02*
X222801075Y-188878304D01*
X222801075Y-188878304D02*
X222979647Y-188973542D01*
X222979647Y-188973542D02*
X223062980Y-189068780D01*
X223062980Y-189068780D02*
X223134409Y-189259257D01*
X223134409Y-189259257D02*
X223062980Y-189830685D01*
X223062980Y-189830685D02*
X222943933Y-190021161D01*
X222943933Y-190021161D02*
X222836790Y-190116400D01*
X222836790Y-190116400D02*
X222634409Y-190211638D01*
X222634409Y-190211638D02*
X222253456Y-190211638D01*
X222253456Y-190211638D02*
X222074885Y-190116400D01*
D10*
D11*
X178958026Y-185607614D02*
X178458026Y-185607614D01*
X178458026Y-186393328D02*
X178458026Y-184893328D01*
X178458026Y-184893328D02*
X179172312Y-184893328D01*
X179743740Y-186393328D02*
X179743740Y-185393328D01*
X179743740Y-184893328D02*
X179672312Y-184964757D01*
X179672312Y-184964757D02*
X179743740Y-185036185D01*
X179743740Y-185036185D02*
X179815169Y-184964757D01*
X179815169Y-184964757D02*
X179743740Y-184893328D01*
X179743740Y-184893328D02*
X179743740Y-185036185D01*
X180672312Y-186393328D02*
X180529455Y-186321900D01*
X180529455Y-186321900D02*
X180458026Y-186179042D01*
X180458026Y-186179042D02*
X180458026Y-184893328D01*
X181815169Y-186321900D02*
X181672312Y-186393328D01*
X181672312Y-186393328D02*
X181386598Y-186393328D01*
X181386598Y-186393328D02*
X181243740Y-186321900D01*
X181243740Y-186321900D02*
X181172312Y-186179042D01*
X181172312Y-186179042D02*
X181172312Y-185607614D01*
X181172312Y-185607614D02*
X181243740Y-185464757D01*
X181243740Y-185464757D02*
X181386598Y-185393328D01*
X181386598Y-185393328D02*
X181672312Y-185393328D01*
X181672312Y-185393328D02*
X181815169Y-185464757D01*
X181815169Y-185464757D02*
X181886598Y-185607614D01*
X181886598Y-185607614D02*
X181886598Y-185750471D01*
X181886598Y-185750471D02*
X181172312Y-185893328D01*
X182529454Y-186250471D02*
X182600883Y-186321900D01*
X182600883Y-186321900D02*
X182529454Y-186393328D01*
X182529454Y-186393328D02*
X182458026Y-186321900D01*
X182458026Y-186321900D02*
X182529454Y-186250471D01*
X182529454Y-186250471D02*
X182529454Y-186393328D01*
X182529454Y-185464757D02*
X182600883Y-185536185D01*
X182600883Y-185536185D02*
X182529454Y-185607614D01*
X182529454Y-185607614D02*
X182458026Y-185536185D01*
X182458026Y-185536185D02*
X182529454Y-185464757D01*
X182529454Y-185464757D02*
X182529454Y-185607614D01*
X184315169Y-186321900D02*
X184458026Y-186393328D01*
X184458026Y-186393328D02*
X184743740Y-186393328D01*
X184743740Y-186393328D02*
X184886597Y-186321900D01*
X184886597Y-186321900D02*
X184958026Y-186179042D01*
X184958026Y-186179042D02*
X184958026Y-186107614D01*
X184958026Y-186107614D02*
X184886597Y-185964757D01*
X184886597Y-185964757D02*
X184743740Y-185893328D01*
X184743740Y-185893328D02*
X184529455Y-185893328D01*
X184529455Y-185893328D02*
X184386597Y-185821900D01*
X184386597Y-185821900D02*
X184315169Y-185679042D01*
X184315169Y-185679042D02*
X184315169Y-185607614D01*
X184315169Y-185607614D02*
X184386597Y-185464757D01*
X184386597Y-185464757D02*
X184529455Y-185393328D01*
X184529455Y-185393328D02*
X184743740Y-185393328D01*
X184743740Y-185393328D02*
X184886597Y-185464757D01*
X185386598Y-185393328D02*
X185958026Y-185393328D01*
X185600883Y-184893328D02*
X185600883Y-186179042D01*
X185600883Y-186179042D02*
X185672312Y-186321900D01*
X185672312Y-186321900D02*
X185815169Y-186393328D01*
X185815169Y-186393328D02*
X185958026Y-186393328D01*
X187029455Y-186321900D02*
X186886598Y-186393328D01*
X186886598Y-186393328D02*
X186600884Y-186393328D01*
X186600884Y-186393328D02*
X186458026Y-186321900D01*
X186458026Y-186321900D02*
X186386598Y-186179042D01*
X186386598Y-186179042D02*
X186386598Y-185607614D01*
X186386598Y-185607614D02*
X186458026Y-185464757D01*
X186458026Y-185464757D02*
X186600884Y-185393328D01*
X186600884Y-185393328D02*
X186886598Y-185393328D01*
X186886598Y-185393328D02*
X187029455Y-185464757D01*
X187029455Y-185464757D02*
X187100884Y-185607614D01*
X187100884Y-185607614D02*
X187100884Y-185750471D01*
X187100884Y-185750471D02*
X186386598Y-185893328D01*
X188315169Y-186321900D02*
X188172312Y-186393328D01*
X188172312Y-186393328D02*
X187886598Y-186393328D01*
X187886598Y-186393328D02*
X187743740Y-186321900D01*
X187743740Y-186321900D02*
X187672312Y-186179042D01*
X187672312Y-186179042D02*
X187672312Y-185607614D01*
X187672312Y-185607614D02*
X187743740Y-185464757D01*
X187743740Y-185464757D02*
X187886598Y-185393328D01*
X187886598Y-185393328D02*
X188172312Y-185393328D01*
X188172312Y-185393328D02*
X188315169Y-185464757D01*
X188315169Y-185464757D02*
X188386598Y-185607614D01*
X188386598Y-185607614D02*
X188386598Y-185750471D01*
X188386598Y-185750471D02*
X187672312Y-185893328D01*
X189029454Y-186393328D02*
X189029454Y-185393328D01*
X189029454Y-185679042D02*
X189100883Y-185536185D01*
X189100883Y-185536185D02*
X189172312Y-185464757D01*
X189172312Y-185464757D02*
X189315169Y-185393328D01*
X189315169Y-185393328D02*
X189458026Y-185393328D01*
X189958025Y-186393328D02*
X189958025Y-185393328D01*
X189958025Y-184893328D02*
X189886597Y-184964757D01*
X189886597Y-184964757D02*
X189958025Y-185036185D01*
X189958025Y-185036185D02*
X190029454Y-184964757D01*
X190029454Y-184964757D02*
X189958025Y-184893328D01*
X189958025Y-184893328D02*
X189958025Y-185036185D01*
X190672311Y-185393328D02*
X190672311Y-186393328D01*
X190672311Y-185536185D02*
X190743740Y-185464757D01*
X190743740Y-185464757D02*
X190886597Y-185393328D01*
X190886597Y-185393328D02*
X191100883Y-185393328D01*
X191100883Y-185393328D02*
X191243740Y-185464757D01*
X191243740Y-185464757D02*
X191315169Y-185607614D01*
X191315169Y-185607614D02*
X191315169Y-186393328D01*
X192672312Y-185393328D02*
X192672312Y-186607614D01*
X192672312Y-186607614D02*
X192600883Y-186750471D01*
X192600883Y-186750471D02*
X192529454Y-186821900D01*
X192529454Y-186821900D02*
X192386597Y-186893328D01*
X192386597Y-186893328D02*
X192172312Y-186893328D01*
X192172312Y-186893328D02*
X192029454Y-186821900D01*
X192672312Y-186321900D02*
X192529454Y-186393328D01*
X192529454Y-186393328D02*
X192243740Y-186393328D01*
X192243740Y-186393328D02*
X192100883Y-186321900D01*
X192100883Y-186321900D02*
X192029454Y-186250471D01*
X192029454Y-186250471D02*
X191958026Y-186107614D01*
X191958026Y-186107614D02*
X191958026Y-185679042D01*
X191958026Y-185679042D02*
X192029454Y-185536185D01*
X192029454Y-185536185D02*
X192100883Y-185464757D01*
X192100883Y-185464757D02*
X192243740Y-185393328D01*
X192243740Y-185393328D02*
X192529454Y-185393328D01*
X192529454Y-185393328D02*
X192672312Y-185464757D01*
X193029455Y-186536185D02*
X194172312Y-186536185D01*
X194386597Y-185393328D02*
X194672312Y-186393328D01*
X194672312Y-186393328D02*
X194958026Y-185679042D01*
X194958026Y-185679042D02*
X195243740Y-186393328D01*
X195243740Y-186393328D02*
X195529454Y-185393328D01*
X196100883Y-186393328D02*
X196100883Y-184893328D01*
X196743741Y-186393328D02*
X196743741Y-185607614D01*
X196743741Y-185607614D02*
X196672312Y-185464757D01*
X196672312Y-185464757D02*
X196529455Y-185393328D01*
X196529455Y-185393328D02*
X196315169Y-185393328D01*
X196315169Y-185393328D02*
X196172312Y-185464757D01*
X196172312Y-185464757D02*
X196100883Y-185536185D01*
X198029455Y-186321900D02*
X197886598Y-186393328D01*
X197886598Y-186393328D02*
X197600884Y-186393328D01*
X197600884Y-186393328D02*
X197458026Y-186321900D01*
X197458026Y-186321900D02*
X197386598Y-186179042D01*
X197386598Y-186179042D02*
X197386598Y-185607614D01*
X197386598Y-185607614D02*
X197458026Y-185464757D01*
X197458026Y-185464757D02*
X197600884Y-185393328D01*
X197600884Y-185393328D02*
X197886598Y-185393328D01*
X197886598Y-185393328D02*
X198029455Y-185464757D01*
X198029455Y-185464757D02*
X198100884Y-185607614D01*
X198100884Y-185607614D02*
X198100884Y-185750471D01*
X198100884Y-185750471D02*
X197386598Y-185893328D01*
X199315169Y-186321900D02*
X199172312Y-186393328D01*
X199172312Y-186393328D02*
X198886598Y-186393328D01*
X198886598Y-186393328D02*
X198743740Y-186321900D01*
X198743740Y-186321900D02*
X198672312Y-186179042D01*
X198672312Y-186179042D02*
X198672312Y-185607614D01*
X198672312Y-185607614D02*
X198743740Y-185464757D01*
X198743740Y-185464757D02*
X198886598Y-185393328D01*
X198886598Y-185393328D02*
X199172312Y-185393328D01*
X199172312Y-185393328D02*
X199315169Y-185464757D01*
X199315169Y-185464757D02*
X199386598Y-185607614D01*
X199386598Y-185607614D02*
X199386598Y-185750471D01*
X199386598Y-185750471D02*
X198672312Y-185893328D01*
X200243740Y-186393328D02*
X200100883Y-186321900D01*
X200100883Y-186321900D02*
X200029454Y-186179042D01*
X200029454Y-186179042D02*
X200029454Y-184893328D01*
X200458026Y-186536185D02*
X201600883Y-186536185D01*
X202600883Y-185393328D02*
X202600883Y-186393328D01*
X201958025Y-185393328D02*
X201958025Y-186179042D01*
X201958025Y-186179042D02*
X202029454Y-186321900D01*
X202029454Y-186321900D02*
X202172311Y-186393328D01*
X202172311Y-186393328D02*
X202386597Y-186393328D01*
X202386597Y-186393328D02*
X202529454Y-186321900D01*
X202529454Y-186321900D02*
X202600883Y-186250471D01*
X203315168Y-185393328D02*
X203315168Y-186393328D01*
X203315168Y-185536185D02*
X203386597Y-185464757D01*
X203386597Y-185464757D02*
X203529454Y-185393328D01*
X203529454Y-185393328D02*
X203743740Y-185393328D01*
X203743740Y-185393328D02*
X203886597Y-185464757D01*
X203886597Y-185464757D02*
X203958026Y-185607614D01*
X203958026Y-185607614D02*
X203958026Y-186393328D01*
X204672311Y-186393328D02*
X204672311Y-185393328D01*
X204672311Y-184893328D02*
X204600883Y-184964757D01*
X204600883Y-184964757D02*
X204672311Y-185036185D01*
X204672311Y-185036185D02*
X204743740Y-184964757D01*
X204743740Y-184964757D02*
X204672311Y-184893328D01*
X204672311Y-184893328D02*
X204672311Y-185036185D01*
X205172312Y-185393328D02*
X205743740Y-185393328D01*
X205386597Y-184893328D02*
X205386597Y-186179042D01*
X205386597Y-186179042D02*
X205458026Y-186321900D01*
X205458026Y-186321900D02*
X205600883Y-186393328D01*
X205600883Y-186393328D02*
X205743740Y-186393328D01*
X206243740Y-186250471D02*
X206315169Y-186321900D01*
X206315169Y-186321900D02*
X206243740Y-186393328D01*
X206243740Y-186393328D02*
X206172312Y-186321900D01*
X206172312Y-186321900D02*
X206243740Y-186250471D01*
X206243740Y-186250471D02*
X206243740Y-186393328D01*
X206958026Y-186393328D02*
X206958026Y-184893328D01*
X207100884Y-185821900D02*
X207529455Y-186393328D01*
X207529455Y-185393328D02*
X206958026Y-185964757D01*
X208172312Y-186393328D02*
X208172312Y-185393328D01*
X208172312Y-184893328D02*
X208100884Y-184964757D01*
X208100884Y-184964757D02*
X208172312Y-185036185D01*
X208172312Y-185036185D02*
X208243741Y-184964757D01*
X208243741Y-184964757D02*
X208172312Y-184893328D01*
X208172312Y-184893328D02*
X208172312Y-185036185D01*
X209529456Y-186321900D02*
X209386598Y-186393328D01*
X209386598Y-186393328D02*
X209100884Y-186393328D01*
X209100884Y-186393328D02*
X208958027Y-186321900D01*
X208958027Y-186321900D02*
X208886598Y-186250471D01*
X208886598Y-186250471D02*
X208815170Y-186107614D01*
X208815170Y-186107614D02*
X208815170Y-185679042D01*
X208815170Y-185679042D02*
X208886598Y-185536185D01*
X208886598Y-185536185D02*
X208958027Y-185464757D01*
X208958027Y-185464757D02*
X209100884Y-185393328D01*
X209100884Y-185393328D02*
X209386598Y-185393328D01*
X209386598Y-185393328D02*
X209529456Y-185464757D01*
X210815170Y-186393328D02*
X210815170Y-185607614D01*
X210815170Y-185607614D02*
X210743741Y-185464757D01*
X210743741Y-185464757D02*
X210600884Y-185393328D01*
X210600884Y-185393328D02*
X210315170Y-185393328D01*
X210315170Y-185393328D02*
X210172312Y-185464757D01*
X210815170Y-186321900D02*
X210672312Y-186393328D01*
X210672312Y-186393328D02*
X210315170Y-186393328D01*
X210315170Y-186393328D02*
X210172312Y-186321900D01*
X210172312Y-186321900D02*
X210100884Y-186179042D01*
X210100884Y-186179042D02*
X210100884Y-186036185D01*
X210100884Y-186036185D02*
X210172312Y-185893328D01*
X210172312Y-185893328D02*
X210315170Y-185821900D01*
X210315170Y-185821900D02*
X210672312Y-185821900D01*
X210672312Y-185821900D02*
X210815170Y-185750471D01*
X212172313Y-186393328D02*
X212172313Y-184893328D01*
X212172313Y-186321900D02*
X212029455Y-186393328D01*
X212029455Y-186393328D02*
X211743741Y-186393328D01*
X211743741Y-186393328D02*
X211600884Y-186321900D01*
X211600884Y-186321900D02*
X211529455Y-186250471D01*
X211529455Y-186250471D02*
X211458027Y-186107614D01*
X211458027Y-186107614D02*
X211458027Y-185679042D01*
X211458027Y-185679042D02*
X211529455Y-185536185D01*
X211529455Y-185536185D02*
X211600884Y-185464757D01*
X211600884Y-185464757D02*
X211743741Y-185393328D01*
X211743741Y-185393328D02*
X212029455Y-185393328D01*
X212029455Y-185393328D02*
X212172313Y-185464757D01*
X212529456Y-186536185D02*
X213672313Y-186536185D01*
X214029455Y-185393328D02*
X214029455Y-186893328D01*
X214029455Y-185464757D02*
X214172313Y-185393328D01*
X214172313Y-185393328D02*
X214458027Y-185393328D01*
X214458027Y-185393328D02*
X214600884Y-185464757D01*
X214600884Y-185464757D02*
X214672313Y-185536185D01*
X214672313Y-185536185D02*
X214743741Y-185679042D01*
X214743741Y-185679042D02*
X214743741Y-186107614D01*
X214743741Y-186107614D02*
X214672313Y-186250471D01*
X214672313Y-186250471D02*
X214600884Y-186321900D01*
X214600884Y-186321900D02*
X214458027Y-186393328D01*
X214458027Y-186393328D02*
X214172313Y-186393328D01*
X214172313Y-186393328D02*
X214029455Y-186321900D01*
X216029456Y-186321900D02*
X215886598Y-186393328D01*
X215886598Y-186393328D02*
X215600884Y-186393328D01*
X215600884Y-186393328D02*
X215458027Y-186321900D01*
X215458027Y-186321900D02*
X215386598Y-186250471D01*
X215386598Y-186250471D02*
X215315170Y-186107614D01*
X215315170Y-186107614D02*
X215315170Y-185679042D01*
X215315170Y-185679042D02*
X215386598Y-185536185D01*
X215386598Y-185536185D02*
X215458027Y-185464757D01*
X215458027Y-185464757D02*
X215600884Y-185393328D01*
X215600884Y-185393328D02*
X215886598Y-185393328D01*
X215886598Y-185393328D02*
X216029456Y-185464757D01*
X216672312Y-186393328D02*
X216672312Y-184893328D01*
X216672312Y-185464757D02*
X216815170Y-185393328D01*
X216815170Y-185393328D02*
X217100884Y-185393328D01*
X217100884Y-185393328D02*
X217243741Y-185464757D01*
X217243741Y-185464757D02*
X217315170Y-185536185D01*
X217315170Y-185536185D02*
X217386598Y-185679042D01*
X217386598Y-185679042D02*
X217386598Y-186107614D01*
X217386598Y-186107614D02*
X217315170Y-186250471D01*
X217315170Y-186250471D02*
X217243741Y-186321900D01*
X217243741Y-186321900D02*
X217100884Y-186393328D01*
X217100884Y-186393328D02*
X216815170Y-186393328D01*
X216815170Y-186393328D02*
X216672312Y-186321900D01*
D10*
D11*
X177002200Y-181507200D02*
X285002200Y-181507200D01*
D10*
D11*
X178386598Y-183621900D02*
X178600884Y-183693328D01*
X178600884Y-183693328D02*
X178958026Y-183693328D01*
X178958026Y-183693328D02*
X179100884Y-183621900D01*
X179100884Y-183621900D02*
X179172312Y-183550471D01*
X179172312Y-183550471D02*
X179243741Y-183407614D01*
X179243741Y-183407614D02*
X179243741Y-183264757D01*
X179243741Y-183264757D02*
X179172312Y-183121900D01*
X179172312Y-183121900D02*
X179100884Y-183050471D01*
X179100884Y-183050471D02*
X178958026Y-182979042D01*
X178958026Y-182979042D02*
X178672312Y-182907614D01*
X178672312Y-182907614D02*
X178529455Y-182836185D01*
X178529455Y-182836185D02*
X178458026Y-182764757D01*
X178458026Y-182764757D02*
X178386598Y-182621900D01*
X178386598Y-182621900D02*
X178386598Y-182479042D01*
X178386598Y-182479042D02*
X178458026Y-182336185D01*
X178458026Y-182336185D02*
X178529455Y-182264757D01*
X178529455Y-182264757D02*
X178672312Y-182193328D01*
X178672312Y-182193328D02*
X179029455Y-182193328D01*
X179029455Y-182193328D02*
X179243741Y-182264757D01*
X179886597Y-183693328D02*
X179886597Y-182193328D01*
X180529455Y-183693328D02*
X180529455Y-182907614D01*
X180529455Y-182907614D02*
X180458026Y-182764757D01*
X180458026Y-182764757D02*
X180315169Y-182693328D01*
X180315169Y-182693328D02*
X180100883Y-182693328D01*
X180100883Y-182693328D02*
X179958026Y-182764757D01*
X179958026Y-182764757D02*
X179886597Y-182836185D01*
X181815169Y-183621900D02*
X181672312Y-183693328D01*
X181672312Y-183693328D02*
X181386598Y-183693328D01*
X181386598Y-183693328D02*
X181243740Y-183621900D01*
X181243740Y-183621900D02*
X181172312Y-183479042D01*
X181172312Y-183479042D02*
X181172312Y-182907614D01*
X181172312Y-182907614D02*
X181243740Y-182764757D01*
X181243740Y-182764757D02*
X181386598Y-182693328D01*
X181386598Y-182693328D02*
X181672312Y-182693328D01*
X181672312Y-182693328D02*
X181815169Y-182764757D01*
X181815169Y-182764757D02*
X181886598Y-182907614D01*
X181886598Y-182907614D02*
X181886598Y-183050471D01*
X181886598Y-183050471D02*
X181172312Y-183193328D01*
X183100883Y-183621900D02*
X182958026Y-183693328D01*
X182958026Y-183693328D02*
X182672312Y-183693328D01*
X182672312Y-183693328D02*
X182529454Y-183621900D01*
X182529454Y-183621900D02*
X182458026Y-183479042D01*
X182458026Y-183479042D02*
X182458026Y-182907614D01*
X182458026Y-182907614D02*
X182529454Y-182764757D01*
X182529454Y-182764757D02*
X182672312Y-182693328D01*
X182672312Y-182693328D02*
X182958026Y-182693328D01*
X182958026Y-182693328D02*
X183100883Y-182764757D01*
X183100883Y-182764757D02*
X183172312Y-182907614D01*
X183172312Y-182907614D02*
X183172312Y-183050471D01*
X183172312Y-183050471D02*
X182458026Y-183193328D01*
X183600883Y-182693328D02*
X184172311Y-182693328D01*
X183815168Y-182193328D02*
X183815168Y-183479042D01*
X183815168Y-183479042D02*
X183886597Y-183621900D01*
X183886597Y-183621900D02*
X184029454Y-183693328D01*
X184029454Y-183693328D02*
X184172311Y-183693328D01*
X184672311Y-183550471D02*
X184743740Y-183621900D01*
X184743740Y-183621900D02*
X184672311Y-183693328D01*
X184672311Y-183693328D02*
X184600883Y-183621900D01*
X184600883Y-183621900D02*
X184672311Y-183550471D01*
X184672311Y-183550471D02*
X184672311Y-183693328D01*
X184672311Y-182764757D02*
X184743740Y-182836185D01*
X184743740Y-182836185D02*
X184672311Y-182907614D01*
X184672311Y-182907614D02*
X184600883Y-182836185D01*
X184600883Y-182836185D02*
X184672311Y-182764757D01*
X184672311Y-182764757D02*
X184672311Y-182907614D01*
D10*
D11*
X197002200Y-191507200D02*
X197002200Y-194507200D01*
D10*
D11*
X261002200Y-191507200D02*
X261002200Y-198007200D01*
D14*
%TO.C,C40*%
X195800000Y-139350000D03*
X195800000Y-136400000D03*
%TD*%
%TO.C,C41*%
X193000000Y-139350000D03*
X193000000Y-136400000D03*
%TD*%
D15*
%TO.C,R41*%
X156065000Y-91740000D03*
X158990000Y-91740000D03*
%TD*%
D14*
%TO.C,C42*%
X190200000Y-139350000D03*
X190200000Y-136400000D03*
%TD*%
D16*
%TO.C,U4*%
X211300000Y-119300000D03*
X211300000Y-119800000D03*
X211300000Y-120300000D03*
X211300000Y-120800000D03*
X212770000Y-120800000D03*
X212770000Y-120300000D03*
X212770000Y-119800000D03*
X212770000Y-119300000D03*
%TD*%
D17*
%TO.C,C15*%
X202000000Y-94187500D03*
X202000000Y-97137500D03*
%TD*%
D18*
%TO.C,R39*%
X165600000Y-89250000D03*
X162675000Y-89250000D03*
%TD*%
D19*
%TO.C,SW1*%
X161000000Y-134200000D03*
X161000000Y-127000000D03*
X158000000Y-134200000D03*
X158000000Y-127000000D03*
%TD*%
D20*
%TO.C,L3*%
X215990000Y-127440000D03*
X214420000Y-127440000D03*
%TD*%
D21*
%TO.C,D3*%
X203800000Y-139400000D03*
X203800000Y-136600000D03*
%TD*%
D22*
%TO.C,R5*%
X219060000Y-94600000D03*
X219060000Y-97525000D03*
%TD*%
%TO.C,R11*%
X223350000Y-119280000D03*
X223350000Y-122205000D03*
%TD*%
D21*
%TO.C,D5*%
X206400000Y-139400000D03*
X206400000Y-136600000D03*
%TD*%
D22*
%TO.C,R35*%
X203800000Y-141275000D03*
X203800000Y-144200000D03*
%TD*%
D23*
%TO.C,RV1*%
X218310000Y-103710000D03*
D24*
X219310000Y-100460000D03*
D23*
X220310000Y-103710000D03*
%TD*%
D18*
%TO.C,R4*%
X214230000Y-104180000D03*
X211305000Y-104180000D03*
%TD*%
D25*
%TO.C,D4*%
X180500000Y-90830000D03*
X181800000Y-90830000D03*
X181150000Y-88830000D03*
%TD*%
D26*
%TO.C,C20*%
X158067500Y-123860000D03*
X161017500Y-123860000D03*
%TD*%
D17*
%TO.C,C24*%
X170480000Y-97390000D03*
X170480000Y-100340000D03*
%TD*%
%TO.C,C35*%
X212735000Y-113980000D03*
X212735000Y-116930000D03*
%TD*%
%TO.C,C37*%
X204440000Y-119380000D03*
X204440000Y-122330000D03*
%TD*%
D22*
%TO.C,R33*%
X201200000Y-141275000D03*
X201200000Y-144200000D03*
%TD*%
D15*
%TO.C,R40*%
X156005000Y-89190000D03*
X158930000Y-89190000D03*
%TD*%
D27*
%TO.C,C25*%
X174520000Y-87440000D03*
X171570000Y-87440000D03*
%TD*%
D17*
%TO.C,C38*%
X207050000Y-119380000D03*
X207050000Y-122330000D03*
%TD*%
D28*
%TO.C,Z3*%
X163562500Y-94200000D03*
X163562500Y-97700000D03*
%TD*%
D29*
%TO.C,IC2*%
X208440000Y-94180000D03*
X208440000Y-94830000D03*
X208440000Y-95480000D03*
X208440000Y-96130000D03*
X208440000Y-96780000D03*
X208440000Y-97430000D03*
X208440000Y-98080000D03*
X208440000Y-98730000D03*
X214316000Y-98730000D03*
X214316000Y-98080000D03*
X214316000Y-97430000D03*
X214316000Y-96780000D03*
X214316000Y-96130000D03*
X214316000Y-95480000D03*
X214316000Y-94830000D03*
X214316000Y-94180000D03*
D30*
X211378000Y-96455000D03*
%TD*%
D22*
%TO.C,R10*%
X215425000Y-114010000D03*
X215425000Y-116935000D03*
%TD*%
D31*
%TO.C,Y2*%
X172614500Y-112015500D03*
X171340500Y-112015500D03*
X171340500Y-112989500D03*
X172614500Y-112989500D03*
%TD*%
D19*
%TO.C,SW2*%
X166535000Y-134290000D03*
X166535000Y-127090000D03*
X163535000Y-134290000D03*
X163535000Y-127090000D03*
%TD*%
D27*
%TO.C,C22*%
X166450000Y-123800000D03*
X163500000Y-123800000D03*
%TD*%
D23*
%TO.C,RV2*%
X221340000Y-115760000D03*
D24*
X222340000Y-112510000D03*
D23*
X223340000Y-115760000D03*
%TD*%
D15*
%TO.C,R7*%
X217370000Y-107330000D03*
X220295000Y-107330000D03*
%TD*%
D27*
%TO.C,C12*%
X169640000Y-109780000D03*
X166690000Y-109780000D03*
%TD*%
D32*
%TO.C,D6*%
X208800000Y-110710000D03*
X207530000Y-110710000D03*
X206260000Y-110710000D03*
X204990000Y-110710000D03*
D33*
X204990000Y-116520000D03*
X206320000Y-116520000D03*
X207470000Y-116520000D03*
X208800000Y-116520000D03*
D34*
X208135000Y-114800000D03*
X205655000Y-114800000D03*
D35*
X208383000Y-112660000D03*
X205407000Y-112660000D03*
%TD*%
D17*
%TO.C,C34*%
X215980000Y-122050000D03*
X215980000Y-125000000D03*
%TD*%
D22*
%TO.C,R12*%
X173600000Y-89695000D03*
X173600000Y-92620000D03*
%TD*%
D17*
%TO.C,C11*%
X168950000Y-104320000D03*
X168950000Y-107270000D03*
%TD*%
D36*
%TO.C,Y1*%
X161940000Y-105040000D03*
X161940000Y-111340000D03*
X162840000Y-111340000D03*
X162840000Y-105040000D03*
%TD*%
D28*
%TO.C,Z4*%
X158100000Y-94100000D03*
X158100000Y-97600000D03*
%TD*%
D18*
%TO.C,R37*%
X160962500Y-137000000D03*
X158037500Y-137000000D03*
%TD*%
D37*
%TO.C,Z5*%
X216320000Y-111740000D03*
X212820000Y-111740000D03*
%TD*%
D38*
%TO.C,U1*%
X182500000Y-110000000D03*
X182500000Y-110500000D03*
X182500000Y-111000000D03*
X182500000Y-111500000D03*
X182500000Y-112000000D03*
X182500000Y-112500000D03*
X182500000Y-113000000D03*
X182500000Y-113500000D03*
X182500000Y-114000000D03*
X182500000Y-114500000D03*
X182500000Y-115000000D03*
X182500000Y-115500000D03*
D39*
X183912500Y-116912500D03*
X184412500Y-116912500D03*
X184912500Y-116912500D03*
X185412500Y-116912500D03*
X185912500Y-116912500D03*
X186412500Y-116912500D03*
X186912500Y-116912500D03*
X187412500Y-116912500D03*
X187912500Y-116912500D03*
X188412500Y-116912500D03*
X188912500Y-116912500D03*
X189412500Y-116912500D03*
D38*
X190825000Y-115500000D03*
X190825000Y-115000000D03*
X190825000Y-114500000D03*
X190825000Y-114000000D03*
X190825000Y-113500000D03*
X190825000Y-113000000D03*
X190825000Y-112500000D03*
X190825000Y-112000000D03*
X190825000Y-111500000D03*
X190825000Y-111000000D03*
X190825000Y-110500000D03*
X190825000Y-110000000D03*
D39*
X189412500Y-108587500D03*
X188912500Y-108587500D03*
X188412500Y-108587500D03*
X187912500Y-108587500D03*
X187412500Y-108587500D03*
X186912500Y-108587500D03*
X186412500Y-108587500D03*
X185912500Y-108587500D03*
X185412500Y-108587500D03*
X184912500Y-108587500D03*
X184412500Y-108587500D03*
X183912500Y-108587500D03*
%TD*%
D26*
%TO.C,C39*%
X215350000Y-119580000D03*
X218300000Y-119580000D03*
%TD*%
D21*
%TO.C,D2*%
X201200000Y-139400000D03*
X201200000Y-136600000D03*
%TD*%
D22*
%TO.C,R2*%
X204600000Y-94175000D03*
X204600000Y-97100000D03*
%TD*%
D40*
%TO.C,U3*%
X173160000Y-99950000D03*
X174430000Y-99950000D03*
X175700000Y-99950000D03*
X176970000Y-99950000D03*
X176970000Y-95000000D03*
X175700000Y-95000000D03*
X174430000Y-95000000D03*
X173160000Y-95000000D03*
%TD*%
D15*
%TO.C,R38*%
X162675000Y-91800000D03*
X165600000Y-91800000D03*
%TD*%
D41*
%TO.C,C17*%
X218020000Y-91240000D03*
X218020000Y-85840000D03*
%TD*%
D22*
%TO.C,R3*%
X204620000Y-99225000D03*
X204620000Y-102150000D03*
%TD*%
%TO.C,R13*%
X176170000Y-89695000D03*
X176170000Y-92620000D03*
%TD*%
D18*
%TO.C,R46*%
X166437500Y-121100000D03*
X163512500Y-121100000D03*
%TD*%
D17*
%TO.C,C36*%
X218030000Y-113980000D03*
X218030000Y-116930000D03*
%TD*%
D42*
%TO.C,D1*%
X197300000Y-96754004D03*
X197300000Y-90500000D03*
%TD*%
D43*
%TO.C,R44*%
X203770000Y-132220000D03*
X203770000Y-129295000D03*
%TD*%
D22*
%TO.C,R36*%
X206400000Y-141275000D03*
X206400000Y-144200000D03*
%TD*%
D17*
%TO.C,C10*%
X166350000Y-104340000D03*
X166350000Y-107290000D03*
%TD*%
D27*
%TO.C,C19*%
X214245000Y-101500000D03*
X211295000Y-101500000D03*
%TD*%
%TO.C,C13*%
X169580000Y-113010000D03*
X166630000Y-113010000D03*
%TD*%
D18*
%TO.C,R45*%
X166485000Y-137090000D03*
X163560000Y-137090000D03*
%TD*%
M02*
